G04 EAGLE Gerber RS-274X export*
G75*
%MOMM*%
%FSLAX34Y34*%
%LPD*%
%INBottom Copper*%
%IPPOS*%
%AMOC8*
5,1,8,0,0,1.08239X$1,22.5*%
G01*
%ADD10P,2.336880X8X22.500000*%
%ADD11R,1.300000X1.500000*%
%ADD12P,1.732040X8X202.500000*%
%ADD13C,1.600200*%
%ADD14P,1.732040X8X22.500000*%
%ADD15C,1.778000*%
%ADD16R,1.778000X1.778000*%
%ADD17C,2.000000*%
%ADD18R,2.000000X2.000000*%
%ADD19R,2.032000X0.660400*%
%ADD20R,2.540000X2.540000*%
%ADD21C,2.540000*%
%ADD22R,0.800000X0.900000*%
%ADD23R,1.500000X1.300000*%
%ADD24C,0.756400*%
%ADD25C,0.254000*%
%ADD26C,0.508000*%

G36*
X207365Y11448D02*
X207365Y11448D01*
X207503Y11461D01*
X207523Y11468D01*
X207543Y11471D01*
X207672Y11522D01*
X207803Y11569D01*
X207820Y11580D01*
X207838Y11588D01*
X207951Y11669D01*
X208066Y11747D01*
X208079Y11763D01*
X208096Y11774D01*
X208184Y11882D01*
X208276Y11986D01*
X208286Y12004D01*
X208298Y12019D01*
X208358Y12145D01*
X208421Y12269D01*
X208425Y12289D01*
X208434Y12307D01*
X208460Y12443D01*
X208491Y12579D01*
X208490Y12600D01*
X208494Y12619D01*
X208485Y12758D01*
X208481Y12897D01*
X208475Y12917D01*
X208474Y12937D01*
X208431Y13069D01*
X208393Y13203D01*
X208382Y13220D01*
X208376Y13239D01*
X208301Y13357D01*
X208231Y13477D01*
X208212Y13498D01*
X208206Y13508D01*
X208191Y13522D01*
X208125Y13597D01*
X202056Y19666D01*
X202056Y31134D01*
X210166Y39244D01*
X221634Y39244D01*
X229744Y31134D01*
X229744Y19666D01*
X223675Y13597D01*
X223590Y13488D01*
X223502Y13381D01*
X223493Y13362D01*
X223480Y13346D01*
X223425Y13218D01*
X223366Y13093D01*
X223362Y13073D01*
X223354Y13054D01*
X223332Y12916D01*
X223306Y12780D01*
X223307Y12760D01*
X223304Y12740D01*
X223317Y12601D01*
X223326Y12463D01*
X223332Y12444D01*
X223334Y12424D01*
X223381Y12292D01*
X223424Y12161D01*
X223435Y12143D01*
X223442Y12124D01*
X223520Y12009D01*
X223594Y11892D01*
X223609Y11878D01*
X223620Y11861D01*
X223725Y11769D01*
X223826Y11674D01*
X223843Y11664D01*
X223859Y11651D01*
X223983Y11587D01*
X224104Y11520D01*
X224124Y11515D01*
X224142Y11506D01*
X224278Y11476D01*
X224412Y11441D01*
X224440Y11439D01*
X224452Y11436D01*
X224473Y11437D01*
X224573Y11431D01*
X271445Y11431D01*
X271583Y11448D01*
X271722Y11461D01*
X271741Y11468D01*
X271761Y11471D01*
X271890Y11522D01*
X272021Y11569D01*
X272038Y11580D01*
X272057Y11588D01*
X272169Y11669D01*
X272284Y11747D01*
X272298Y11763D01*
X272314Y11774D01*
X272403Y11882D01*
X272495Y11986D01*
X272504Y12004D01*
X272517Y12019D01*
X272576Y12145D01*
X272639Y12269D01*
X272644Y12289D01*
X272652Y12307D01*
X272678Y12443D01*
X272709Y12579D01*
X272708Y12600D01*
X272712Y12619D01*
X272704Y12758D01*
X272699Y12897D01*
X272694Y12917D01*
X272692Y12937D01*
X272650Y13069D01*
X272611Y13203D01*
X272601Y13220D01*
X272594Y13239D01*
X272520Y13357D01*
X272449Y13477D01*
X272431Y13498D01*
X272424Y13508D01*
X272409Y13522D01*
X272343Y13597D01*
X266064Y19876D01*
X266064Y22861D01*
X278130Y22861D01*
X278248Y22876D01*
X278367Y22883D01*
X278405Y22896D01*
X278445Y22901D01*
X278556Y22944D01*
X278669Y22981D01*
X278703Y23003D01*
X278741Y23018D01*
X278837Y23088D01*
X278938Y23151D01*
X278966Y23181D01*
X278998Y23204D01*
X279074Y23296D01*
X279156Y23383D01*
X279175Y23418D01*
X279201Y23449D01*
X279252Y23557D01*
X279309Y23661D01*
X279320Y23701D01*
X279337Y23737D01*
X279359Y23854D01*
X279389Y23969D01*
X279393Y24030D01*
X279397Y24050D01*
X279395Y24070D01*
X279399Y24130D01*
X279399Y25401D01*
X280670Y25401D01*
X280788Y25416D01*
X280907Y25423D01*
X280945Y25436D01*
X280985Y25441D01*
X281096Y25485D01*
X281209Y25521D01*
X281244Y25543D01*
X281281Y25558D01*
X281377Y25628D01*
X281478Y25691D01*
X281506Y25721D01*
X281539Y25745D01*
X281614Y25836D01*
X281696Y25923D01*
X281716Y25958D01*
X281741Y25990D01*
X281792Y26097D01*
X281850Y26202D01*
X281860Y26241D01*
X281877Y26277D01*
X281899Y26394D01*
X281929Y26509D01*
X281933Y26570D01*
X281937Y26590D01*
X281935Y26610D01*
X281939Y26670D01*
X281939Y38736D01*
X284924Y38736D01*
X290843Y32816D01*
X290937Y32743D01*
X291027Y32664D01*
X291063Y32646D01*
X291095Y32621D01*
X291204Y32574D01*
X291310Y32520D01*
X291349Y32511D01*
X291386Y32495D01*
X291504Y32476D01*
X291620Y32450D01*
X291660Y32451D01*
X291701Y32445D01*
X291819Y32456D01*
X291938Y32460D01*
X291977Y32471D01*
X292017Y32475D01*
X292129Y32515D01*
X292244Y32548D01*
X292278Y32569D01*
X292316Y32583D01*
X292415Y32650D01*
X292517Y32710D01*
X292563Y32750D01*
X292580Y32761D01*
X292593Y32776D01*
X292638Y32816D01*
X299066Y39244D01*
X310534Y39244D01*
X316603Y33175D01*
X316712Y33090D01*
X316819Y33002D01*
X316838Y32993D01*
X316854Y32980D01*
X316982Y32925D01*
X317107Y32866D01*
X317127Y32862D01*
X317146Y32854D01*
X317284Y32832D01*
X317420Y32806D01*
X317440Y32807D01*
X317460Y32804D01*
X317599Y32817D01*
X317737Y32826D01*
X317756Y32832D01*
X317776Y32834D01*
X317908Y32881D01*
X318039Y32924D01*
X318057Y32935D01*
X318076Y32942D01*
X318191Y33020D01*
X318308Y33094D01*
X318322Y33109D01*
X318339Y33120D01*
X318431Y33225D01*
X318526Y33326D01*
X318536Y33343D01*
X318549Y33359D01*
X318613Y33483D01*
X318680Y33604D01*
X318685Y33624D01*
X318694Y33642D01*
X318724Y33778D01*
X318759Y33912D01*
X318761Y33940D01*
X318764Y33952D01*
X318763Y33973D01*
X318769Y34073D01*
X318769Y363039D01*
X318757Y363138D01*
X318754Y363237D01*
X318737Y363295D01*
X318729Y363355D01*
X318693Y363447D01*
X318665Y363542D01*
X318635Y363594D01*
X318612Y363651D01*
X318554Y363731D01*
X318504Y363816D01*
X318438Y363892D01*
X318426Y363908D01*
X318416Y363916D01*
X318398Y363937D01*
X300437Y381898D01*
X300359Y381958D01*
X300287Y382026D01*
X300234Y382055D01*
X300186Y382092D01*
X300095Y382132D01*
X300008Y382180D01*
X299950Y382195D01*
X299894Y382219D01*
X299796Y382234D01*
X299700Y382259D01*
X299600Y382265D01*
X299580Y382269D01*
X299567Y382267D01*
X299539Y382269D01*
X251726Y382269D01*
X247525Y384009D01*
X244309Y387225D01*
X242569Y391426D01*
X242569Y398445D01*
X242552Y398583D01*
X242539Y398722D01*
X242532Y398741D01*
X242529Y398761D01*
X242478Y398890D01*
X242431Y399021D01*
X242420Y399038D01*
X242412Y399057D01*
X242331Y399169D01*
X242253Y399284D01*
X242237Y399298D01*
X242226Y399314D01*
X242118Y399403D01*
X242014Y399495D01*
X241996Y399504D01*
X241981Y399517D01*
X241855Y399576D01*
X241731Y399639D01*
X241711Y399644D01*
X241693Y399652D01*
X241557Y399678D01*
X241421Y399709D01*
X241400Y399708D01*
X241381Y399712D01*
X241242Y399704D01*
X241103Y399699D01*
X241083Y399694D01*
X241063Y399692D01*
X240931Y399650D01*
X240797Y399611D01*
X240780Y399601D01*
X240761Y399594D01*
X240643Y399520D01*
X240523Y399449D01*
X240502Y399431D01*
X240492Y399424D01*
X240478Y399409D01*
X240403Y399343D01*
X234124Y393064D01*
X231139Y393064D01*
X231139Y405130D01*
X231124Y405248D01*
X231117Y405367D01*
X231104Y405405D01*
X231099Y405445D01*
X231056Y405556D01*
X231019Y405669D01*
X230997Y405703D01*
X230982Y405741D01*
X230912Y405837D01*
X230849Y405938D01*
X230819Y405966D01*
X230795Y405998D01*
X230704Y406074D01*
X230617Y406156D01*
X230582Y406175D01*
X230551Y406201D01*
X230443Y406252D01*
X230339Y406309D01*
X230299Y406320D01*
X230263Y406337D01*
X230146Y406359D01*
X230031Y406389D01*
X229970Y406393D01*
X229950Y406397D01*
X229930Y406395D01*
X229870Y406399D01*
X228599Y406399D01*
X228599Y406401D01*
X229870Y406401D01*
X229988Y406416D01*
X230107Y406423D01*
X230145Y406436D01*
X230185Y406441D01*
X230296Y406485D01*
X230409Y406521D01*
X230444Y406543D01*
X230481Y406558D01*
X230577Y406628D01*
X230678Y406691D01*
X230706Y406721D01*
X230739Y406745D01*
X230814Y406836D01*
X230896Y406923D01*
X230916Y406958D01*
X230941Y406990D01*
X230992Y407097D01*
X231050Y407202D01*
X231060Y407241D01*
X231077Y407277D01*
X231099Y407394D01*
X231129Y407509D01*
X231133Y407570D01*
X231137Y407590D01*
X231135Y407610D01*
X231139Y407670D01*
X231139Y419736D01*
X234135Y419736D01*
X234272Y419753D01*
X234411Y419766D01*
X234430Y419773D01*
X234450Y419776D01*
X234579Y419827D01*
X234710Y419874D01*
X234727Y419885D01*
X234746Y419893D01*
X234858Y419974D01*
X234973Y420052D01*
X234987Y420068D01*
X235003Y420079D01*
X235092Y420187D01*
X235184Y420291D01*
X235193Y420309D01*
X235206Y420324D01*
X235265Y420450D01*
X235328Y420574D01*
X235333Y420594D01*
X235341Y420612D01*
X235368Y420748D01*
X235398Y420884D01*
X235397Y420905D01*
X235401Y420924D01*
X235393Y421063D01*
X235388Y421202D01*
X235383Y421222D01*
X235381Y421242D01*
X235339Y421374D01*
X235300Y421508D01*
X235290Y421525D01*
X235283Y421544D01*
X235209Y421662D01*
X235138Y421782D01*
X235120Y421803D01*
X235113Y421813D01*
X235098Y421827D01*
X235032Y421902D01*
X224237Y432698D01*
X224159Y432758D01*
X224087Y432826D01*
X224034Y432855D01*
X223986Y432892D01*
X223895Y432932D01*
X223808Y432980D01*
X223750Y432995D01*
X223694Y433019D01*
X223596Y433034D01*
X223500Y433059D01*
X223400Y433065D01*
X223380Y433069D01*
X223367Y433067D01*
X223339Y433069D01*
X106861Y433069D01*
X106762Y433057D01*
X106663Y433054D01*
X106605Y433037D01*
X106545Y433029D01*
X106453Y432993D01*
X106358Y432965D01*
X106306Y432935D01*
X106249Y432912D01*
X106169Y432854D01*
X106084Y432804D01*
X106008Y432738D01*
X105992Y432726D01*
X105984Y432716D01*
X105963Y432698D01*
X95676Y422410D01*
X95591Y422301D01*
X95502Y422194D01*
X95493Y422175D01*
X95481Y422159D01*
X95426Y422031D01*
X95367Y421906D01*
X95363Y421886D01*
X95355Y421867D01*
X95333Y421729D01*
X95307Y421593D01*
X95308Y421573D01*
X95305Y421553D01*
X95318Y421414D01*
X95327Y421276D01*
X95333Y421257D01*
X95335Y421237D01*
X95382Y421105D01*
X95425Y420974D01*
X95435Y420956D01*
X95442Y420937D01*
X95520Y420822D01*
X95595Y420705D01*
X95609Y420691D01*
X95621Y420674D01*
X95725Y420582D01*
X95826Y420487D01*
X95844Y420477D01*
X95859Y420464D01*
X95983Y420400D01*
X96105Y420333D01*
X96124Y420328D01*
X96142Y420319D01*
X96278Y420289D01*
X96413Y420254D01*
X96441Y420252D01*
X96453Y420249D01*
X96473Y420250D01*
X96573Y420244D01*
X107334Y420244D01*
X111785Y415793D01*
X111894Y415708D01*
X112001Y415620D01*
X112020Y415611D01*
X112036Y415598D01*
X112164Y415543D01*
X112289Y415484D01*
X112309Y415480D01*
X112328Y415472D01*
X112466Y415450D01*
X112602Y415424D01*
X112622Y415425D01*
X112642Y415422D01*
X112781Y415435D01*
X112919Y415444D01*
X112938Y415450D01*
X112958Y415452D01*
X113090Y415499D01*
X113221Y415542D01*
X113239Y415553D01*
X113258Y415560D01*
X113373Y415638D01*
X113490Y415712D01*
X113504Y415727D01*
X113521Y415738D01*
X113613Y415843D01*
X113708Y415944D01*
X113718Y415961D01*
X113731Y415977D01*
X113795Y416101D01*
X113862Y416222D01*
X113867Y416242D01*
X113876Y416260D01*
X113906Y416396D01*
X113941Y416530D01*
X113943Y416558D01*
X113946Y416570D01*
X113945Y416591D01*
X113951Y416691D01*
X113951Y417663D01*
X115737Y419449D01*
X138263Y419449D01*
X140049Y417663D01*
X140049Y395137D01*
X138263Y393351D01*
X115737Y393351D01*
X113951Y395137D01*
X113951Y396109D01*
X113934Y396247D01*
X113921Y396385D01*
X113914Y396405D01*
X113911Y396425D01*
X113860Y396554D01*
X113813Y396685D01*
X113802Y396702D01*
X113794Y396720D01*
X113713Y396833D01*
X113635Y396948D01*
X113619Y396961D01*
X113608Y396978D01*
X113500Y397066D01*
X113396Y397158D01*
X113378Y397168D01*
X113363Y397180D01*
X113237Y397240D01*
X113113Y397303D01*
X113093Y397307D01*
X113075Y397316D01*
X112939Y397342D01*
X112803Y397373D01*
X112782Y397372D01*
X112763Y397376D01*
X112624Y397367D01*
X112485Y397363D01*
X112465Y397357D01*
X112445Y397356D01*
X112313Y397313D01*
X112179Y397275D01*
X112162Y397264D01*
X112143Y397258D01*
X112025Y397183D01*
X111905Y397113D01*
X111884Y397094D01*
X111874Y397088D01*
X111860Y397073D01*
X111785Y397007D01*
X107334Y392556D01*
X97028Y392556D01*
X96910Y392541D01*
X96791Y392534D01*
X96753Y392521D01*
X96712Y392516D01*
X96602Y392473D01*
X96489Y392436D01*
X96454Y392414D01*
X96417Y392399D01*
X96321Y392330D01*
X96220Y392266D01*
X96192Y392236D01*
X96159Y392213D01*
X96083Y392121D01*
X96002Y392034D01*
X95982Y391999D01*
X95957Y391968D01*
X95906Y391860D01*
X95848Y391756D01*
X95838Y391716D01*
X95821Y391680D01*
X95799Y391563D01*
X95769Y391448D01*
X95765Y391388D01*
X95761Y391368D01*
X95763Y391347D01*
X95759Y391287D01*
X95759Y386802D01*
X94908Y384748D01*
X70349Y360189D01*
X70289Y360111D01*
X70221Y360039D01*
X70192Y359986D01*
X70155Y359938D01*
X70115Y359847D01*
X70067Y359760D01*
X70052Y359702D01*
X70028Y359646D01*
X70013Y359548D01*
X69988Y359452D01*
X69982Y359352D01*
X69978Y359332D01*
X69980Y359320D01*
X69978Y359292D01*
X69978Y303918D01*
X69993Y303800D01*
X70000Y303681D01*
X70013Y303643D01*
X70018Y303602D01*
X70061Y303492D01*
X70098Y303379D01*
X70120Y303344D01*
X70135Y303307D01*
X70204Y303211D01*
X70268Y303110D01*
X70298Y303082D01*
X70321Y303049D01*
X70413Y302973D01*
X70500Y302892D01*
X70535Y302872D01*
X70566Y302847D01*
X70674Y302796D01*
X70778Y302738D01*
X70818Y302728D01*
X70854Y302711D01*
X70971Y302689D01*
X71086Y302659D01*
X71146Y302655D01*
X71166Y302651D01*
X71187Y302653D01*
X71247Y302649D01*
X73812Y302649D01*
X73930Y302664D01*
X74049Y302671D01*
X74087Y302684D01*
X74128Y302689D01*
X74238Y302732D01*
X74351Y302769D01*
X74386Y302791D01*
X74423Y302806D01*
X74519Y302875D01*
X74620Y302939D01*
X74648Y302969D01*
X74681Y302992D01*
X74757Y303084D01*
X74838Y303171D01*
X74858Y303206D01*
X74883Y303237D01*
X74934Y303345D01*
X74992Y303449D01*
X75002Y303489D01*
X75019Y303525D01*
X75041Y303642D01*
X75071Y303757D01*
X75075Y303817D01*
X75079Y303837D01*
X75077Y303858D01*
X75081Y303918D01*
X75081Y309789D01*
X80987Y315695D01*
X126419Y315695D01*
X133215Y308900D01*
X133324Y308814D01*
X133431Y308726D01*
X133450Y308717D01*
X133466Y308705D01*
X133594Y308649D01*
X133719Y308590D01*
X133739Y308586D01*
X133758Y308578D01*
X133896Y308556D01*
X134032Y308530D01*
X134052Y308532D01*
X134072Y308529D01*
X134211Y308542D01*
X134349Y308550D01*
X134368Y308556D01*
X134388Y308558D01*
X134520Y308606D01*
X134651Y308648D01*
X134669Y308659D01*
X134688Y308666D01*
X134803Y308744D01*
X134920Y308818D01*
X134934Y308833D01*
X134951Y308845D01*
X135043Y308949D01*
X135138Y309050D01*
X135148Y309068D01*
X135161Y309083D01*
X135225Y309207D01*
X135292Y309329D01*
X135297Y309348D01*
X135306Y309366D01*
X135336Y309502D01*
X135371Y309636D01*
X135373Y309665D01*
X135376Y309676D01*
X135375Y309697D01*
X135381Y309797D01*
X135381Y313807D01*
X135380Y313816D01*
X135381Y313825D01*
X135360Y313974D01*
X135341Y314122D01*
X135338Y314131D01*
X135337Y314140D01*
X135285Y314292D01*
X134393Y316444D01*
X134393Y318556D01*
X135201Y320506D01*
X136694Y321999D01*
X138644Y322807D01*
X140756Y322807D01*
X142706Y321999D01*
X144199Y320506D01*
X145007Y318556D01*
X145007Y316444D01*
X144115Y314292D01*
X144113Y314283D01*
X144108Y314275D01*
X144071Y314130D01*
X144031Y313986D01*
X144031Y313976D01*
X144029Y313967D01*
X144019Y313807D01*
X144019Y306070D01*
X144034Y305952D01*
X144041Y305833D01*
X144054Y305795D01*
X144059Y305754D01*
X144102Y305644D01*
X144139Y305531D01*
X144161Y305496D01*
X144176Y305459D01*
X144245Y305363D01*
X144309Y305262D01*
X144339Y305234D01*
X144362Y305201D01*
X144454Y305125D01*
X144541Y305044D01*
X144576Y305024D01*
X144607Y304999D01*
X144715Y304948D01*
X144819Y304890D01*
X144859Y304880D01*
X144895Y304863D01*
X145012Y304841D01*
X145127Y304811D01*
X145187Y304807D01*
X145207Y304803D01*
X145228Y304805D01*
X145288Y304801D01*
X145789Y304801D01*
X147575Y303015D01*
X147575Y293885D01*
X146687Y292997D01*
X146614Y292903D01*
X146535Y292814D01*
X146517Y292778D01*
X146492Y292746D01*
X146445Y292637D01*
X146391Y292531D01*
X146382Y292492D01*
X146366Y292454D01*
X146347Y292337D01*
X146321Y292221D01*
X146322Y292180D01*
X146316Y292140D01*
X146327Y292022D01*
X146331Y291903D01*
X146342Y291864D01*
X146346Y291824D01*
X146386Y291712D01*
X146419Y291597D01*
X146440Y291562D01*
X146453Y291524D01*
X146520Y291426D01*
X146581Y291323D01*
X146620Y291278D01*
X146632Y291261D01*
X146647Y291248D01*
X146687Y291202D01*
X147575Y290315D01*
X147575Y281185D01*
X146687Y280297D01*
X146614Y280203D01*
X146535Y280114D01*
X146517Y280078D01*
X146492Y280046D01*
X146445Y279937D01*
X146391Y279831D01*
X146382Y279792D01*
X146366Y279754D01*
X146347Y279637D01*
X146321Y279521D01*
X146322Y279480D01*
X146316Y279440D01*
X146327Y279322D01*
X146331Y279203D01*
X146342Y279164D01*
X146346Y279124D01*
X146386Y279012D01*
X146419Y278897D01*
X146440Y278862D01*
X146453Y278824D01*
X146520Y278726D01*
X146581Y278623D01*
X146620Y278578D01*
X146632Y278561D01*
X146647Y278548D01*
X146687Y278502D01*
X147449Y277740D01*
X147527Y277680D01*
X147599Y277612D01*
X147653Y277583D01*
X147700Y277546D01*
X147791Y277506D01*
X147878Y277458D01*
X147937Y277443D01*
X147992Y277419D01*
X148090Y277404D01*
X148186Y277379D01*
X148286Y277373D01*
X148306Y277369D01*
X148319Y277371D01*
X148347Y277369D01*
X157999Y277369D01*
X174499Y260869D01*
X174499Y189618D01*
X174514Y189500D01*
X174521Y189381D01*
X174534Y189343D01*
X174539Y189302D01*
X174582Y189192D01*
X174619Y189079D01*
X174641Y189044D01*
X174656Y189007D01*
X174725Y188911D01*
X174789Y188810D01*
X174819Y188782D01*
X174842Y188749D01*
X174934Y188673D01*
X175021Y188592D01*
X175056Y188572D01*
X175087Y188547D01*
X175195Y188496D01*
X175299Y188438D01*
X175339Y188428D01*
X175375Y188411D01*
X175492Y188389D01*
X175607Y188359D01*
X175667Y188355D01*
X175687Y188351D01*
X175708Y188353D01*
X175768Y188349D01*
X188763Y188349D01*
X189602Y187509D01*
X189696Y187436D01*
X189786Y187357D01*
X189822Y187339D01*
X189854Y187314D01*
X189963Y187267D01*
X190069Y187213D01*
X190108Y187204D01*
X190146Y187188D01*
X190263Y187169D01*
X190379Y187143D01*
X190420Y187144D01*
X190460Y187138D01*
X190578Y187149D01*
X190697Y187153D01*
X190736Y187164D01*
X190776Y187168D01*
X190889Y187208D01*
X191003Y187241D01*
X191037Y187262D01*
X191076Y187275D01*
X191174Y187342D01*
X191277Y187403D01*
X191322Y187443D01*
X191339Y187454D01*
X191352Y187469D01*
X191397Y187509D01*
X192237Y188349D01*
X207763Y188349D01*
X209549Y186563D01*
X209549Y183388D01*
X209564Y183270D01*
X209571Y183151D01*
X209584Y183113D01*
X209589Y183072D01*
X209632Y182962D01*
X209669Y182849D01*
X209691Y182814D01*
X209706Y182777D01*
X209775Y182681D01*
X209839Y182580D01*
X209869Y182552D01*
X209892Y182519D01*
X209984Y182443D01*
X210071Y182362D01*
X210106Y182342D01*
X210137Y182317D01*
X210245Y182266D01*
X210349Y182208D01*
X210389Y182198D01*
X210425Y182181D01*
X210542Y182159D01*
X210657Y182129D01*
X210717Y182125D01*
X210737Y182121D01*
X210758Y182123D01*
X210818Y182119D01*
X220982Y182119D01*
X221100Y182134D01*
X221219Y182141D01*
X221257Y182154D01*
X221298Y182159D01*
X221408Y182202D01*
X221521Y182239D01*
X221556Y182261D01*
X221593Y182276D01*
X221689Y182345D01*
X221790Y182409D01*
X221818Y182439D01*
X221851Y182462D01*
X221927Y182554D01*
X222008Y182641D01*
X222028Y182676D01*
X222053Y182707D01*
X222104Y182815D01*
X222162Y182919D01*
X222172Y182959D01*
X222189Y182995D01*
X222211Y183112D01*
X222241Y183227D01*
X222245Y183287D01*
X222249Y183307D01*
X222247Y183328D01*
X222251Y183388D01*
X222251Y186563D01*
X224037Y188349D01*
X239563Y188349D01*
X240403Y187509D01*
X240497Y187436D01*
X240586Y187357D01*
X240622Y187339D01*
X240654Y187314D01*
X240763Y187267D01*
X240869Y187213D01*
X240908Y187204D01*
X240946Y187188D01*
X241063Y187169D01*
X241179Y187143D01*
X241220Y187144D01*
X241260Y187138D01*
X241378Y187149D01*
X241497Y187153D01*
X241536Y187164D01*
X241576Y187168D01*
X241688Y187208D01*
X241803Y187241D01*
X241838Y187262D01*
X241876Y187275D01*
X241974Y187342D01*
X242077Y187403D01*
X242122Y187442D01*
X242139Y187454D01*
X242152Y187469D01*
X242198Y187509D01*
X243037Y188349D01*
X245212Y188349D01*
X245330Y188364D01*
X245449Y188371D01*
X245487Y188384D01*
X245528Y188389D01*
X245638Y188432D01*
X245751Y188469D01*
X245786Y188491D01*
X245823Y188506D01*
X245919Y188575D01*
X246020Y188639D01*
X246048Y188669D01*
X246081Y188692D01*
X246157Y188784D01*
X246238Y188871D01*
X246258Y188906D01*
X246283Y188937D01*
X246334Y189045D01*
X246392Y189149D01*
X246402Y189189D01*
X246419Y189225D01*
X246441Y189342D01*
X246471Y189457D01*
X246475Y189517D01*
X246479Y189537D01*
X246477Y189558D01*
X246481Y189618D01*
X246481Y197950D01*
X246480Y197959D01*
X246481Y197969D01*
X246460Y198117D01*
X246441Y198266D01*
X246438Y198274D01*
X246437Y198283D01*
X246385Y198436D01*
X246153Y198994D01*
X246153Y201106D01*
X246961Y203056D01*
X247598Y203693D01*
X247683Y203802D01*
X247772Y203909D01*
X247780Y203928D01*
X247793Y203944D01*
X247848Y204072D01*
X247907Y204197D01*
X247911Y204217D01*
X247919Y204236D01*
X247941Y204374D01*
X247967Y204510D01*
X247966Y204530D01*
X247969Y204550D01*
X247956Y204689D01*
X247947Y204827D01*
X247941Y204846D01*
X247939Y204866D01*
X247892Y204998D01*
X247849Y205129D01*
X247838Y205147D01*
X247831Y205166D01*
X247753Y205281D01*
X247679Y205398D01*
X247664Y205412D01*
X247653Y205429D01*
X247549Y205521D01*
X247447Y205616D01*
X247430Y205626D01*
X247414Y205639D01*
X247291Y205702D01*
X247169Y205770D01*
X247149Y205775D01*
X247131Y205784D01*
X246995Y205814D01*
X246861Y205849D01*
X246833Y205851D01*
X246821Y205854D01*
X246800Y205853D01*
X246700Y205859D01*
X243966Y205859D01*
X243319Y206032D01*
X242740Y206367D01*
X242557Y206550D01*
X242469Y206618D01*
X242433Y206652D01*
X242425Y206657D01*
X242373Y206702D01*
X242337Y206720D01*
X242305Y206745D01*
X242196Y206792D01*
X242090Y206847D01*
X242051Y206855D01*
X242014Y206871D01*
X241896Y206890D01*
X241780Y206916D01*
X241739Y206915D01*
X241699Y206921D01*
X241581Y206910D01*
X241462Y206907D01*
X241423Y206895D01*
X241383Y206891D01*
X241271Y206851D01*
X241156Y206818D01*
X241122Y206798D01*
X241084Y206784D01*
X240985Y206717D01*
X240883Y206657D01*
X240837Y206617D01*
X240820Y206605D01*
X240807Y206590D01*
X240762Y206550D01*
X239563Y205351D01*
X227885Y205351D01*
X227786Y205339D01*
X227687Y205336D01*
X227629Y205319D01*
X227569Y205311D01*
X227477Y205275D01*
X227382Y205247D01*
X227354Y205231D01*
X209815Y205231D01*
X209716Y205219D01*
X209617Y205216D01*
X209559Y205199D01*
X209499Y205191D01*
X209407Y205155D01*
X209312Y205127D01*
X209260Y205097D01*
X209203Y205074D01*
X209123Y205016D01*
X209038Y204966D01*
X208963Y204900D01*
X208946Y204888D01*
X208938Y204878D01*
X208917Y204860D01*
X207257Y203199D01*
X184411Y203199D01*
X182625Y204985D01*
X182625Y214115D01*
X183513Y215003D01*
X183586Y215097D01*
X183665Y215186D01*
X183683Y215222D01*
X183708Y215254D01*
X183755Y215363D01*
X183809Y215469D01*
X183818Y215508D01*
X183834Y215546D01*
X183853Y215663D01*
X183879Y215779D01*
X183878Y215820D01*
X183884Y215860D01*
X183873Y215978D01*
X183869Y216097D01*
X183858Y216136D01*
X183854Y216176D01*
X183814Y216288D01*
X183781Y216403D01*
X183760Y216438D01*
X183747Y216476D01*
X183680Y216574D01*
X183619Y216677D01*
X183580Y216722D01*
X183568Y216739D01*
X183553Y216752D01*
X183513Y216798D01*
X182625Y217685D01*
X182625Y226815D01*
X183513Y227703D01*
X183586Y227797D01*
X183665Y227886D01*
X183683Y227922D01*
X183708Y227954D01*
X183755Y228063D01*
X183809Y228169D01*
X183818Y228208D01*
X183834Y228246D01*
X183853Y228363D01*
X183879Y228479D01*
X183878Y228520D01*
X183884Y228560D01*
X183873Y228678D01*
X183869Y228797D01*
X183858Y228836D01*
X183854Y228876D01*
X183814Y228988D01*
X183781Y229103D01*
X183760Y229138D01*
X183747Y229176D01*
X183680Y229274D01*
X183619Y229377D01*
X183580Y229422D01*
X183568Y229439D01*
X183553Y229452D01*
X183513Y229498D01*
X182625Y230385D01*
X182625Y239515D01*
X183513Y240403D01*
X183586Y240497D01*
X183665Y240586D01*
X183683Y240622D01*
X183708Y240654D01*
X183755Y240763D01*
X183809Y240869D01*
X183818Y240908D01*
X183834Y240946D01*
X183853Y241063D01*
X183879Y241179D01*
X183878Y241220D01*
X183884Y241260D01*
X183873Y241378D01*
X183869Y241497D01*
X183858Y241536D01*
X183854Y241576D01*
X183814Y241688D01*
X183781Y241803D01*
X183760Y241838D01*
X183747Y241876D01*
X183680Y241974D01*
X183619Y242077D01*
X183580Y242122D01*
X183568Y242139D01*
X183553Y242152D01*
X183513Y242198D01*
X182625Y243085D01*
X182625Y252215D01*
X183872Y253462D01*
X183945Y253556D01*
X184024Y253645D01*
X184042Y253681D01*
X184067Y253713D01*
X184114Y253822D01*
X184169Y253928D01*
X184177Y253968D01*
X184193Y254005D01*
X184212Y254123D01*
X184238Y254239D01*
X184237Y254279D01*
X184243Y254319D01*
X184232Y254438D01*
X184228Y254557D01*
X184217Y254595D01*
X184213Y254636D01*
X184173Y254748D01*
X184140Y254862D01*
X184120Y254897D01*
X184106Y254935D01*
X184039Y255033D01*
X183979Y255136D01*
X183939Y255181D01*
X183927Y255198D01*
X183912Y255212D01*
X183872Y255257D01*
X183641Y255488D01*
X183306Y256067D01*
X183133Y256714D01*
X183133Y258700D01*
X195453Y258700D01*
X195571Y258715D01*
X195690Y258722D01*
X195728Y258734D01*
X195768Y258740D01*
X195824Y258762D01*
X195939Y258740D01*
X196055Y258710D01*
X196115Y258706D01*
X196135Y258702D01*
X196155Y258704D01*
X196215Y258700D01*
X208535Y258700D01*
X208535Y256714D01*
X208362Y256067D01*
X208027Y255488D01*
X207796Y255257D01*
X207723Y255163D01*
X207644Y255073D01*
X207626Y255037D01*
X207601Y255005D01*
X207554Y254896D01*
X207499Y254790D01*
X207491Y254751D01*
X207475Y254714D01*
X207456Y254596D01*
X207430Y254480D01*
X207431Y254439D01*
X207425Y254400D01*
X207436Y254281D01*
X207439Y254162D01*
X207451Y254123D01*
X207455Y254083D01*
X207495Y253971D01*
X207528Y253857D01*
X207548Y253822D01*
X207562Y253784D01*
X207629Y253685D01*
X207689Y253583D01*
X207729Y253537D01*
X207741Y253521D01*
X207756Y253507D01*
X207796Y253462D01*
X209227Y252030D01*
X209322Y251957D01*
X209411Y251878D01*
X209447Y251860D01*
X209479Y251835D01*
X209588Y251788D01*
X209694Y251734D01*
X209733Y251725D01*
X209771Y251709D01*
X209888Y251690D01*
X210004Y251664D01*
X210045Y251665D01*
X210085Y251659D01*
X210203Y251670D01*
X210322Y251674D01*
X210361Y251685D01*
X210401Y251689D01*
X210514Y251729D01*
X210628Y251762D01*
X210662Y251783D01*
X210701Y251796D01*
X210799Y251863D01*
X210902Y251924D01*
X210947Y251964D01*
X210964Y251975D01*
X210977Y251990D01*
X211022Y252030D01*
X221880Y262887D01*
X221940Y262965D01*
X222008Y263037D01*
X222037Y263090D01*
X222074Y263138D01*
X222114Y263229D01*
X222162Y263316D01*
X222177Y263375D01*
X222201Y263430D01*
X222216Y263528D01*
X222241Y263624D01*
X222247Y263724D01*
X222251Y263744D01*
X222249Y263757D01*
X222251Y263785D01*
X222251Y275463D01*
X224037Y277249D01*
X239563Y277249D01*
X240402Y276409D01*
X240496Y276336D01*
X240586Y276257D01*
X240622Y276239D01*
X240654Y276214D01*
X240763Y276167D01*
X240869Y276113D01*
X240908Y276104D01*
X240946Y276088D01*
X241063Y276069D01*
X241179Y276043D01*
X241220Y276044D01*
X241260Y276038D01*
X241378Y276049D01*
X241497Y276053D01*
X241536Y276064D01*
X241576Y276068D01*
X241689Y276108D01*
X241803Y276141D01*
X241837Y276162D01*
X241876Y276175D01*
X241974Y276242D01*
X242077Y276303D01*
X242122Y276343D01*
X242139Y276354D01*
X242152Y276369D01*
X242197Y276409D01*
X243037Y277249D01*
X258563Y277249D01*
X260349Y275463D01*
X260349Y272288D01*
X260364Y272170D01*
X260371Y272051D01*
X260384Y272013D01*
X260389Y271972D01*
X260432Y271862D01*
X260469Y271749D01*
X260491Y271714D01*
X260506Y271677D01*
X260575Y271581D01*
X260639Y271480D01*
X260669Y271452D01*
X260692Y271419D01*
X260784Y271343D01*
X260871Y271262D01*
X260906Y271242D01*
X260937Y271217D01*
X261045Y271166D01*
X261149Y271108D01*
X261189Y271098D01*
X261225Y271081D01*
X261342Y271059D01*
X261457Y271029D01*
X261517Y271025D01*
X261537Y271021D01*
X261558Y271023D01*
X261618Y271019D01*
X271782Y271019D01*
X271900Y271034D01*
X272019Y271041D01*
X272057Y271054D01*
X272098Y271059D01*
X272208Y271102D01*
X272321Y271139D01*
X272356Y271161D01*
X272393Y271176D01*
X272489Y271245D01*
X272590Y271309D01*
X272618Y271339D01*
X272651Y271362D01*
X272727Y271454D01*
X272808Y271541D01*
X272828Y271576D01*
X272853Y271607D01*
X272904Y271715D01*
X272962Y271819D01*
X272972Y271859D01*
X272989Y271895D01*
X273011Y272012D01*
X273041Y272127D01*
X273045Y272187D01*
X273049Y272207D01*
X273047Y272228D01*
X273051Y272288D01*
X273051Y275463D01*
X274837Y277249D01*
X277012Y277249D01*
X277130Y277264D01*
X277249Y277271D01*
X277287Y277284D01*
X277328Y277289D01*
X277438Y277332D01*
X277551Y277369D01*
X277586Y277391D01*
X277623Y277406D01*
X277719Y277475D01*
X277820Y277539D01*
X277848Y277569D01*
X277881Y277592D01*
X277957Y277684D01*
X278038Y277771D01*
X278058Y277806D01*
X278083Y277837D01*
X278134Y277945D01*
X278192Y278049D01*
X278202Y278089D01*
X278219Y278125D01*
X278241Y278242D01*
X278271Y278357D01*
X278275Y278417D01*
X278279Y278437D01*
X278277Y278458D01*
X278281Y278518D01*
X278281Y280282D01*
X278266Y280400D01*
X278259Y280519D01*
X278246Y280557D01*
X278241Y280598D01*
X278198Y280708D01*
X278161Y280821D01*
X278139Y280856D01*
X278124Y280893D01*
X278055Y280989D01*
X277991Y281090D01*
X277961Y281118D01*
X277938Y281151D01*
X277846Y281227D01*
X277759Y281308D01*
X277724Y281328D01*
X277693Y281353D01*
X277585Y281404D01*
X277481Y281462D01*
X277441Y281472D01*
X277405Y281489D01*
X277288Y281511D01*
X277173Y281541D01*
X277113Y281545D01*
X277093Y281549D01*
X277072Y281547D01*
X277012Y281551D01*
X274837Y281551D01*
X273051Y283337D01*
X273051Y299212D01*
X273036Y299330D01*
X273029Y299449D01*
X273016Y299487D01*
X273011Y299528D01*
X272968Y299638D01*
X272931Y299751D01*
X272909Y299786D01*
X272894Y299823D01*
X272825Y299919D01*
X272761Y300020D01*
X272731Y300048D01*
X272708Y300081D01*
X272616Y300157D01*
X272529Y300238D01*
X272494Y300258D01*
X272463Y300283D01*
X272355Y300334D01*
X272251Y300392D01*
X272211Y300402D01*
X272175Y300419D01*
X272058Y300441D01*
X271943Y300471D01*
X271883Y300475D01*
X271863Y300479D01*
X271842Y300477D01*
X271782Y300481D01*
X261110Y300481D01*
X260992Y300466D01*
X260873Y300459D01*
X260835Y300446D01*
X260794Y300441D01*
X260684Y300398D01*
X260571Y300361D01*
X260536Y300339D01*
X260499Y300324D01*
X260403Y300255D01*
X260302Y300191D01*
X260274Y300161D01*
X260241Y300138D01*
X260165Y300046D01*
X260084Y299959D01*
X260064Y299924D01*
X260039Y299893D01*
X259988Y299785D01*
X259930Y299681D01*
X259920Y299641D01*
X259903Y299605D01*
X259881Y299488D01*
X259851Y299373D01*
X259847Y299313D01*
X259843Y299293D01*
X259845Y299272D01*
X259841Y299212D01*
X259841Y294639D01*
X252070Y294639D01*
X251952Y294624D01*
X251833Y294617D01*
X251795Y294604D01*
X251755Y294599D01*
X251644Y294555D01*
X251531Y294519D01*
X251496Y294497D01*
X251459Y294482D01*
X251363Y294412D01*
X251262Y294349D01*
X251234Y294319D01*
X251202Y294295D01*
X251126Y294204D01*
X251044Y294117D01*
X251025Y294082D01*
X250999Y294050D01*
X250948Y293943D01*
X250891Y293839D01*
X250880Y293799D01*
X250863Y293763D01*
X250841Y293646D01*
X250811Y293531D01*
X250807Y293470D01*
X250803Y293450D01*
X250805Y293430D01*
X250801Y293370D01*
X250801Y292099D01*
X249530Y292099D01*
X249412Y292084D01*
X249293Y292077D01*
X249255Y292064D01*
X249215Y292059D01*
X249104Y292015D01*
X248991Y291979D01*
X248956Y291957D01*
X248919Y291942D01*
X248823Y291872D01*
X248722Y291809D01*
X248694Y291779D01*
X248661Y291755D01*
X248586Y291664D01*
X248504Y291577D01*
X248484Y291542D01*
X248459Y291510D01*
X248408Y291403D01*
X248350Y291299D01*
X248340Y291259D01*
X248323Y291223D01*
X248301Y291106D01*
X248271Y290991D01*
X248267Y290930D01*
X248263Y290910D01*
X248265Y290890D01*
X248261Y290830D01*
X248261Y282059D01*
X243966Y282059D01*
X243319Y282232D01*
X242740Y282567D01*
X242557Y282750D01*
X242463Y282823D01*
X242373Y282902D01*
X242337Y282920D01*
X242306Y282945D01*
X242196Y282992D01*
X242090Y283047D01*
X242051Y283055D01*
X242014Y283071D01*
X241896Y283090D01*
X241780Y283116D01*
X241739Y283115D01*
X241700Y283121D01*
X241581Y283110D01*
X241462Y283107D01*
X241423Y283095D01*
X241383Y283091D01*
X241271Y283051D01*
X241157Y283018D01*
X241122Y282998D01*
X241084Y282984D01*
X240985Y282917D01*
X240883Y282857D01*
X240837Y282817D01*
X240821Y282805D01*
X240807Y282790D01*
X240762Y282750D01*
X239563Y281551D01*
X227885Y281551D01*
X227786Y281539D01*
X227687Y281536D01*
X227629Y281519D01*
X227569Y281511D01*
X227477Y281475D01*
X227382Y281447D01*
X227354Y281431D01*
X209815Y281431D01*
X209716Y281419D01*
X209617Y281416D01*
X209559Y281399D01*
X209499Y281391D01*
X209407Y281355D01*
X209312Y281327D01*
X209260Y281297D01*
X209203Y281274D01*
X209123Y281216D01*
X209038Y281166D01*
X208962Y281100D01*
X208946Y281088D01*
X208938Y281078D01*
X208917Y281060D01*
X207796Y279938D01*
X207723Y279844D01*
X207644Y279755D01*
X207626Y279719D01*
X207601Y279687D01*
X207554Y279578D01*
X207499Y279472D01*
X207491Y279432D01*
X207475Y279395D01*
X207456Y279277D01*
X207430Y279161D01*
X207431Y279121D01*
X207425Y279081D01*
X207436Y278962D01*
X207439Y278844D01*
X207451Y278805D01*
X207455Y278764D01*
X207495Y278652D01*
X207528Y278538D01*
X207548Y278503D01*
X207562Y278465D01*
X207629Y278367D01*
X207689Y278264D01*
X207729Y278219D01*
X207741Y278202D01*
X207756Y278189D01*
X207796Y278143D01*
X208027Y277912D01*
X208362Y277333D01*
X208535Y276686D01*
X208535Y274700D01*
X196215Y274700D01*
X196097Y274685D01*
X195978Y274678D01*
X195940Y274665D01*
X195900Y274660D01*
X195844Y274638D01*
X195729Y274660D01*
X195613Y274690D01*
X195553Y274694D01*
X195533Y274698D01*
X195513Y274696D01*
X195453Y274700D01*
X183133Y274700D01*
X183133Y276686D01*
X183306Y277333D01*
X183641Y277912D01*
X183872Y278143D01*
X183945Y278237D01*
X184024Y278327D01*
X184042Y278363D01*
X184067Y278395D01*
X184114Y278504D01*
X184169Y278610D01*
X184177Y278649D01*
X184193Y278686D01*
X184212Y278804D01*
X184238Y278920D01*
X184237Y278961D01*
X184243Y279001D01*
X184232Y279119D01*
X184229Y279238D01*
X184217Y279277D01*
X184213Y279317D01*
X184173Y279429D01*
X184140Y279544D01*
X184120Y279578D01*
X184106Y279616D01*
X184039Y279715D01*
X183979Y279817D01*
X183939Y279863D01*
X183927Y279880D01*
X183912Y279893D01*
X183872Y279938D01*
X182625Y281185D01*
X182625Y290315D01*
X183005Y290695D01*
X183090Y290804D01*
X183179Y290911D01*
X183187Y290930D01*
X183200Y290946D01*
X183255Y291074D01*
X183314Y291199D01*
X183318Y291219D01*
X183326Y291238D01*
X183348Y291376D01*
X183374Y291512D01*
X183373Y291532D01*
X183376Y291552D01*
X183363Y291691D01*
X183354Y291829D01*
X183348Y291848D01*
X183346Y291868D01*
X183299Y291999D01*
X183256Y292131D01*
X183246Y292149D01*
X183239Y292168D01*
X183161Y292282D01*
X183086Y292400D01*
X183071Y292414D01*
X183060Y292431D01*
X182956Y292523D01*
X182855Y292618D01*
X182837Y292628D01*
X182822Y292641D01*
X182698Y292704D01*
X182576Y292772D01*
X182557Y292777D01*
X182538Y292786D01*
X182403Y292816D01*
X182268Y292851D01*
X182240Y292853D01*
X182228Y292856D01*
X182208Y292855D01*
X182107Y292861D01*
X155098Y292861D01*
X153044Y293712D01*
X151472Y295284D01*
X150621Y297338D01*
X150621Y299562D01*
X151472Y301616D01*
X153044Y303188D01*
X155098Y304039D01*
X183123Y304039D01*
X183222Y304051D01*
X183321Y304054D01*
X183379Y304071D01*
X183439Y304079D01*
X183531Y304115D01*
X183626Y304143D01*
X183678Y304173D01*
X183735Y304196D01*
X183815Y304254D01*
X183900Y304304D01*
X183975Y304370D01*
X183992Y304382D01*
X184000Y304392D01*
X184021Y304411D01*
X184411Y304801D01*
X193755Y304801D01*
X193854Y304813D01*
X193953Y304816D01*
X194011Y304833D01*
X194071Y304841D01*
X194163Y304877D01*
X194258Y304905D01*
X194310Y304935D01*
X194367Y304958D01*
X194447Y305016D01*
X194532Y305066D01*
X194607Y305132D01*
X194624Y305144D01*
X194632Y305154D01*
X194653Y305172D01*
X211718Y322238D01*
X213772Y323089D01*
X220982Y323089D01*
X221100Y323104D01*
X221219Y323111D01*
X221257Y323124D01*
X221298Y323129D01*
X221408Y323172D01*
X221521Y323209D01*
X221556Y323231D01*
X221593Y323246D01*
X221689Y323315D01*
X221790Y323379D01*
X221818Y323409D01*
X221851Y323432D01*
X221927Y323524D01*
X222008Y323611D01*
X222028Y323646D01*
X222053Y323677D01*
X222104Y323785D01*
X222162Y323889D01*
X222172Y323929D01*
X222189Y323965D01*
X222211Y324082D01*
X222241Y324197D01*
X222245Y324257D01*
X222249Y324277D01*
X222247Y324298D01*
X222251Y324358D01*
X222251Y326263D01*
X224037Y328049D01*
X232119Y328049D01*
X232148Y328052D01*
X232178Y328050D01*
X232306Y328072D01*
X232434Y328089D01*
X232462Y328099D01*
X232491Y328104D01*
X232609Y328158D01*
X232730Y328206D01*
X232754Y328223D01*
X232781Y328235D01*
X232882Y328316D01*
X232987Y328392D01*
X233006Y328415D01*
X233029Y328434D01*
X233107Y328537D01*
X233190Y328637D01*
X233203Y328664D01*
X233221Y328688D01*
X233291Y328832D01*
X233974Y330480D01*
X263832Y360338D01*
X265886Y361189D01*
X268907Y361189D01*
X268936Y361192D01*
X268966Y361190D01*
X269093Y361212D01*
X269222Y361229D01*
X269250Y361239D01*
X269279Y361245D01*
X269397Y361298D01*
X269518Y361346D01*
X269542Y361363D01*
X269569Y361375D01*
X269670Y361456D01*
X269775Y361532D01*
X269794Y361555D01*
X269817Y361574D01*
X269895Y361678D01*
X269978Y361777D01*
X269991Y361804D01*
X270009Y361828D01*
X270016Y361842D01*
X273141Y364968D01*
X277202Y366650D01*
X281598Y366650D01*
X285659Y364968D01*
X288768Y361859D01*
X290450Y357798D01*
X290450Y353402D01*
X288768Y349341D01*
X285659Y346232D01*
X281598Y344550D01*
X277202Y344550D01*
X273141Y346232D01*
X270235Y349139D01*
X270141Y349212D01*
X270051Y349290D01*
X270015Y349309D01*
X269983Y349334D01*
X269874Y349381D01*
X269768Y349435D01*
X269729Y349444D01*
X269692Y349460D01*
X269574Y349479D01*
X269458Y349505D01*
X269417Y349503D01*
X269377Y349510D01*
X269259Y349499D01*
X269140Y349495D01*
X269101Y349484D01*
X269061Y349480D01*
X268949Y349440D01*
X268834Y349407D01*
X268800Y349386D01*
X268762Y349372D01*
X268663Y349306D01*
X268561Y349245D01*
X268515Y349205D01*
X268498Y349194D01*
X268485Y349179D01*
X268440Y349139D01*
X248633Y329332D01*
X248572Y329253D01*
X248504Y329181D01*
X248475Y329128D01*
X248438Y329080D01*
X248398Y328989D01*
X248350Y328903D01*
X248335Y328844D01*
X248311Y328788D01*
X248296Y328690D01*
X248271Y328595D01*
X248265Y328495D01*
X248261Y328474D01*
X248263Y328462D01*
X248261Y328434D01*
X248261Y318770D01*
X248276Y318652D01*
X248283Y318533D01*
X248296Y318495D01*
X248301Y318455D01*
X248344Y318344D01*
X248381Y318231D01*
X248403Y318196D01*
X248418Y318159D01*
X248488Y318063D01*
X248551Y317962D01*
X248581Y317934D01*
X248605Y317902D01*
X248696Y317826D01*
X248783Y317744D01*
X248818Y317725D01*
X248849Y317699D01*
X248957Y317648D01*
X249061Y317591D01*
X249101Y317580D01*
X249137Y317563D01*
X249254Y317541D01*
X249369Y317511D01*
X249430Y317507D01*
X249450Y317503D01*
X249470Y317505D01*
X249530Y317501D01*
X250801Y317501D01*
X250801Y316230D01*
X250816Y316112D01*
X250823Y315993D01*
X250836Y315955D01*
X250841Y315915D01*
X250885Y315804D01*
X250921Y315691D01*
X250943Y315656D01*
X250958Y315619D01*
X251028Y315523D01*
X251091Y315422D01*
X251121Y315394D01*
X251145Y315361D01*
X251236Y315286D01*
X251323Y315204D01*
X251358Y315184D01*
X251390Y315159D01*
X251497Y315108D01*
X251601Y315050D01*
X251641Y315040D01*
X251677Y315023D01*
X251794Y315001D01*
X251909Y314971D01*
X251970Y314967D01*
X251990Y314963D01*
X252010Y314965D01*
X252070Y314961D01*
X259841Y314961D01*
X259841Y310388D01*
X259856Y310270D01*
X259863Y310151D01*
X259876Y310113D01*
X259881Y310072D01*
X259924Y309962D01*
X259961Y309849D01*
X259983Y309814D01*
X259998Y309777D01*
X260067Y309681D01*
X260131Y309580D01*
X260161Y309552D01*
X260184Y309519D01*
X260276Y309443D01*
X260363Y309362D01*
X260398Y309342D01*
X260429Y309317D01*
X260537Y309266D01*
X260641Y309208D01*
X260681Y309198D01*
X260717Y309181D01*
X260834Y309159D01*
X260949Y309129D01*
X261009Y309125D01*
X261029Y309121D01*
X261050Y309123D01*
X261110Y309119D01*
X288407Y309119D01*
X288416Y309120D01*
X288425Y309119D01*
X288574Y309140D01*
X288722Y309159D01*
X288731Y309162D01*
X288740Y309163D01*
X288892Y309215D01*
X291044Y310107D01*
X293156Y310107D01*
X295106Y309299D01*
X296599Y307806D01*
X297407Y305856D01*
X297407Y303667D01*
X297385Y303589D01*
X297385Y303539D01*
X297375Y303490D01*
X297382Y303381D01*
X297380Y303271D01*
X297392Y303223D01*
X297395Y303173D01*
X297429Y303069D01*
X297454Y302962D01*
X297478Y302918D01*
X297493Y302871D01*
X297552Y302778D01*
X297603Y302681D01*
X297637Y302644D01*
X297663Y302602D01*
X297743Y302527D01*
X297817Y302445D01*
X297859Y302418D01*
X297895Y302384D01*
X297991Y302331D01*
X298083Y302271D01*
X298130Y302254D01*
X298173Y302230D01*
X298279Y302203D01*
X298383Y302167D01*
X298433Y302163D01*
X298481Y302151D01*
X298642Y302141D01*
X299061Y302141D01*
X299061Y293370D01*
X299076Y293252D01*
X299083Y293133D01*
X299096Y293095D01*
X299101Y293055D01*
X299144Y292944D01*
X299181Y292831D01*
X299203Y292796D01*
X299218Y292759D01*
X299288Y292663D01*
X299351Y292562D01*
X299381Y292534D01*
X299405Y292502D01*
X299496Y292426D01*
X299583Y292344D01*
X299618Y292325D01*
X299649Y292299D01*
X299757Y292248D01*
X299861Y292191D01*
X299901Y292180D01*
X299937Y292163D01*
X300054Y292141D01*
X300169Y292111D01*
X300230Y292107D01*
X300250Y292103D01*
X300270Y292105D01*
X300330Y292101D01*
X301601Y292101D01*
X301601Y292099D01*
X300330Y292099D01*
X300212Y292084D01*
X300093Y292077D01*
X300055Y292064D01*
X300015Y292059D01*
X299904Y292015D01*
X299791Y291979D01*
X299756Y291957D01*
X299719Y291942D01*
X299623Y291872D01*
X299522Y291809D01*
X299494Y291779D01*
X299461Y291755D01*
X299386Y291664D01*
X299304Y291577D01*
X299284Y291542D01*
X299259Y291510D01*
X299208Y291403D01*
X299150Y291299D01*
X299140Y291259D01*
X299123Y291223D01*
X299101Y291106D01*
X299071Y290991D01*
X299067Y290930D01*
X299063Y290910D01*
X299065Y290890D01*
X299061Y290830D01*
X299061Y282059D01*
X294766Y282059D01*
X294119Y282232D01*
X293540Y282567D01*
X293357Y282750D01*
X293263Y282823D01*
X293173Y282902D01*
X293137Y282920D01*
X293106Y282945D01*
X292996Y282992D01*
X292890Y283047D01*
X292851Y283055D01*
X292814Y283071D01*
X292696Y283090D01*
X292580Y283116D01*
X292539Y283115D01*
X292500Y283121D01*
X292381Y283110D01*
X292262Y283107D01*
X292223Y283095D01*
X292183Y283091D01*
X292071Y283051D01*
X291957Y283018D01*
X291922Y282998D01*
X291884Y282984D01*
X291785Y282917D01*
X291683Y282857D01*
X291637Y282817D01*
X291621Y282805D01*
X291607Y282790D01*
X291562Y282750D01*
X290363Y281551D01*
X288188Y281551D01*
X288070Y281536D01*
X287951Y281529D01*
X287913Y281516D01*
X287872Y281511D01*
X287762Y281468D01*
X287649Y281431D01*
X287614Y281409D01*
X287577Y281394D01*
X287481Y281325D01*
X287380Y281261D01*
X287352Y281231D01*
X287319Y281208D01*
X287243Y281116D01*
X287162Y281029D01*
X287142Y280994D01*
X287117Y280963D01*
X287066Y280855D01*
X287008Y280751D01*
X286998Y280711D01*
X286981Y280675D01*
X286959Y280558D01*
X286929Y280443D01*
X286925Y280383D01*
X286921Y280363D01*
X286923Y280342D01*
X286919Y280282D01*
X286919Y278518D01*
X286934Y278400D01*
X286941Y278281D01*
X286954Y278243D01*
X286959Y278202D01*
X287002Y278092D01*
X287039Y277979D01*
X287061Y277944D01*
X287076Y277907D01*
X287145Y277811D01*
X287209Y277710D01*
X287239Y277682D01*
X287262Y277649D01*
X287354Y277573D01*
X287441Y277492D01*
X287476Y277472D01*
X287507Y277447D01*
X287615Y277396D01*
X287719Y277338D01*
X287759Y277328D01*
X287795Y277311D01*
X287912Y277289D01*
X288027Y277259D01*
X288087Y277255D01*
X288107Y277251D01*
X288128Y277253D01*
X288188Y277249D01*
X290363Y277249D01*
X291562Y276050D01*
X291656Y275977D01*
X291745Y275898D01*
X291781Y275880D01*
X291813Y275855D01*
X291922Y275808D01*
X292028Y275753D01*
X292068Y275745D01*
X292105Y275729D01*
X292223Y275710D01*
X292339Y275684D01*
X292379Y275685D01*
X292419Y275679D01*
X292538Y275690D01*
X292657Y275694D01*
X292695Y275705D01*
X292736Y275709D01*
X292848Y275749D01*
X292962Y275782D01*
X292997Y275802D01*
X293035Y275816D01*
X293133Y275883D01*
X293236Y275943D01*
X293281Y275983D01*
X293298Y275995D01*
X293312Y276010D01*
X293357Y276050D01*
X293540Y276233D01*
X294119Y276568D01*
X294766Y276741D01*
X299061Y276741D01*
X299061Y267970D01*
X299076Y267852D01*
X299083Y267733D01*
X299096Y267695D01*
X299101Y267655D01*
X299144Y267544D01*
X299181Y267431D01*
X299203Y267396D01*
X299218Y267359D01*
X299288Y267263D01*
X299351Y267162D01*
X299381Y267134D01*
X299405Y267102D01*
X299496Y267026D01*
X299583Y266944D01*
X299618Y266925D01*
X299649Y266899D01*
X299757Y266848D01*
X299861Y266791D01*
X299901Y266780D01*
X299937Y266763D01*
X300054Y266741D01*
X300169Y266711D01*
X300230Y266707D01*
X300250Y266703D01*
X300270Y266705D01*
X300330Y266701D01*
X301601Y266701D01*
X301601Y266699D01*
X300330Y266699D01*
X300212Y266684D01*
X300093Y266677D01*
X300055Y266664D01*
X300015Y266659D01*
X299904Y266615D01*
X299791Y266579D01*
X299756Y266557D01*
X299719Y266542D01*
X299623Y266472D01*
X299522Y266409D01*
X299494Y266379D01*
X299461Y266355D01*
X299386Y266264D01*
X299304Y266177D01*
X299284Y266142D01*
X299259Y266110D01*
X299208Y266003D01*
X299150Y265899D01*
X299140Y265859D01*
X299123Y265823D01*
X299101Y265706D01*
X299071Y265591D01*
X299067Y265530D01*
X299063Y265510D01*
X299065Y265490D01*
X299061Y265430D01*
X299061Y256659D01*
X294766Y256659D01*
X294119Y256832D01*
X293540Y257167D01*
X293357Y257350D01*
X293263Y257423D01*
X293173Y257502D01*
X293137Y257520D01*
X293106Y257545D01*
X292996Y257592D01*
X292890Y257647D01*
X292851Y257655D01*
X292814Y257671D01*
X292696Y257690D01*
X292580Y257716D01*
X292539Y257715D01*
X292500Y257721D01*
X292381Y257710D01*
X292262Y257707D01*
X292223Y257695D01*
X292183Y257691D01*
X292071Y257651D01*
X291957Y257618D01*
X291922Y257598D01*
X291884Y257584D01*
X291785Y257517D01*
X291683Y257457D01*
X291637Y257417D01*
X291621Y257405D01*
X291607Y257390D01*
X291562Y257350D01*
X290363Y256151D01*
X288188Y256151D01*
X288070Y256136D01*
X287951Y256129D01*
X287913Y256116D01*
X287872Y256111D01*
X287762Y256068D01*
X287649Y256031D01*
X287614Y256009D01*
X287577Y255994D01*
X287481Y255925D01*
X287380Y255861D01*
X287352Y255831D01*
X287319Y255808D01*
X287243Y255716D01*
X287162Y255629D01*
X287142Y255594D01*
X287117Y255563D01*
X287066Y255455D01*
X287008Y255351D01*
X286998Y255311D01*
X286981Y255275D01*
X286959Y255158D01*
X286929Y255043D01*
X286925Y254983D01*
X286921Y254963D01*
X286923Y254942D01*
X286919Y254882D01*
X286919Y253118D01*
X286934Y253000D01*
X286941Y252881D01*
X286954Y252843D01*
X286959Y252802D01*
X287002Y252692D01*
X287039Y252579D01*
X287061Y252544D01*
X287076Y252507D01*
X287145Y252411D01*
X287209Y252310D01*
X287239Y252282D01*
X287262Y252249D01*
X287354Y252173D01*
X287441Y252092D01*
X287476Y252072D01*
X287507Y252047D01*
X287615Y251996D01*
X287719Y251938D01*
X287759Y251928D01*
X287795Y251911D01*
X287912Y251889D01*
X288027Y251859D01*
X288087Y251855D01*
X288107Y251851D01*
X288128Y251853D01*
X288188Y251849D01*
X290363Y251849D01*
X291202Y251009D01*
X291296Y250936D01*
X291386Y250857D01*
X291422Y250839D01*
X291454Y250814D01*
X291563Y250767D01*
X291669Y250713D01*
X291708Y250704D01*
X291746Y250688D01*
X291863Y250669D01*
X291979Y250643D01*
X292020Y250644D01*
X292060Y250638D01*
X292178Y250649D01*
X292297Y250653D01*
X292336Y250664D01*
X292376Y250668D01*
X292489Y250708D01*
X292603Y250741D01*
X292637Y250762D01*
X292676Y250775D01*
X292774Y250842D01*
X292877Y250903D01*
X292922Y250943D01*
X292939Y250954D01*
X292952Y250969D01*
X292997Y251009D01*
X293837Y251849D01*
X309363Y251849D01*
X311149Y250063D01*
X311149Y232537D01*
X309363Y230751D01*
X307188Y230751D01*
X307070Y230736D01*
X306951Y230729D01*
X306913Y230716D01*
X306872Y230711D01*
X306762Y230668D01*
X306649Y230631D01*
X306614Y230609D01*
X306577Y230594D01*
X306481Y230525D01*
X306380Y230461D01*
X306352Y230431D01*
X306319Y230408D01*
X306243Y230316D01*
X306162Y230229D01*
X306142Y230194D01*
X306117Y230163D01*
X306066Y230055D01*
X306008Y229951D01*
X305998Y229911D01*
X305981Y229875D01*
X305959Y229758D01*
X305929Y229643D01*
X305925Y229583D01*
X305921Y229563D01*
X305923Y229542D01*
X305919Y229482D01*
X305919Y227718D01*
X305934Y227600D01*
X305941Y227481D01*
X305954Y227443D01*
X305959Y227402D01*
X306002Y227292D01*
X306039Y227179D01*
X306061Y227144D01*
X306076Y227107D01*
X306145Y227011D01*
X306209Y226910D01*
X306239Y226882D01*
X306262Y226849D01*
X306354Y226773D01*
X306441Y226692D01*
X306476Y226672D01*
X306507Y226647D01*
X306615Y226596D01*
X306719Y226538D01*
X306759Y226528D01*
X306795Y226511D01*
X306912Y226489D01*
X307027Y226459D01*
X307087Y226455D01*
X307107Y226451D01*
X307128Y226453D01*
X307188Y226449D01*
X309363Y226449D01*
X311149Y224663D01*
X311149Y207137D01*
X309363Y205351D01*
X293837Y205351D01*
X292997Y206191D01*
X292903Y206264D01*
X292814Y206343D01*
X292778Y206361D01*
X292746Y206386D01*
X292637Y206433D01*
X292531Y206487D01*
X292492Y206496D01*
X292454Y206512D01*
X292337Y206531D01*
X292221Y206557D01*
X292180Y206556D01*
X292140Y206562D01*
X292022Y206551D01*
X291903Y206547D01*
X291864Y206536D01*
X291824Y206532D01*
X291712Y206492D01*
X291597Y206459D01*
X291562Y206438D01*
X291524Y206425D01*
X291426Y206358D01*
X291323Y206297D01*
X291278Y206258D01*
X291261Y206246D01*
X291248Y206231D01*
X291202Y206191D01*
X290363Y205351D01*
X288188Y205351D01*
X288070Y205336D01*
X287951Y205329D01*
X287913Y205316D01*
X287872Y205311D01*
X287762Y205268D01*
X287649Y205231D01*
X287614Y205209D01*
X287577Y205194D01*
X287481Y205125D01*
X287380Y205061D01*
X287352Y205031D01*
X287319Y205008D01*
X287243Y204916D01*
X287162Y204829D01*
X287142Y204794D01*
X287117Y204763D01*
X287066Y204655D01*
X287008Y204551D01*
X286998Y204511D01*
X286981Y204475D01*
X286959Y204358D01*
X286929Y204243D01*
X286925Y204183D01*
X286921Y204163D01*
X286923Y204142D01*
X286919Y204082D01*
X286919Y202318D01*
X286934Y202200D01*
X286941Y202081D01*
X286954Y202043D01*
X286959Y202002D01*
X287002Y201892D01*
X287039Y201779D01*
X287061Y201744D01*
X287076Y201707D01*
X287145Y201611D01*
X287209Y201510D01*
X287239Y201482D01*
X287262Y201449D01*
X287354Y201373D01*
X287441Y201292D01*
X287476Y201272D01*
X287507Y201247D01*
X287615Y201196D01*
X287719Y201138D01*
X287759Y201128D01*
X287795Y201111D01*
X287912Y201089D01*
X288027Y201059D01*
X288087Y201055D01*
X288107Y201051D01*
X288128Y201053D01*
X288188Y201049D01*
X290363Y201049D01*
X291203Y200209D01*
X291297Y200136D01*
X291386Y200057D01*
X291422Y200039D01*
X291454Y200014D01*
X291563Y199967D01*
X291669Y199913D01*
X291708Y199904D01*
X291746Y199888D01*
X291863Y199869D01*
X291979Y199843D01*
X292020Y199844D01*
X292060Y199838D01*
X292178Y199849D01*
X292297Y199853D01*
X292336Y199864D01*
X292376Y199868D01*
X292488Y199908D01*
X292603Y199941D01*
X292638Y199962D01*
X292676Y199975D01*
X292774Y200042D01*
X292877Y200103D01*
X292922Y200142D01*
X292939Y200154D01*
X292952Y200169D01*
X292998Y200209D01*
X293837Y201049D01*
X309363Y201049D01*
X311149Y199263D01*
X311149Y181737D01*
X309490Y180079D01*
X309430Y180001D01*
X309362Y179929D01*
X309333Y179876D01*
X309296Y179828D01*
X309256Y179737D01*
X309208Y179650D01*
X309193Y179591D01*
X309169Y179536D01*
X309154Y179438D01*
X309129Y179342D01*
X309123Y179242D01*
X309119Y179222D01*
X309121Y179209D01*
X309119Y179181D01*
X309119Y150611D01*
X306217Y147710D01*
X297715Y139207D01*
X297630Y139098D01*
X297541Y138991D01*
X297533Y138972D01*
X297520Y138956D01*
X297465Y138828D01*
X297406Y138703D01*
X297402Y138683D01*
X297394Y138664D01*
X297372Y138526D01*
X297346Y138390D01*
X297347Y138370D01*
X297344Y138350D01*
X297357Y138211D01*
X297366Y138073D01*
X297372Y138054D01*
X297374Y138034D01*
X297421Y137902D01*
X297464Y137771D01*
X297474Y137753D01*
X297481Y137734D01*
X297559Y137619D01*
X297634Y137502D01*
X297649Y137488D01*
X297660Y137471D01*
X297764Y137379D01*
X297865Y137284D01*
X297883Y137274D01*
X297898Y137261D01*
X298022Y137197D01*
X298144Y137130D01*
X298164Y137125D01*
X298182Y137116D01*
X298317Y137086D01*
X298452Y137051D01*
X298480Y137049D01*
X298492Y137046D01*
X298512Y137047D01*
X298613Y137041D01*
X299061Y137041D01*
X299061Y128270D01*
X299076Y128152D01*
X299083Y128033D01*
X299096Y127995D01*
X299101Y127955D01*
X299144Y127844D01*
X299181Y127731D01*
X299203Y127696D01*
X299218Y127659D01*
X299288Y127563D01*
X299351Y127462D01*
X299381Y127434D01*
X299405Y127402D01*
X299496Y127326D01*
X299583Y127244D01*
X299618Y127225D01*
X299649Y127199D01*
X299757Y127148D01*
X299861Y127091D01*
X299901Y127080D01*
X299937Y127063D01*
X300054Y127041D01*
X300169Y127011D01*
X300230Y127007D01*
X300250Y127003D01*
X300270Y127005D01*
X300330Y127001D01*
X301601Y127001D01*
X301601Y126999D01*
X300330Y126999D01*
X300212Y126984D01*
X300093Y126977D01*
X300055Y126964D01*
X300015Y126959D01*
X299904Y126915D01*
X299791Y126879D01*
X299756Y126857D01*
X299719Y126842D01*
X299623Y126772D01*
X299522Y126709D01*
X299494Y126679D01*
X299461Y126655D01*
X299386Y126564D01*
X299304Y126477D01*
X299284Y126442D01*
X299259Y126410D01*
X299208Y126303D01*
X299150Y126199D01*
X299140Y126159D01*
X299123Y126123D01*
X299101Y126006D01*
X299071Y125891D01*
X299067Y125830D01*
X299063Y125810D01*
X299065Y125790D01*
X299061Y125730D01*
X299061Y116959D01*
X296519Y116959D01*
X296382Y116942D01*
X296243Y116929D01*
X296224Y116922D01*
X296204Y116919D01*
X296075Y116868D01*
X295944Y116821D01*
X295927Y116810D01*
X295908Y116802D01*
X295795Y116721D01*
X295680Y116643D01*
X295667Y116627D01*
X295651Y116616D01*
X295562Y116508D01*
X295470Y116404D01*
X295461Y116386D01*
X295448Y116371D01*
X295388Y116245D01*
X295325Y116121D01*
X295321Y116101D01*
X295312Y116083D01*
X295286Y115946D01*
X295256Y115811D01*
X295256Y115790D01*
X295252Y115771D01*
X295261Y115632D01*
X295265Y115493D01*
X295271Y115473D01*
X295272Y115453D01*
X295315Y115321D01*
X295354Y115187D01*
X295364Y115170D01*
X295370Y115151D01*
X295445Y115033D01*
X295515Y114913D01*
X295534Y114892D01*
X295540Y114882D01*
X295555Y114868D01*
X295622Y114793D01*
X297894Y112520D01*
X297972Y112460D01*
X298044Y112392D01*
X298097Y112363D01*
X298145Y112326D01*
X298236Y112286D01*
X298323Y112238D01*
X298381Y112223D01*
X298437Y112199D01*
X298535Y112184D01*
X298631Y112159D01*
X298731Y112153D01*
X298751Y112149D01*
X298763Y112151D01*
X298791Y112149D01*
X309363Y112149D01*
X311149Y110363D01*
X311149Y92837D01*
X309363Y91051D01*
X293837Y91051D01*
X292997Y91891D01*
X292903Y91964D01*
X292814Y92043D01*
X292778Y92061D01*
X292746Y92086D01*
X292637Y92133D01*
X292531Y92187D01*
X292492Y92196D01*
X292454Y92212D01*
X292337Y92231D01*
X292221Y92257D01*
X292180Y92256D01*
X292140Y92262D01*
X292022Y92251D01*
X291903Y92247D01*
X291864Y92236D01*
X291824Y92232D01*
X291712Y92192D01*
X291597Y92159D01*
X291562Y92138D01*
X291524Y92125D01*
X291426Y92058D01*
X291323Y91997D01*
X291278Y91958D01*
X291261Y91946D01*
X291248Y91931D01*
X291202Y91891D01*
X290363Y91051D01*
X288188Y91051D01*
X288070Y91036D01*
X287951Y91029D01*
X287913Y91016D01*
X287872Y91011D01*
X287762Y90968D01*
X287649Y90931D01*
X287614Y90909D01*
X287577Y90894D01*
X287481Y90825D01*
X287380Y90761D01*
X287352Y90731D01*
X287319Y90708D01*
X287243Y90616D01*
X287162Y90529D01*
X287142Y90494D01*
X287117Y90463D01*
X287066Y90355D01*
X287008Y90251D01*
X286998Y90211D01*
X286981Y90175D01*
X286959Y90058D01*
X286929Y89943D01*
X286925Y89883D01*
X286921Y89863D01*
X286923Y89842D01*
X286919Y89782D01*
X286919Y88018D01*
X286934Y87900D01*
X286941Y87781D01*
X286954Y87743D01*
X286959Y87702D01*
X287002Y87592D01*
X287039Y87479D01*
X287061Y87444D01*
X287076Y87407D01*
X287145Y87311D01*
X287209Y87210D01*
X287239Y87182D01*
X287262Y87149D01*
X287354Y87073D01*
X287441Y86992D01*
X287476Y86972D01*
X287507Y86947D01*
X287615Y86896D01*
X287719Y86838D01*
X287759Y86828D01*
X287795Y86811D01*
X287912Y86789D01*
X288027Y86759D01*
X288087Y86755D01*
X288107Y86751D01*
X288128Y86753D01*
X288188Y86749D01*
X290363Y86749D01*
X291562Y85550D01*
X291656Y85477D01*
X291745Y85398D01*
X291781Y85380D01*
X291813Y85355D01*
X291922Y85308D01*
X292028Y85253D01*
X292068Y85245D01*
X292105Y85229D01*
X292223Y85210D01*
X292339Y85184D01*
X292379Y85185D01*
X292419Y85179D01*
X292538Y85190D01*
X292657Y85194D01*
X292695Y85205D01*
X292736Y85209D01*
X292848Y85249D01*
X292962Y85282D01*
X292997Y85302D01*
X293035Y85316D01*
X293133Y85383D01*
X293236Y85443D01*
X293281Y85483D01*
X293298Y85495D01*
X293312Y85510D01*
X293357Y85550D01*
X293540Y85733D01*
X294119Y86068D01*
X294766Y86241D01*
X299061Y86241D01*
X299061Y77470D01*
X299076Y77352D01*
X299083Y77233D01*
X299096Y77195D01*
X299101Y77155D01*
X299144Y77044D01*
X299181Y76931D01*
X299203Y76896D01*
X299218Y76859D01*
X299288Y76763D01*
X299351Y76662D01*
X299381Y76634D01*
X299405Y76602D01*
X299496Y76526D01*
X299583Y76444D01*
X299618Y76425D01*
X299649Y76399D01*
X299757Y76348D01*
X299861Y76291D01*
X299901Y76280D01*
X299937Y76263D01*
X300054Y76241D01*
X300169Y76211D01*
X300230Y76207D01*
X300250Y76203D01*
X300270Y76205D01*
X300330Y76201D01*
X301601Y76201D01*
X301601Y76199D01*
X300330Y76199D01*
X300212Y76184D01*
X300093Y76177D01*
X300055Y76164D01*
X300015Y76159D01*
X299904Y76115D01*
X299791Y76079D01*
X299756Y76057D01*
X299719Y76042D01*
X299623Y75972D01*
X299522Y75909D01*
X299494Y75879D01*
X299461Y75855D01*
X299386Y75764D01*
X299304Y75677D01*
X299284Y75642D01*
X299259Y75610D01*
X299208Y75503D01*
X299150Y75399D01*
X299140Y75359D01*
X299123Y75323D01*
X299101Y75206D01*
X299071Y75091D01*
X299067Y75030D01*
X299063Y75010D01*
X299065Y74990D01*
X299064Y74976D01*
X299063Y74974D01*
X299063Y74972D01*
X299061Y74930D01*
X299061Y66159D01*
X294766Y66159D01*
X294119Y66332D01*
X293540Y66667D01*
X293357Y66850D01*
X293263Y66923D01*
X293173Y67002D01*
X293137Y67020D01*
X293106Y67045D01*
X292996Y67092D01*
X292890Y67147D01*
X292851Y67155D01*
X292814Y67171D01*
X292696Y67190D01*
X292580Y67216D01*
X292539Y67215D01*
X292500Y67221D01*
X292381Y67210D01*
X292262Y67207D01*
X292223Y67195D01*
X292183Y67191D01*
X292071Y67151D01*
X291957Y67118D01*
X291922Y67098D01*
X291884Y67084D01*
X291785Y67017D01*
X291683Y66957D01*
X291637Y66917D01*
X291621Y66905D01*
X291607Y66890D01*
X291562Y66850D01*
X290363Y65651D01*
X274837Y65651D01*
X273051Y67437D01*
X273051Y84963D01*
X274837Y86749D01*
X277012Y86749D01*
X277130Y86764D01*
X277249Y86771D01*
X277287Y86784D01*
X277328Y86789D01*
X277438Y86832D01*
X277551Y86869D01*
X277586Y86891D01*
X277623Y86906D01*
X277719Y86975D01*
X277820Y87039D01*
X277848Y87069D01*
X277881Y87092D01*
X277957Y87184D01*
X278038Y87271D01*
X278058Y87306D01*
X278083Y87337D01*
X278134Y87445D01*
X278192Y87549D01*
X278202Y87589D01*
X278219Y87625D01*
X278241Y87742D01*
X278271Y87857D01*
X278275Y87917D01*
X278279Y87937D01*
X278277Y87958D01*
X278281Y88018D01*
X278281Y89782D01*
X278266Y89900D01*
X278259Y90019D01*
X278246Y90057D01*
X278241Y90098D01*
X278198Y90208D01*
X278161Y90321D01*
X278139Y90356D01*
X278124Y90393D01*
X278055Y90489D01*
X277991Y90590D01*
X277961Y90618D01*
X277938Y90651D01*
X277846Y90727D01*
X277759Y90808D01*
X277724Y90828D01*
X277693Y90853D01*
X277585Y90904D01*
X277481Y90962D01*
X277441Y90972D01*
X277405Y90989D01*
X277288Y91011D01*
X277173Y91041D01*
X277113Y91045D01*
X277093Y91049D01*
X277072Y91047D01*
X277012Y91051D01*
X274837Y91051D01*
X273051Y92837D01*
X273051Y96012D01*
X273036Y96130D01*
X273029Y96249D01*
X273016Y96287D01*
X273011Y96328D01*
X272968Y96438D01*
X272931Y96551D01*
X272909Y96586D01*
X272894Y96623D01*
X272825Y96719D01*
X272761Y96820D01*
X272731Y96848D01*
X272708Y96881D01*
X272616Y96957D01*
X272529Y97038D01*
X272494Y97058D01*
X272463Y97083D01*
X272355Y97134D01*
X272251Y97192D01*
X272211Y97202D01*
X272175Y97219D01*
X272058Y97241D01*
X271943Y97271D01*
X271883Y97275D01*
X271863Y97279D01*
X271842Y97277D01*
X271782Y97281D01*
X261618Y97281D01*
X261500Y97266D01*
X261381Y97259D01*
X261343Y97246D01*
X261302Y97241D01*
X261192Y97198D01*
X261079Y97161D01*
X261044Y97139D01*
X261007Y97124D01*
X260911Y97055D01*
X260810Y96991D01*
X260782Y96961D01*
X260749Y96938D01*
X260673Y96846D01*
X260592Y96759D01*
X260572Y96724D01*
X260547Y96693D01*
X260496Y96585D01*
X260438Y96481D01*
X260428Y96441D01*
X260411Y96405D01*
X260389Y96288D01*
X260359Y96173D01*
X260355Y96113D01*
X260351Y96093D01*
X260353Y96072D01*
X260349Y96012D01*
X260349Y92837D01*
X258563Y91051D01*
X250414Y91051D01*
X250276Y91034D01*
X250138Y91021D01*
X250119Y91014D01*
X250098Y91011D01*
X249969Y90960D01*
X249838Y90913D01*
X249822Y90902D01*
X249803Y90894D01*
X249691Y90813D01*
X249575Y90735D01*
X249562Y90719D01*
X249545Y90708D01*
X249457Y90600D01*
X249365Y90496D01*
X249356Y90478D01*
X249343Y90463D01*
X249283Y90337D01*
X249220Y90213D01*
X249216Y90193D01*
X249207Y90175D01*
X249181Y90038D01*
X249151Y89903D01*
X249151Y89882D01*
X249147Y89863D01*
X249156Y89724D01*
X249160Y89585D01*
X249166Y89565D01*
X249167Y89545D01*
X249210Y89413D01*
X249249Y89279D01*
X249259Y89262D01*
X249265Y89243D01*
X249339Y89125D01*
X249410Y89005D01*
X249429Y88984D01*
X249435Y88974D01*
X249450Y88960D01*
X249517Y88885D01*
X250393Y88008D01*
X250471Y87948D01*
X250543Y87880D01*
X250596Y87851D01*
X250644Y87814D01*
X250735Y87774D01*
X250821Y87726D01*
X250880Y87711D01*
X250936Y87687D01*
X251034Y87672D01*
X251129Y87647D01*
X251229Y87641D01*
X251250Y87637D01*
X251262Y87639D01*
X251290Y87637D01*
X261577Y87637D01*
X267819Y81395D01*
X267819Y62318D01*
X267834Y62200D01*
X267841Y62081D01*
X267854Y62043D01*
X267859Y62002D01*
X267902Y61892D01*
X267939Y61779D01*
X267961Y61744D01*
X267976Y61707D01*
X268045Y61611D01*
X268109Y61510D01*
X268139Y61482D01*
X268162Y61449D01*
X268254Y61373D01*
X268341Y61292D01*
X268376Y61272D01*
X268407Y61247D01*
X268515Y61196D01*
X268619Y61138D01*
X268659Y61128D01*
X268695Y61111D01*
X268702Y61110D01*
X270549Y59263D01*
X270549Y47737D01*
X268763Y45951D01*
X258237Y45951D01*
X256451Y47737D01*
X256451Y59263D01*
X258309Y61121D01*
X258338Y61132D01*
X258451Y61169D01*
X258486Y61191D01*
X258523Y61206D01*
X258619Y61275D01*
X258720Y61339D01*
X258748Y61369D01*
X258781Y61392D01*
X258857Y61484D01*
X258938Y61571D01*
X258958Y61606D01*
X258983Y61637D01*
X259034Y61745D01*
X259092Y61849D01*
X259102Y61889D01*
X259119Y61925D01*
X259141Y62042D01*
X259171Y62157D01*
X259175Y62217D01*
X259179Y62237D01*
X259177Y62258D01*
X259181Y62318D01*
X259181Y65682D01*
X259166Y65800D01*
X259159Y65919D01*
X259146Y65957D01*
X259141Y65998D01*
X259098Y66108D01*
X259061Y66221D01*
X259039Y66256D01*
X259024Y66293D01*
X258955Y66389D01*
X258891Y66490D01*
X258861Y66518D01*
X258838Y66551D01*
X258746Y66627D01*
X258659Y66708D01*
X258624Y66728D01*
X258593Y66753D01*
X258485Y66804D01*
X258381Y66862D01*
X258341Y66872D01*
X258305Y66889D01*
X258188Y66911D01*
X258073Y66941D01*
X258013Y66945D01*
X257993Y66949D01*
X257972Y66947D01*
X257912Y66951D01*
X248737Y66951D01*
X246951Y68737D01*
X246951Y71494D01*
X246936Y71612D01*
X246929Y71731D01*
X246916Y71769D01*
X246911Y71810D01*
X246868Y71920D01*
X246831Y72033D01*
X246809Y72068D01*
X246794Y72105D01*
X246725Y72201D01*
X246661Y72302D01*
X246631Y72330D01*
X246608Y72363D01*
X246516Y72439D01*
X246429Y72520D01*
X246394Y72540D01*
X246363Y72565D01*
X246255Y72616D01*
X246151Y72674D01*
X246111Y72684D01*
X246075Y72701D01*
X245958Y72723D01*
X245843Y72753D01*
X245783Y72757D01*
X245763Y72761D01*
X245742Y72759D01*
X245682Y72763D01*
X234423Y72763D01*
X233307Y73878D01*
X233198Y73963D01*
X233091Y74052D01*
X233072Y74061D01*
X233056Y74073D01*
X232929Y74129D01*
X232803Y74188D01*
X232783Y74192D01*
X232764Y74200D01*
X232626Y74222D01*
X232490Y74248D01*
X232470Y74246D01*
X232450Y74249D01*
X232311Y74236D01*
X232173Y74228D01*
X232154Y74222D01*
X232134Y74220D01*
X232002Y74172D01*
X231871Y74130D01*
X231853Y74119D01*
X231834Y74112D01*
X231719Y74034D01*
X231602Y73960D01*
X231588Y73945D01*
X231571Y73933D01*
X231479Y73829D01*
X231384Y73728D01*
X231374Y73710D01*
X231361Y73695D01*
X231297Y73571D01*
X231230Y73449D01*
X231225Y73430D01*
X231216Y73412D01*
X231186Y73276D01*
X231151Y73142D01*
X231149Y73113D01*
X231146Y73102D01*
X231147Y73081D01*
X231141Y72981D01*
X231141Y66039D01*
X218439Y66039D01*
X218439Y78741D01*
X225381Y78741D01*
X225518Y78758D01*
X225657Y78771D01*
X225676Y78778D01*
X225696Y78781D01*
X225825Y78832D01*
X225956Y78879D01*
X225973Y78890D01*
X225992Y78898D01*
X226105Y78979D01*
X226220Y79057D01*
X226233Y79073D01*
X226249Y79084D01*
X226338Y79192D01*
X226430Y79296D01*
X226439Y79314D01*
X226452Y79329D01*
X226511Y79455D01*
X226575Y79579D01*
X226579Y79599D01*
X226588Y79617D01*
X226614Y79753D01*
X226644Y79889D01*
X226644Y79910D01*
X226648Y79929D01*
X226639Y80068D01*
X226635Y80207D01*
X226629Y80227D01*
X226628Y80247D01*
X226585Y80379D01*
X226546Y80513D01*
X226536Y80530D01*
X226530Y80549D01*
X226455Y80667D01*
X226385Y80787D01*
X226366Y80808D01*
X226360Y80818D01*
X226345Y80832D01*
X226278Y80907D01*
X219776Y87410D01*
X219698Y87470D01*
X219626Y87538D01*
X219573Y87567D01*
X219525Y87604D01*
X219434Y87644D01*
X219347Y87692D01*
X219289Y87707D01*
X219233Y87731D01*
X219135Y87746D01*
X219039Y87771D01*
X218939Y87777D01*
X218919Y87781D01*
X218907Y87779D01*
X218879Y87781D01*
X215018Y87781D01*
X214900Y87766D01*
X214781Y87759D01*
X214743Y87746D01*
X214702Y87741D01*
X214592Y87698D01*
X214479Y87661D01*
X214444Y87639D01*
X214407Y87624D01*
X214311Y87555D01*
X214210Y87491D01*
X214182Y87461D01*
X214149Y87438D01*
X214073Y87346D01*
X213992Y87259D01*
X213972Y87224D01*
X213947Y87193D01*
X213896Y87085D01*
X213838Y86981D01*
X213828Y86941D01*
X213811Y86905D01*
X213789Y86788D01*
X213759Y86673D01*
X213755Y86613D01*
X213751Y86593D01*
X213753Y86572D01*
X213749Y86512D01*
X213749Y84337D01*
X211963Y82551D01*
X194437Y82551D01*
X192651Y84337D01*
X192651Y99863D01*
X193491Y100702D01*
X193564Y100796D01*
X193643Y100886D01*
X193661Y100922D01*
X193686Y100954D01*
X193733Y101063D01*
X193787Y101169D01*
X193796Y101208D01*
X193812Y101246D01*
X193831Y101363D01*
X193857Y101479D01*
X193856Y101520D01*
X193862Y101560D01*
X193851Y101678D01*
X193847Y101797D01*
X193836Y101836D01*
X193832Y101876D01*
X193792Y101989D01*
X193759Y102103D01*
X193738Y102137D01*
X193725Y102176D01*
X193658Y102274D01*
X193597Y102377D01*
X193557Y102422D01*
X193546Y102439D01*
X193531Y102452D01*
X193491Y102497D01*
X192651Y103337D01*
X192651Y105512D01*
X192636Y105630D01*
X192629Y105749D01*
X192616Y105787D01*
X192611Y105828D01*
X192568Y105938D01*
X192531Y106051D01*
X192509Y106086D01*
X192494Y106123D01*
X192425Y106219D01*
X192361Y106320D01*
X192331Y106348D01*
X192308Y106381D01*
X192216Y106457D01*
X192129Y106538D01*
X192094Y106558D01*
X192063Y106583D01*
X191955Y106634D01*
X191851Y106692D01*
X191811Y106702D01*
X191775Y106719D01*
X191658Y106741D01*
X191543Y106771D01*
X191483Y106775D01*
X191463Y106779D01*
X191442Y106777D01*
X191382Y106781D01*
X180848Y106781D01*
X180730Y106766D01*
X180611Y106759D01*
X180573Y106746D01*
X180532Y106741D01*
X180422Y106698D01*
X180309Y106661D01*
X180274Y106639D01*
X180237Y106624D01*
X180141Y106555D01*
X180040Y106491D01*
X180012Y106461D01*
X179979Y106438D01*
X179903Y106346D01*
X179822Y106259D01*
X179802Y106224D01*
X179777Y106193D01*
X179726Y106085D01*
X179668Y105981D01*
X179658Y105941D01*
X179641Y105905D01*
X179619Y105788D01*
X179589Y105673D01*
X179585Y105613D01*
X179581Y105593D01*
X179583Y105572D01*
X179579Y105512D01*
X179579Y86661D01*
X179591Y86562D01*
X179594Y86463D01*
X179611Y86405D01*
X179619Y86345D01*
X179655Y86253D01*
X179683Y86158D01*
X179713Y86106D01*
X179736Y86049D01*
X179794Y85969D01*
X179844Y85884D01*
X179910Y85809D01*
X179922Y85792D01*
X179932Y85784D01*
X179950Y85763D01*
X188888Y76826D01*
X189739Y74772D01*
X189739Y43338D01*
X188888Y41284D01*
X187137Y39534D01*
X184741Y37138D01*
X184668Y37043D01*
X184590Y36954D01*
X184571Y36918D01*
X184546Y36886D01*
X184499Y36777D01*
X184445Y36671D01*
X184436Y36632D01*
X184420Y36595D01*
X184401Y36477D01*
X184375Y36361D01*
X184376Y36320D01*
X184370Y36280D01*
X184381Y36162D01*
X184385Y36043D01*
X184396Y36004D01*
X184400Y35964D01*
X184440Y35852D01*
X184473Y35737D01*
X184494Y35703D01*
X184508Y35665D01*
X184575Y35566D01*
X184635Y35463D01*
X184675Y35418D01*
X184686Y35401D01*
X184701Y35388D01*
X184741Y35343D01*
X187921Y32163D01*
X189739Y27775D01*
X189739Y23025D01*
X187921Y18637D01*
X184563Y15279D01*
X181168Y13873D01*
X181107Y13838D01*
X181042Y13812D01*
X180970Y13760D01*
X180892Y13715D01*
X180841Y13667D01*
X180785Y13626D01*
X180728Y13556D01*
X180663Y13494D01*
X180627Y13434D01*
X180582Y13381D01*
X180544Y13299D01*
X180497Y13223D01*
X180476Y13156D01*
X180447Y13093D01*
X180430Y13005D01*
X180403Y12919D01*
X180400Y12849D01*
X180387Y12780D01*
X180392Y12691D01*
X180388Y12601D01*
X180402Y12533D01*
X180407Y12463D01*
X180434Y12378D01*
X180452Y12290D01*
X180483Y12227D01*
X180505Y12161D01*
X180553Y12085D01*
X180592Y12004D01*
X180637Y11951D01*
X180675Y11892D01*
X180740Y11830D01*
X180798Y11762D01*
X180856Y11722D01*
X180906Y11674D01*
X180985Y11631D01*
X181059Y11579D01*
X181124Y11554D01*
X181185Y11520D01*
X181272Y11498D01*
X181356Y11466D01*
X181425Y11458D01*
X181493Y11441D01*
X181654Y11431D01*
X207227Y11431D01*
X207365Y11448D01*
G37*
G36*
X105772Y47380D02*
X105772Y47380D01*
X105842Y47379D01*
X105929Y47400D01*
X106018Y47412D01*
X106083Y47437D01*
X106151Y47454D01*
X106230Y47496D01*
X106314Y47529D01*
X106370Y47570D01*
X106432Y47602D01*
X106499Y47663D01*
X106571Y47715D01*
X106616Y47769D01*
X106667Y47816D01*
X106717Y47891D01*
X106774Y47960D01*
X106804Y48024D01*
X106842Y48082D01*
X106871Y48167D01*
X106910Y48248D01*
X106923Y48317D01*
X106945Y48383D01*
X106953Y48472D01*
X106969Y48560D01*
X106965Y48630D01*
X106971Y48700D01*
X106955Y48788D01*
X106950Y48878D01*
X106928Y48944D01*
X106916Y49013D01*
X106879Y49095D01*
X106852Y49180D01*
X106814Y49239D01*
X106786Y49303D01*
X106730Y49373D01*
X106681Y49449D01*
X106631Y49497D01*
X106587Y49551D01*
X106515Y49606D01*
X106450Y49667D01*
X106389Y49701D01*
X106333Y49743D01*
X106188Y49814D01*
X105379Y50149D01*
X100949Y54579D01*
X98551Y60367D01*
X98551Y66633D01*
X100949Y72421D01*
X105379Y76851D01*
X111167Y79249D01*
X113509Y79249D01*
X113647Y79266D01*
X113786Y79279D01*
X113805Y79286D01*
X113825Y79289D01*
X113954Y79340D01*
X114085Y79387D01*
X114102Y79398D01*
X114121Y79406D01*
X114233Y79487D01*
X114348Y79565D01*
X114362Y79581D01*
X114378Y79592D01*
X114467Y79700D01*
X114559Y79804D01*
X114568Y79822D01*
X114581Y79837D01*
X114640Y79963D01*
X114703Y80087D01*
X114708Y80107D01*
X114716Y80125D01*
X114742Y80261D01*
X114773Y80397D01*
X114772Y80418D01*
X114776Y80437D01*
X114767Y80576D01*
X114763Y80715D01*
X114758Y80735D01*
X114756Y80755D01*
X114714Y80887D01*
X114675Y81021D01*
X114665Y81038D01*
X114658Y81057D01*
X114584Y81175D01*
X114513Y81295D01*
X114495Y81316D01*
X114488Y81326D01*
X114473Y81340D01*
X114407Y81415D01*
X63058Y132765D01*
X63050Y132770D01*
X63045Y132778D01*
X62925Y132868D01*
X62806Y132960D01*
X62798Y132963D01*
X62790Y132969D01*
X62646Y133040D01*
X60494Y133931D01*
X59001Y135424D01*
X58193Y137374D01*
X58193Y139486D01*
X59001Y141436D01*
X60494Y142929D01*
X62444Y143737D01*
X64556Y143737D01*
X66506Y142929D01*
X67999Y141436D01*
X68890Y139284D01*
X68895Y139276D01*
X68897Y139267D01*
X68974Y139138D01*
X69048Y139008D01*
X69054Y139001D01*
X69059Y138993D01*
X69165Y138872D01*
X128417Y79620D01*
X128495Y79560D01*
X128568Y79492D01*
X128621Y79463D01*
X128668Y79426D01*
X128759Y79386D01*
X128846Y79338D01*
X128905Y79323D01*
X128960Y79299D01*
X129058Y79284D01*
X129154Y79259D01*
X129254Y79253D01*
X129274Y79249D01*
X129287Y79251D01*
X129315Y79249D01*
X129657Y79249D01*
X129666Y79250D01*
X129675Y79249D01*
X129824Y79270D01*
X129972Y79289D01*
X129981Y79292D01*
X129990Y79293D01*
X130142Y79345D01*
X132294Y80237D01*
X134406Y80237D01*
X136356Y79429D01*
X136414Y79370D01*
X136524Y79285D01*
X136631Y79196D01*
X136650Y79188D01*
X136666Y79175D01*
X136793Y79120D01*
X136919Y79061D01*
X136939Y79057D01*
X136958Y79049D01*
X137095Y79027D01*
X137232Y79001D01*
X137252Y79002D01*
X137272Y78999D01*
X137410Y79012D01*
X137549Y79021D01*
X137568Y79027D01*
X137588Y79029D01*
X137719Y79076D01*
X137851Y79119D01*
X137869Y79130D01*
X137888Y79137D01*
X138002Y79215D01*
X138120Y79289D01*
X138134Y79304D01*
X138151Y79315D01*
X138242Y79419D01*
X138338Y79521D01*
X138348Y79538D01*
X138361Y79554D01*
X138424Y79677D01*
X138492Y79799D01*
X138497Y79819D01*
X138506Y79837D01*
X138536Y79973D01*
X138571Y80107D01*
X138573Y80135D01*
X138576Y80147D01*
X138575Y80168D01*
X138581Y80268D01*
X138581Y136279D01*
X138569Y136377D01*
X138566Y136476D01*
X138549Y136534D01*
X138541Y136594D01*
X138505Y136686D01*
X138477Y136782D01*
X138447Y136834D01*
X138424Y136890D01*
X138366Y136970D01*
X138316Y137055D01*
X138250Y137131D01*
X138238Y137147D01*
X138228Y137155D01*
X138210Y137176D01*
X133906Y141480D01*
X133828Y141540D01*
X133756Y141608D01*
X133703Y141637D01*
X133655Y141674D01*
X133564Y141714D01*
X133477Y141762D01*
X133419Y141777D01*
X133363Y141801D01*
X133265Y141816D01*
X133169Y141841D01*
X133069Y141847D01*
X133049Y141851D01*
X133037Y141849D01*
X133009Y141851D01*
X122437Y141851D01*
X120651Y143637D01*
X120651Y145373D01*
X120634Y145510D01*
X120621Y145649D01*
X120614Y145668D01*
X120611Y145688D01*
X120560Y145817D01*
X120513Y145948D01*
X120502Y145965D01*
X120494Y145984D01*
X120413Y146096D01*
X120335Y146212D01*
X120319Y146225D01*
X120308Y146241D01*
X120200Y146330D01*
X120096Y146422D01*
X120078Y146431D01*
X120063Y146444D01*
X119937Y146503D01*
X119813Y146567D01*
X119793Y146571D01*
X119775Y146580D01*
X119639Y146606D01*
X119503Y146636D01*
X119482Y146636D01*
X119463Y146640D01*
X119324Y146631D01*
X119185Y146627D01*
X119165Y146621D01*
X119145Y146620D01*
X119013Y146577D01*
X118879Y146538D01*
X118862Y146528D01*
X118843Y146522D01*
X118725Y146447D01*
X118605Y146377D01*
X118584Y146358D01*
X118574Y146352D01*
X118560Y146337D01*
X118485Y146270D01*
X110497Y138283D01*
X107595Y135381D01*
X89205Y135381D01*
X86303Y138283D01*
X83106Y141480D01*
X83028Y141540D01*
X82956Y141608D01*
X82903Y141637D01*
X82855Y141674D01*
X82764Y141714D01*
X82677Y141762D01*
X82619Y141777D01*
X82563Y141801D01*
X82465Y141816D01*
X82369Y141841D01*
X82269Y141847D01*
X82249Y141851D01*
X82237Y141849D01*
X82209Y141851D01*
X71637Y141851D01*
X69851Y143637D01*
X69851Y155315D01*
X69839Y155414D01*
X69836Y155513D01*
X69819Y155571D01*
X69811Y155631D01*
X69775Y155723D01*
X69747Y155818D01*
X69717Y155870D01*
X69694Y155927D01*
X69636Y156007D01*
X69586Y156092D01*
X69520Y156167D01*
X69508Y156184D01*
X69498Y156192D01*
X69480Y156213D01*
X57799Y167893D01*
X57705Y167966D01*
X57616Y168045D01*
X57580Y168063D01*
X57548Y168088D01*
X57439Y168135D01*
X57333Y168189D01*
X57294Y168198D01*
X57256Y168214D01*
X57139Y168233D01*
X57023Y168259D01*
X56982Y168258D01*
X56942Y168264D01*
X56824Y168253D01*
X56705Y168249D01*
X56666Y168238D01*
X56626Y168234D01*
X56513Y168194D01*
X56399Y168161D01*
X56364Y168140D01*
X56326Y168127D01*
X56228Y168060D01*
X56125Y167999D01*
X56080Y167959D01*
X56063Y167948D01*
X56050Y167933D01*
X56004Y167893D01*
X55363Y167251D01*
X53188Y167251D01*
X53070Y167236D01*
X52951Y167229D01*
X52913Y167216D01*
X52872Y167211D01*
X52762Y167168D01*
X52649Y167131D01*
X52614Y167109D01*
X52577Y167094D01*
X52481Y167025D01*
X52380Y166961D01*
X52352Y166931D01*
X52319Y166908D01*
X52243Y166816D01*
X52162Y166729D01*
X52142Y166694D01*
X52117Y166663D01*
X52066Y166555D01*
X52008Y166451D01*
X51998Y166411D01*
X51981Y166375D01*
X51959Y166258D01*
X51929Y166143D01*
X51925Y166083D01*
X51921Y166063D01*
X51923Y166042D01*
X51919Y165982D01*
X51919Y164218D01*
X51934Y164100D01*
X51941Y163981D01*
X51954Y163943D01*
X51959Y163902D01*
X52002Y163792D01*
X52039Y163679D01*
X52061Y163644D01*
X52076Y163607D01*
X52145Y163511D01*
X52209Y163410D01*
X52239Y163382D01*
X52262Y163349D01*
X52354Y163273D01*
X52441Y163192D01*
X52476Y163172D01*
X52507Y163147D01*
X52615Y163096D01*
X52719Y163038D01*
X52759Y163028D01*
X52795Y163011D01*
X52912Y162989D01*
X53027Y162959D01*
X53087Y162955D01*
X53107Y162951D01*
X53128Y162953D01*
X53188Y162949D01*
X55363Y162949D01*
X57149Y161163D01*
X57149Y143637D01*
X55363Y141851D01*
X39837Y141851D01*
X38638Y143050D01*
X38544Y143123D01*
X38455Y143202D01*
X38419Y143220D01*
X38387Y143245D01*
X38278Y143292D01*
X38172Y143347D01*
X38132Y143355D01*
X38095Y143371D01*
X37977Y143390D01*
X37861Y143416D01*
X37821Y143415D01*
X37781Y143421D01*
X37662Y143410D01*
X37544Y143407D01*
X37505Y143395D01*
X37464Y143391D01*
X37352Y143351D01*
X37238Y143318D01*
X37203Y143298D01*
X37165Y143284D01*
X37067Y143217D01*
X36964Y143157D01*
X36919Y143117D01*
X36902Y143105D01*
X36889Y143090D01*
X36843Y143050D01*
X36660Y142867D01*
X36081Y142532D01*
X35434Y142359D01*
X31139Y142359D01*
X31139Y151130D01*
X31124Y151248D01*
X31117Y151367D01*
X31104Y151405D01*
X31099Y151445D01*
X31055Y151556D01*
X31019Y151669D01*
X30997Y151704D01*
X30982Y151741D01*
X30912Y151837D01*
X30849Y151938D01*
X30819Y151966D01*
X30795Y151998D01*
X30704Y152074D01*
X30617Y152156D01*
X30582Y152175D01*
X30550Y152201D01*
X30443Y152252D01*
X30339Y152309D01*
X30299Y152320D01*
X30263Y152337D01*
X30146Y152359D01*
X30031Y152389D01*
X29970Y152393D01*
X29950Y152397D01*
X29930Y152395D01*
X29870Y152399D01*
X27330Y152399D01*
X27212Y152384D01*
X27093Y152377D01*
X27055Y152364D01*
X27015Y152359D01*
X26904Y152315D01*
X26791Y152279D01*
X26756Y152257D01*
X26719Y152242D01*
X26623Y152172D01*
X26522Y152109D01*
X26494Y152079D01*
X26461Y152055D01*
X26386Y151964D01*
X26304Y151877D01*
X26284Y151842D01*
X26259Y151810D01*
X26208Y151703D01*
X26150Y151599D01*
X26140Y151559D01*
X26123Y151523D01*
X26101Y151406D01*
X26071Y151291D01*
X26067Y151230D01*
X26063Y151210D01*
X26065Y151190D01*
X26061Y151130D01*
X26061Y142359D01*
X21766Y142359D01*
X21157Y142522D01*
X21032Y142540D01*
X20908Y142563D01*
X20875Y142561D01*
X20841Y142566D01*
X20716Y142551D01*
X20591Y142543D01*
X20559Y142533D01*
X20526Y142529D01*
X20408Y142484D01*
X20289Y142445D01*
X20260Y142427D01*
X20229Y142415D01*
X20126Y142343D01*
X20020Y142275D01*
X19997Y142251D01*
X19969Y142231D01*
X19888Y142135D01*
X19802Y142044D01*
X19786Y142014D01*
X19764Y141988D01*
X19709Y141875D01*
X19648Y141765D01*
X19640Y141733D01*
X19625Y141702D01*
X19600Y141579D01*
X19569Y141457D01*
X19566Y141409D01*
X19562Y141390D01*
X19563Y141369D01*
X19559Y141296D01*
X19559Y66341D01*
X19571Y66242D01*
X19574Y66143D01*
X19591Y66085D01*
X19599Y66025D01*
X19635Y65933D01*
X19663Y65838D01*
X19693Y65786D01*
X19716Y65729D01*
X19774Y65649D01*
X19824Y65564D01*
X19890Y65489D01*
X19902Y65472D01*
X19912Y65464D01*
X19930Y65443D01*
X37630Y47743D01*
X37708Y47683D01*
X37781Y47615D01*
X37834Y47586D01*
X37881Y47549D01*
X37972Y47509D01*
X38059Y47461D01*
X38118Y47446D01*
X38173Y47422D01*
X38271Y47407D01*
X38367Y47382D01*
X38467Y47376D01*
X38487Y47372D01*
X38500Y47374D01*
X38528Y47372D01*
X105703Y47372D01*
X105772Y47380D01*
G37*
G36*
X157833Y77604D02*
X157833Y77604D01*
X157943Y77610D01*
X157990Y77626D01*
X158039Y77633D01*
X158192Y77685D01*
X159998Y78433D01*
X160023Y78448D01*
X160051Y78457D01*
X160161Y78526D01*
X160274Y78590D01*
X160295Y78611D01*
X160320Y78627D01*
X160409Y78722D01*
X160502Y78812D01*
X160518Y78837D01*
X160538Y78858D01*
X160601Y78972D01*
X160669Y79083D01*
X160677Y79111D01*
X160692Y79137D01*
X160724Y79263D01*
X160762Y79387D01*
X160764Y79416D01*
X160771Y79445D01*
X160781Y79606D01*
X160781Y109544D01*
X160769Y109642D01*
X160766Y109741D01*
X160749Y109800D01*
X160741Y109860D01*
X160705Y109952D01*
X160677Y110047D01*
X160647Y110099D01*
X160624Y110155D01*
X160566Y110235D01*
X160516Y110321D01*
X160450Y110396D01*
X160438Y110413D01*
X160428Y110420D01*
X160410Y110442D01*
X159331Y111520D01*
X158523Y113470D01*
X158523Y115582D01*
X159331Y117532D01*
X160824Y119025D01*
X162774Y119833D01*
X164886Y119833D01*
X166836Y119025D01*
X167291Y118570D01*
X167385Y118497D01*
X167474Y118418D01*
X167510Y118400D01*
X167542Y118375D01*
X167652Y118327D01*
X167758Y118273D01*
X167797Y118265D01*
X167834Y118248D01*
X167952Y118230D01*
X168068Y118204D01*
X168108Y118205D01*
X168148Y118199D01*
X168267Y118210D01*
X168386Y118213D01*
X168425Y118225D01*
X168465Y118228D01*
X168577Y118269D01*
X168691Y118302D01*
X168726Y118322D01*
X168764Y118336D01*
X168863Y118403D01*
X168965Y118463D01*
X169010Y118503D01*
X169027Y118515D01*
X169041Y118530D01*
X169086Y118570D01*
X170824Y120308D01*
X172878Y121159D01*
X175102Y121159D01*
X177156Y120308D01*
X178728Y118736D01*
X179580Y116679D01*
X179594Y116570D01*
X179601Y116451D01*
X179614Y116413D01*
X179619Y116372D01*
X179662Y116262D01*
X179699Y116149D01*
X179721Y116114D01*
X179736Y116077D01*
X179805Y115981D01*
X179869Y115880D01*
X179899Y115852D01*
X179922Y115819D01*
X180014Y115743D01*
X180101Y115662D01*
X180136Y115642D01*
X180167Y115617D01*
X180275Y115566D01*
X180379Y115508D01*
X180419Y115498D01*
X180455Y115481D01*
X180572Y115459D01*
X180687Y115429D01*
X180747Y115425D01*
X180767Y115421D01*
X180788Y115423D01*
X180848Y115419D01*
X191382Y115419D01*
X191500Y115434D01*
X191619Y115441D01*
X191657Y115454D01*
X191698Y115459D01*
X191808Y115502D01*
X191921Y115539D01*
X191956Y115561D01*
X191993Y115576D01*
X192089Y115645D01*
X192190Y115709D01*
X192218Y115739D01*
X192251Y115762D01*
X192327Y115854D01*
X192408Y115941D01*
X192428Y115976D01*
X192453Y116007D01*
X192504Y116115D01*
X192562Y116219D01*
X192572Y116259D01*
X192589Y116295D01*
X192611Y116412D01*
X192641Y116527D01*
X192645Y116587D01*
X192649Y116607D01*
X192647Y116628D01*
X192651Y116688D01*
X192651Y118863D01*
X194437Y120649D01*
X211963Y120649D01*
X213749Y118863D01*
X213749Y110714D01*
X213766Y110576D01*
X213779Y110438D01*
X213786Y110419D01*
X213789Y110398D01*
X213840Y110269D01*
X213887Y110138D01*
X213898Y110122D01*
X213906Y110103D01*
X213987Y109990D01*
X214065Y109875D01*
X214081Y109862D01*
X214092Y109845D01*
X214200Y109757D01*
X214304Y109665D01*
X214322Y109656D01*
X214337Y109643D01*
X214463Y109584D01*
X214587Y109520D01*
X214607Y109516D01*
X214625Y109507D01*
X214761Y109481D01*
X214897Y109451D01*
X214918Y109451D01*
X214937Y109447D01*
X215076Y109456D01*
X215215Y109460D01*
X215235Y109466D01*
X215255Y109467D01*
X215387Y109510D01*
X215521Y109549D01*
X215538Y109559D01*
X215557Y109565D01*
X215675Y109640D01*
X215795Y109710D01*
X215816Y109729D01*
X215826Y109735D01*
X215840Y109750D01*
X215916Y109817D01*
X216292Y110193D01*
X216352Y110271D01*
X216420Y110343D01*
X216449Y110396D01*
X216486Y110444D01*
X216526Y110535D01*
X216574Y110621D01*
X216589Y110680D01*
X216613Y110736D01*
X216628Y110834D01*
X216653Y110929D01*
X216659Y111030D01*
X216663Y111050D01*
X216661Y111062D01*
X216663Y111090D01*
X216663Y112677D01*
X219565Y115579D01*
X221880Y117894D01*
X221940Y117972D01*
X222008Y118044D01*
X222037Y118097D01*
X222074Y118145D01*
X222114Y118236D01*
X222162Y118323D01*
X222177Y118381D01*
X222201Y118437D01*
X222216Y118535D01*
X222241Y118630D01*
X222247Y118731D01*
X222251Y118751D01*
X222249Y118763D01*
X222251Y118791D01*
X222251Y135763D01*
X224037Y137549D01*
X234394Y137549D01*
X234512Y137564D01*
X234631Y137571D01*
X234669Y137584D01*
X234710Y137589D01*
X234820Y137632D01*
X234933Y137669D01*
X234968Y137691D01*
X235005Y137706D01*
X235101Y137775D01*
X235202Y137839D01*
X235230Y137869D01*
X235263Y137892D01*
X235339Y137984D01*
X235420Y138071D01*
X235440Y138106D01*
X235465Y138137D01*
X235516Y138245D01*
X235574Y138349D01*
X235584Y138389D01*
X235601Y138425D01*
X235623Y138542D01*
X235653Y138657D01*
X235657Y138717D01*
X235661Y138737D01*
X235659Y138758D01*
X235663Y138818D01*
X235663Y140581D01*
X254567Y159485D01*
X267151Y159485D01*
X267250Y159497D01*
X267349Y159500D01*
X267407Y159517D01*
X267467Y159525D01*
X267559Y159561D01*
X267654Y159589D01*
X267706Y159619D01*
X267763Y159642D01*
X267843Y159700D01*
X267928Y159750D01*
X268003Y159816D01*
X268020Y159828D01*
X268028Y159838D01*
X268049Y159856D01*
X274710Y166517D01*
X274770Y166595D01*
X274838Y166668D01*
X274867Y166721D01*
X274904Y166768D01*
X274944Y166859D01*
X274992Y166946D01*
X275007Y167005D01*
X275031Y167060D01*
X275046Y167158D01*
X275071Y167254D01*
X275077Y167354D01*
X275081Y167374D01*
X275079Y167387D01*
X275081Y167415D01*
X275081Y179181D01*
X275069Y179280D01*
X275066Y179379D01*
X275049Y179437D01*
X275041Y179497D01*
X275005Y179589D01*
X274977Y179684D01*
X274947Y179736D01*
X274924Y179793D01*
X274866Y179873D01*
X274816Y179958D01*
X274750Y180033D01*
X274738Y180050D01*
X274728Y180058D01*
X274710Y180079D01*
X273051Y181737D01*
X273051Y199263D01*
X274837Y201049D01*
X277012Y201049D01*
X277130Y201064D01*
X277249Y201071D01*
X277287Y201084D01*
X277328Y201089D01*
X277438Y201132D01*
X277551Y201169D01*
X277586Y201191D01*
X277623Y201206D01*
X277719Y201275D01*
X277820Y201339D01*
X277848Y201369D01*
X277881Y201392D01*
X277957Y201484D01*
X278038Y201571D01*
X278058Y201606D01*
X278083Y201637D01*
X278134Y201745D01*
X278192Y201849D01*
X278202Y201889D01*
X278219Y201925D01*
X278241Y202042D01*
X278271Y202157D01*
X278275Y202217D01*
X278279Y202237D01*
X278277Y202258D01*
X278281Y202318D01*
X278281Y204082D01*
X278266Y204200D01*
X278259Y204319D01*
X278246Y204357D01*
X278241Y204398D01*
X278198Y204508D01*
X278161Y204621D01*
X278139Y204656D01*
X278124Y204693D01*
X278055Y204789D01*
X277991Y204890D01*
X277961Y204918D01*
X277938Y204951D01*
X277846Y205027D01*
X277759Y205108D01*
X277724Y205128D01*
X277693Y205153D01*
X277585Y205204D01*
X277481Y205262D01*
X277441Y205272D01*
X277405Y205289D01*
X277288Y205311D01*
X277173Y205341D01*
X277113Y205345D01*
X277093Y205349D01*
X277072Y205347D01*
X277012Y205351D01*
X274837Y205351D01*
X273051Y207137D01*
X273051Y224663D01*
X274837Y226449D01*
X290363Y226449D01*
X291202Y225609D01*
X291296Y225536D01*
X291386Y225457D01*
X291422Y225439D01*
X291454Y225414D01*
X291563Y225367D01*
X291669Y225313D01*
X291708Y225304D01*
X291746Y225288D01*
X291863Y225269D01*
X291979Y225243D01*
X292020Y225244D01*
X292060Y225238D01*
X292178Y225249D01*
X292297Y225253D01*
X292336Y225264D01*
X292376Y225268D01*
X292489Y225308D01*
X292603Y225341D01*
X292637Y225362D01*
X292676Y225375D01*
X292774Y225442D01*
X292877Y225503D01*
X292922Y225543D01*
X292939Y225554D01*
X292952Y225569D01*
X292997Y225609D01*
X293837Y226449D01*
X296012Y226449D01*
X296130Y226464D01*
X296249Y226471D01*
X296287Y226484D01*
X296328Y226489D01*
X296438Y226532D01*
X296551Y226569D01*
X296586Y226591D01*
X296623Y226606D01*
X296719Y226675D01*
X296820Y226739D01*
X296848Y226769D01*
X296881Y226792D01*
X296957Y226884D01*
X297038Y226971D01*
X297058Y227006D01*
X297083Y227037D01*
X297134Y227145D01*
X297192Y227249D01*
X297202Y227289D01*
X297219Y227325D01*
X297241Y227442D01*
X297271Y227557D01*
X297275Y227617D01*
X297279Y227637D01*
X297277Y227658D01*
X297281Y227718D01*
X297281Y229482D01*
X297266Y229600D01*
X297259Y229719D01*
X297246Y229757D01*
X297241Y229798D01*
X297198Y229908D01*
X297161Y230021D01*
X297139Y230056D01*
X297124Y230093D01*
X297055Y230189D01*
X296991Y230290D01*
X296961Y230318D01*
X296938Y230351D01*
X296846Y230427D01*
X296759Y230508D01*
X296724Y230528D01*
X296693Y230553D01*
X296585Y230604D01*
X296481Y230662D01*
X296441Y230672D01*
X296405Y230689D01*
X296288Y230711D01*
X296173Y230741D01*
X296113Y230745D01*
X296093Y230749D01*
X296072Y230747D01*
X296012Y230751D01*
X293837Y230751D01*
X292997Y231591D01*
X292903Y231664D01*
X292814Y231743D01*
X292778Y231761D01*
X292746Y231786D01*
X292637Y231833D01*
X292531Y231887D01*
X292492Y231896D01*
X292454Y231912D01*
X292337Y231931D01*
X292221Y231957D01*
X292180Y231956D01*
X292140Y231962D01*
X292022Y231951D01*
X291903Y231947D01*
X291864Y231936D01*
X291824Y231932D01*
X291712Y231892D01*
X291597Y231859D01*
X291562Y231838D01*
X291524Y231825D01*
X291426Y231758D01*
X291323Y231697D01*
X291278Y231658D01*
X291261Y231646D01*
X291248Y231631D01*
X291202Y231591D01*
X290363Y230751D01*
X274837Y230751D01*
X273051Y232537D01*
X273051Y250063D01*
X274837Y251849D01*
X277012Y251849D01*
X277130Y251864D01*
X277249Y251871D01*
X277287Y251884D01*
X277328Y251889D01*
X277438Y251932D01*
X277551Y251969D01*
X277586Y251991D01*
X277623Y252006D01*
X277719Y252075D01*
X277820Y252139D01*
X277848Y252169D01*
X277881Y252192D01*
X277957Y252284D01*
X278038Y252371D01*
X278058Y252406D01*
X278083Y252437D01*
X278134Y252545D01*
X278192Y252649D01*
X278202Y252689D01*
X278219Y252725D01*
X278241Y252842D01*
X278271Y252957D01*
X278275Y253017D01*
X278279Y253037D01*
X278277Y253058D01*
X278281Y253118D01*
X278281Y254882D01*
X278266Y255000D01*
X278259Y255119D01*
X278246Y255157D01*
X278241Y255198D01*
X278198Y255308D01*
X278161Y255421D01*
X278139Y255456D01*
X278124Y255493D01*
X278055Y255589D01*
X277991Y255690D01*
X277961Y255718D01*
X277938Y255751D01*
X277846Y255827D01*
X277759Y255908D01*
X277724Y255928D01*
X277693Y255953D01*
X277585Y256004D01*
X277481Y256062D01*
X277441Y256072D01*
X277405Y256089D01*
X277288Y256111D01*
X277173Y256141D01*
X277113Y256145D01*
X277093Y256149D01*
X277072Y256147D01*
X277012Y256151D01*
X274837Y256151D01*
X273051Y257937D01*
X273051Y261112D01*
X273036Y261230D01*
X273029Y261349D01*
X273016Y261387D01*
X273011Y261428D01*
X272968Y261538D01*
X272931Y261651D01*
X272909Y261686D01*
X272894Y261723D01*
X272825Y261819D01*
X272761Y261920D01*
X272731Y261948D01*
X272708Y261981D01*
X272616Y262057D01*
X272529Y262138D01*
X272494Y262158D01*
X272463Y262183D01*
X272355Y262234D01*
X272251Y262292D01*
X272211Y262302D01*
X272175Y262319D01*
X272058Y262341D01*
X271943Y262371D01*
X271883Y262375D01*
X271863Y262379D01*
X271842Y262377D01*
X271782Y262381D01*
X261618Y262381D01*
X261500Y262366D01*
X261381Y262359D01*
X261343Y262346D01*
X261302Y262341D01*
X261192Y262298D01*
X261079Y262261D01*
X261044Y262239D01*
X261007Y262224D01*
X260911Y262155D01*
X260810Y262091D01*
X260782Y262061D01*
X260749Y262038D01*
X260673Y261946D01*
X260592Y261859D01*
X260572Y261824D01*
X260547Y261793D01*
X260496Y261685D01*
X260438Y261581D01*
X260428Y261541D01*
X260411Y261505D01*
X260389Y261388D01*
X260359Y261273D01*
X260355Y261213D01*
X260351Y261193D01*
X260353Y261172D01*
X260349Y261112D01*
X260349Y257937D01*
X258563Y256151D01*
X243037Y256151D01*
X242197Y256991D01*
X242103Y257064D01*
X242014Y257143D01*
X241978Y257161D01*
X241946Y257186D01*
X241837Y257233D01*
X241731Y257287D01*
X241692Y257296D01*
X241654Y257312D01*
X241537Y257331D01*
X241421Y257357D01*
X241380Y257356D01*
X241340Y257362D01*
X241222Y257351D01*
X241103Y257347D01*
X241064Y257336D01*
X241024Y257332D01*
X240912Y257292D01*
X240797Y257259D01*
X240762Y257238D01*
X240724Y257225D01*
X240626Y257158D01*
X240523Y257097D01*
X240478Y257058D01*
X240461Y257046D01*
X240448Y257031D01*
X240402Y256991D01*
X239563Y256151D01*
X227885Y256151D01*
X227786Y256139D01*
X227687Y256136D01*
X227629Y256119D01*
X227569Y256111D01*
X227477Y256075D01*
X227382Y256047D01*
X227330Y256017D01*
X227273Y255994D01*
X227193Y255936D01*
X227108Y255886D01*
X227033Y255820D01*
X227016Y255808D01*
X227008Y255798D01*
X226987Y255780D01*
X225223Y254015D01*
X225138Y253906D01*
X225049Y253799D01*
X225041Y253780D01*
X225028Y253764D01*
X224973Y253636D01*
X224914Y253511D01*
X224910Y253491D01*
X224902Y253472D01*
X224880Y253334D01*
X224854Y253198D01*
X224855Y253178D01*
X224852Y253158D01*
X224865Y253019D01*
X224874Y252881D01*
X224880Y252862D01*
X224882Y252842D01*
X224929Y252710D01*
X224972Y252579D01*
X224982Y252561D01*
X224989Y252542D01*
X225067Y252427D01*
X225142Y252310D01*
X225157Y252296D01*
X225168Y252279D01*
X225272Y252187D01*
X225373Y252092D01*
X225391Y252082D01*
X225406Y252069D01*
X225530Y252005D01*
X225652Y251938D01*
X225672Y251933D01*
X225690Y251924D01*
X225825Y251894D01*
X225960Y251859D01*
X225988Y251857D01*
X226000Y251854D01*
X226020Y251855D01*
X226121Y251849D01*
X239563Y251849D01*
X240762Y250650D01*
X240856Y250577D01*
X240945Y250498D01*
X240981Y250480D01*
X241013Y250455D01*
X241122Y250408D01*
X241228Y250353D01*
X241268Y250345D01*
X241305Y250329D01*
X241423Y250310D01*
X241539Y250284D01*
X241579Y250285D01*
X241619Y250279D01*
X241738Y250290D01*
X241856Y250293D01*
X241895Y250305D01*
X241936Y250309D01*
X242048Y250349D01*
X242162Y250382D01*
X242197Y250402D01*
X242235Y250416D01*
X242333Y250483D01*
X242436Y250543D01*
X242481Y250583D01*
X242498Y250595D01*
X242511Y250610D01*
X242557Y250650D01*
X242740Y250833D01*
X243319Y251168D01*
X243966Y251341D01*
X248261Y251341D01*
X248261Y242570D01*
X248276Y242452D01*
X248283Y242333D01*
X248296Y242295D01*
X248301Y242255D01*
X248344Y242144D01*
X248381Y242031D01*
X248403Y241996D01*
X248418Y241959D01*
X248488Y241863D01*
X248551Y241762D01*
X248581Y241734D01*
X248605Y241702D01*
X248696Y241626D01*
X248783Y241544D01*
X248818Y241525D01*
X248849Y241499D01*
X248957Y241448D01*
X249061Y241391D01*
X249101Y241380D01*
X249137Y241363D01*
X249254Y241341D01*
X249369Y241311D01*
X249430Y241307D01*
X249450Y241303D01*
X249470Y241305D01*
X249530Y241301D01*
X250801Y241301D01*
X250801Y241299D01*
X249530Y241299D01*
X249412Y241284D01*
X249293Y241277D01*
X249255Y241264D01*
X249215Y241259D01*
X249104Y241215D01*
X248991Y241179D01*
X248956Y241157D01*
X248919Y241142D01*
X248823Y241072D01*
X248722Y241009D01*
X248694Y240979D01*
X248661Y240955D01*
X248586Y240864D01*
X248504Y240777D01*
X248484Y240742D01*
X248459Y240710D01*
X248408Y240603D01*
X248350Y240499D01*
X248340Y240459D01*
X248323Y240423D01*
X248301Y240306D01*
X248271Y240191D01*
X248267Y240130D01*
X248263Y240110D01*
X248265Y240090D01*
X248261Y240030D01*
X248261Y231259D01*
X243966Y231259D01*
X243319Y231432D01*
X242740Y231767D01*
X242557Y231950D01*
X242464Y232022D01*
X242448Y232037D01*
X242445Y232039D01*
X242373Y232102D01*
X242337Y232120D01*
X242305Y232145D01*
X242196Y232192D01*
X242090Y232247D01*
X242051Y232255D01*
X242014Y232271D01*
X241896Y232290D01*
X241780Y232316D01*
X241739Y232315D01*
X241699Y232321D01*
X241581Y232310D01*
X241462Y232307D01*
X241423Y232295D01*
X241383Y232291D01*
X241271Y232251D01*
X241156Y232218D01*
X241122Y232198D01*
X241084Y232184D01*
X240985Y232117D01*
X240883Y232057D01*
X240837Y232017D01*
X240820Y232005D01*
X240807Y231990D01*
X240762Y231950D01*
X239563Y230751D01*
X227885Y230751D01*
X227786Y230739D01*
X227687Y230736D01*
X227629Y230719D01*
X227569Y230711D01*
X227477Y230675D01*
X227382Y230647D01*
X227330Y230617D01*
X227273Y230594D01*
X227193Y230536D01*
X227108Y230486D01*
X227033Y230420D01*
X227016Y230408D01*
X227008Y230398D01*
X226987Y230380D01*
X225223Y228615D01*
X225138Y228506D01*
X225049Y228399D01*
X225041Y228380D01*
X225028Y228364D01*
X224973Y228236D01*
X224914Y228111D01*
X224910Y228091D01*
X224902Y228072D01*
X224880Y227934D01*
X224854Y227798D01*
X224855Y227778D01*
X224852Y227758D01*
X224865Y227619D01*
X224874Y227481D01*
X224880Y227462D01*
X224882Y227442D01*
X224929Y227310D01*
X224972Y227179D01*
X224982Y227161D01*
X224989Y227142D01*
X225067Y227027D01*
X225142Y226910D01*
X225157Y226896D01*
X225168Y226879D01*
X225272Y226787D01*
X225373Y226692D01*
X225391Y226682D01*
X225406Y226669D01*
X225530Y226605D01*
X225652Y226538D01*
X225672Y226533D01*
X225690Y226524D01*
X225825Y226494D01*
X225960Y226459D01*
X225988Y226457D01*
X226000Y226454D01*
X226020Y226455D01*
X226121Y226449D01*
X239563Y226449D01*
X240762Y225250D01*
X240856Y225177D01*
X240945Y225098D01*
X240981Y225080D01*
X241013Y225055D01*
X241122Y225008D01*
X241228Y224953D01*
X241268Y224945D01*
X241305Y224929D01*
X241423Y224910D01*
X241539Y224884D01*
X241579Y224885D01*
X241619Y224879D01*
X241738Y224890D01*
X241857Y224894D01*
X241895Y224905D01*
X241936Y224909D01*
X242048Y224949D01*
X242162Y224982D01*
X242197Y225002D01*
X242235Y225016D01*
X242333Y225083D01*
X242436Y225143D01*
X242481Y225183D01*
X242498Y225195D01*
X242512Y225210D01*
X242557Y225250D01*
X242740Y225433D01*
X243319Y225768D01*
X243966Y225941D01*
X248261Y225941D01*
X248261Y217170D01*
X248276Y217052D01*
X248283Y216933D01*
X248296Y216895D01*
X248301Y216855D01*
X248344Y216744D01*
X248381Y216631D01*
X248403Y216596D01*
X248418Y216559D01*
X248488Y216463D01*
X248551Y216362D01*
X248581Y216334D01*
X248605Y216302D01*
X248696Y216226D01*
X248783Y216144D01*
X248818Y216125D01*
X248849Y216099D01*
X248957Y216048D01*
X249061Y215991D01*
X249101Y215980D01*
X249137Y215963D01*
X249254Y215941D01*
X249369Y215911D01*
X249430Y215907D01*
X249450Y215903D01*
X249470Y215905D01*
X249530Y215901D01*
X250801Y215901D01*
X250801Y214630D01*
X250816Y214512D01*
X250823Y214393D01*
X250836Y214355D01*
X250841Y214315D01*
X250885Y214204D01*
X250921Y214091D01*
X250943Y214056D01*
X250958Y214019D01*
X251028Y213923D01*
X251091Y213822D01*
X251121Y213794D01*
X251145Y213761D01*
X251236Y213686D01*
X251323Y213604D01*
X251358Y213584D01*
X251390Y213559D01*
X251497Y213508D01*
X251601Y213450D01*
X251641Y213440D01*
X251677Y213423D01*
X251794Y213401D01*
X251909Y213371D01*
X251970Y213367D01*
X251990Y213363D01*
X252010Y213365D01*
X252070Y213361D01*
X259841Y213361D01*
X259841Y208066D01*
X259668Y207419D01*
X259333Y206840D01*
X258860Y206367D01*
X258281Y206032D01*
X257634Y205859D01*
X256220Y205859D01*
X256082Y205842D01*
X255943Y205829D01*
X255924Y205822D01*
X255904Y205819D01*
X255775Y205768D01*
X255644Y205721D01*
X255627Y205710D01*
X255609Y205702D01*
X255496Y205621D01*
X255381Y205543D01*
X255368Y205527D01*
X255351Y205516D01*
X255262Y205408D01*
X255171Y205304D01*
X255161Y205286D01*
X255148Y205271D01*
X255089Y205145D01*
X255026Y205021D01*
X255022Y205001D01*
X255013Y204983D01*
X254987Y204846D01*
X254956Y204711D01*
X254957Y204690D01*
X254953Y204671D01*
X254962Y204532D01*
X254966Y204393D01*
X254972Y204373D01*
X254973Y204353D01*
X255016Y204221D01*
X255054Y204087D01*
X255065Y204070D01*
X255071Y204051D01*
X255145Y203933D01*
X255216Y203813D01*
X255235Y203792D01*
X255241Y203782D01*
X255256Y203768D01*
X255322Y203693D01*
X255959Y203056D01*
X256767Y201106D01*
X256767Y198934D01*
X256731Y198805D01*
X256731Y198796D01*
X256729Y198787D01*
X256719Y198626D01*
X256719Y189618D01*
X256734Y189500D01*
X256741Y189381D01*
X256754Y189343D01*
X256759Y189302D01*
X256802Y189192D01*
X256839Y189079D01*
X256861Y189044D01*
X256876Y189007D01*
X256945Y188911D01*
X257009Y188810D01*
X257039Y188782D01*
X257062Y188749D01*
X257154Y188673D01*
X257241Y188592D01*
X257276Y188572D01*
X257307Y188547D01*
X257415Y188496D01*
X257519Y188438D01*
X257559Y188428D01*
X257595Y188411D01*
X257712Y188389D01*
X257827Y188359D01*
X257887Y188355D01*
X257907Y188351D01*
X257928Y188353D01*
X257988Y188349D01*
X258563Y188349D01*
X260349Y186563D01*
X260349Y169037D01*
X258563Y167251D01*
X247991Y167251D01*
X247893Y167239D01*
X247794Y167236D01*
X247736Y167219D01*
X247676Y167211D01*
X247584Y167175D01*
X247488Y167147D01*
X247436Y167117D01*
X247380Y167094D01*
X247300Y167036D01*
X247215Y166986D01*
X247139Y166920D01*
X247123Y166908D01*
X247115Y166898D01*
X247094Y166880D01*
X234419Y154205D01*
X220218Y154205D01*
X220100Y154190D01*
X219981Y154183D01*
X219943Y154170D01*
X219902Y154165D01*
X219792Y154122D01*
X219679Y154085D01*
X219644Y154063D01*
X219607Y154048D01*
X219511Y153979D01*
X219410Y153915D01*
X219382Y153885D01*
X219349Y153862D01*
X219273Y153770D01*
X219192Y153683D01*
X219172Y153648D01*
X219147Y153617D01*
X219096Y153509D01*
X219038Y153405D01*
X219028Y153365D01*
X219011Y153329D01*
X218989Y153212D01*
X218959Y153097D01*
X218955Y153037D01*
X218951Y153017D01*
X218953Y152996D01*
X218949Y152936D01*
X218949Y145135D01*
X209703Y135889D01*
X179987Y135889D01*
X179889Y135877D01*
X179790Y135874D01*
X179731Y135857D01*
X179671Y135849D01*
X179579Y135813D01*
X179484Y135785D01*
X179432Y135755D01*
X179376Y135732D01*
X179296Y135674D01*
X179210Y135624D01*
X179135Y135558D01*
X179118Y135546D01*
X179110Y135536D01*
X179089Y135518D01*
X172603Y129031D01*
X161065Y129031D01*
X160966Y129019D01*
X160867Y129016D01*
X160809Y128999D01*
X160749Y128991D01*
X160657Y128955D01*
X160562Y128927D01*
X160510Y128897D01*
X160453Y128874D01*
X160373Y128816D01*
X160288Y128766D01*
X160213Y128700D01*
X160196Y128688D01*
X160188Y128678D01*
X160167Y128660D01*
X155594Y124087D01*
X155534Y124009D01*
X155466Y123936D01*
X155437Y123883D01*
X155400Y123836D01*
X155360Y123745D01*
X155312Y123658D01*
X155297Y123599D01*
X155273Y123544D01*
X155258Y123446D01*
X155233Y123350D01*
X155227Y123250D01*
X155223Y123230D01*
X155225Y123217D01*
X155223Y123189D01*
X155223Y94841D01*
X155235Y94743D01*
X155238Y94644D01*
X155255Y94585D01*
X155263Y94525D01*
X155299Y94433D01*
X155327Y94338D01*
X155357Y94286D01*
X155380Y94230D01*
X155438Y94150D01*
X155449Y94131D01*
X155449Y81445D01*
X155450Y81436D01*
X155449Y81427D01*
X155470Y81277D01*
X155489Y81130D01*
X155492Y81121D01*
X155493Y81112D01*
X155545Y80960D01*
X156442Y78794D01*
X156441Y78759D01*
X156463Y78651D01*
X156477Y78542D01*
X156495Y78496D01*
X156505Y78447D01*
X156553Y78348D01*
X156594Y78246D01*
X156623Y78206D01*
X156645Y78161D01*
X156716Y78078D01*
X156780Y77989D01*
X156819Y77957D01*
X156851Y77919D01*
X156941Y77856D01*
X157025Y77786D01*
X157070Y77765D01*
X157111Y77736D01*
X157214Y77697D01*
X157313Y77651D01*
X157362Y77641D01*
X157408Y77624D01*
X157518Y77611D01*
X157625Y77591D01*
X157675Y77594D01*
X157724Y77588D01*
X157833Y77604D01*
G37*
G36*
X12758Y268623D02*
X12758Y268623D01*
X12897Y268627D01*
X12917Y268633D01*
X12937Y268634D01*
X13069Y268677D01*
X13203Y268715D01*
X13220Y268726D01*
X13239Y268732D01*
X13357Y268806D01*
X13477Y268877D01*
X13498Y268896D01*
X13508Y268902D01*
X13522Y268917D01*
X13597Y268983D01*
X24006Y279392D01*
X24091Y279501D01*
X24180Y279608D01*
X24188Y279627D01*
X24201Y279643D01*
X24256Y279771D01*
X24315Y279896D01*
X24319Y279916D01*
X24327Y279935D01*
X24349Y280073D01*
X24375Y280209D01*
X24374Y280229D01*
X24377Y280249D01*
X24364Y280388D01*
X24355Y280526D01*
X24349Y280545D01*
X24347Y280565D01*
X24300Y280697D01*
X24257Y280828D01*
X24246Y280846D01*
X24239Y280865D01*
X24161Y280980D01*
X24087Y281097D01*
X24072Y281111D01*
X24061Y281128D01*
X23957Y281220D01*
X23855Y281315D01*
X23838Y281325D01*
X23822Y281338D01*
X23699Y281401D01*
X23577Y281469D01*
X23557Y281474D01*
X23539Y281483D01*
X23403Y281513D01*
X23269Y281548D01*
X23241Y281550D01*
X23229Y281553D01*
X23208Y281552D01*
X23108Y281558D01*
X21033Y281558D01*
X14858Y287733D01*
X14858Y290069D01*
X24638Y290069D01*
X24756Y290084D01*
X24875Y290091D01*
X24913Y290103D01*
X24953Y290109D01*
X25064Y290152D01*
X25177Y290189D01*
X25211Y290211D01*
X25249Y290226D01*
X25345Y290295D01*
X25397Y290328D01*
X25415Y290312D01*
X25450Y290292D01*
X25482Y290267D01*
X25589Y290216D01*
X25694Y290158D01*
X25733Y290148D01*
X25769Y290131D01*
X25886Y290109D01*
X26002Y290079D01*
X26062Y290075D01*
X26082Y290071D01*
X26102Y290073D01*
X26162Y290069D01*
X35942Y290069D01*
X35942Y287733D01*
X34475Y286266D01*
X34389Y286157D01*
X34301Y286050D01*
X34292Y286031D01*
X34280Y286015D01*
X34224Y285887D01*
X34165Y285762D01*
X34162Y285742D01*
X34153Y285723D01*
X34132Y285585D01*
X34106Y285449D01*
X34107Y285429D01*
X34104Y285409D01*
X34117Y285270D01*
X34125Y285132D01*
X34131Y285113D01*
X34133Y285093D01*
X34181Y284961D01*
X34223Y284830D01*
X34234Y284812D01*
X34241Y284793D01*
X34319Y284678D01*
X34393Y284561D01*
X34408Y284547D01*
X34420Y284530D01*
X34524Y284438D01*
X34625Y284343D01*
X34643Y284333D01*
X34658Y284320D01*
X34782Y284256D01*
X34904Y284189D01*
X34923Y284184D01*
X34941Y284175D01*
X35077Y284145D01*
X35212Y284110D01*
X35240Y284108D01*
X35252Y284105D01*
X35272Y284106D01*
X35372Y284100D01*
X40254Y284100D01*
X40303Y284106D01*
X40353Y284104D01*
X40461Y284126D01*
X40570Y284140D01*
X40616Y284158D01*
X40664Y284168D01*
X40763Y284216D01*
X40865Y284257D01*
X40905Y284286D01*
X40950Y284308D01*
X41034Y284379D01*
X41123Y284443D01*
X41154Y284482D01*
X41192Y284514D01*
X41255Y284604D01*
X41325Y284688D01*
X41347Y284733D01*
X41375Y284774D01*
X41414Y284877D01*
X41461Y284976D01*
X41470Y285025D01*
X41488Y285071D01*
X41500Y285181D01*
X41521Y285288D01*
X41518Y285338D01*
X41523Y285387D01*
X41508Y285496D01*
X41501Y285606D01*
X41486Y285653D01*
X41479Y285702D01*
X41427Y285855D01*
X39750Y289902D01*
X39750Y294298D01*
X41432Y298359D01*
X44541Y301468D01*
X48602Y303150D01*
X52998Y303150D01*
X57045Y301473D01*
X57093Y301460D01*
X57138Y301439D01*
X57246Y301418D01*
X57352Y301389D01*
X57402Y301389D01*
X57451Y301379D01*
X57560Y301386D01*
X57670Y301384D01*
X57718Y301396D01*
X57768Y301399D01*
X57872Y301433D01*
X57979Y301458D01*
X58023Y301482D01*
X58070Y301497D01*
X58163Y301556D01*
X58260Y301607D01*
X58297Y301641D01*
X58339Y301667D01*
X58414Y301747D01*
X58496Y301821D01*
X58523Y301863D01*
X58557Y301899D01*
X58610Y301995D01*
X58670Y302087D01*
X58687Y302134D01*
X58711Y302177D01*
X58738Y302284D01*
X58774Y302388D01*
X58778Y302437D01*
X58790Y302485D01*
X58800Y302646D01*
X58800Y345054D01*
X58794Y345103D01*
X58796Y345153D01*
X58774Y345261D01*
X58760Y345370D01*
X58742Y345416D01*
X58732Y345464D01*
X58684Y345563D01*
X58643Y345665D01*
X58614Y345705D01*
X58592Y345750D01*
X58521Y345834D01*
X58457Y345923D01*
X58418Y345954D01*
X58386Y345992D01*
X58296Y346055D01*
X58212Y346125D01*
X58167Y346147D01*
X58126Y346175D01*
X58023Y346214D01*
X57924Y346261D01*
X57875Y346270D01*
X57829Y346288D01*
X57719Y346300D01*
X57612Y346321D01*
X57562Y346318D01*
X57513Y346323D01*
X57404Y346308D01*
X57294Y346301D01*
X57247Y346286D01*
X57198Y346279D01*
X57045Y346227D01*
X52998Y344550D01*
X48602Y344550D01*
X44541Y346232D01*
X41432Y349341D01*
X39750Y353402D01*
X39750Y357798D01*
X41432Y361859D01*
X44541Y364968D01*
X48602Y366650D01*
X52998Y366650D01*
X57059Y364968D01*
X57452Y364575D01*
X57491Y364544D01*
X57525Y364508D01*
X57616Y364447D01*
X57703Y364380D01*
X57749Y364360D01*
X57790Y364333D01*
X57894Y364297D01*
X57995Y364253D01*
X58044Y364246D01*
X58091Y364230D01*
X58200Y364221D01*
X58309Y364204D01*
X58359Y364208D01*
X58408Y364204D01*
X58516Y364223D01*
X58626Y364233D01*
X58673Y364250D01*
X58722Y364259D01*
X58821Y364304D01*
X58925Y364341D01*
X58966Y364369D01*
X59012Y364389D01*
X59097Y364458D01*
X59188Y364520D01*
X59221Y364557D01*
X59260Y364588D01*
X59326Y364676D01*
X59399Y364758D01*
X59421Y364802D01*
X59451Y364842D01*
X59522Y364987D01*
X59651Y365298D01*
X61402Y367049D01*
X74456Y380103D01*
X74541Y380212D01*
X74629Y380319D01*
X74638Y380338D01*
X74650Y380354D01*
X74706Y380482D01*
X74765Y380607D01*
X74769Y380627D01*
X74777Y380646D01*
X74799Y380784D01*
X74825Y380920D01*
X74823Y380940D01*
X74827Y380960D01*
X74814Y381099D01*
X74805Y381237D01*
X74799Y381256D01*
X74797Y381276D01*
X74750Y381408D01*
X74707Y381539D01*
X74696Y381557D01*
X74689Y381576D01*
X74611Y381691D01*
X74537Y381808D01*
X74522Y381822D01*
X74511Y381839D01*
X74407Y381931D01*
X74305Y382026D01*
X74287Y382036D01*
X74272Y382049D01*
X74149Y382112D01*
X74027Y382180D01*
X74007Y382185D01*
X73989Y382194D01*
X73853Y382224D01*
X73719Y382259D01*
X73691Y382261D01*
X73679Y382264D01*
X73658Y382263D01*
X73558Y382269D01*
X30661Y382269D01*
X30562Y382257D01*
X30463Y382254D01*
X30405Y382237D01*
X30345Y382229D01*
X30253Y382193D01*
X30158Y382165D01*
X30106Y382135D01*
X30049Y382112D01*
X29969Y382054D01*
X29884Y382004D01*
X29808Y381938D01*
X29792Y381926D01*
X29784Y381916D01*
X29763Y381898D01*
X11802Y363937D01*
X11742Y363859D01*
X11674Y363787D01*
X11645Y363734D01*
X11608Y363686D01*
X11568Y363595D01*
X11520Y363508D01*
X11505Y363450D01*
X11481Y363394D01*
X11466Y363296D01*
X11441Y363200D01*
X11435Y363100D01*
X11433Y363093D01*
X11433Y363092D01*
X11431Y363080D01*
X11433Y363067D01*
X11431Y363039D01*
X11431Y269881D01*
X11448Y269743D01*
X11461Y269605D01*
X11468Y269585D01*
X11471Y269565D01*
X11522Y269436D01*
X11569Y269305D01*
X11580Y269288D01*
X11588Y269270D01*
X11669Y269157D01*
X11747Y269042D01*
X11763Y269029D01*
X11774Y269012D01*
X11882Y268923D01*
X11986Y268832D01*
X12004Y268822D01*
X12019Y268809D01*
X12145Y268750D01*
X12269Y268687D01*
X12289Y268683D01*
X12307Y268674D01*
X12443Y268648D01*
X12579Y268617D01*
X12600Y268618D01*
X12619Y268614D01*
X12758Y268623D01*
G37*
G36*
X68700Y245634D02*
X68700Y245634D01*
X68819Y245641D01*
X68857Y245654D01*
X68898Y245659D01*
X69008Y245702D01*
X69121Y245739D01*
X69156Y245761D01*
X69193Y245776D01*
X69289Y245845D01*
X69390Y245909D01*
X69418Y245939D01*
X69451Y245962D01*
X69527Y246054D01*
X69608Y246141D01*
X69628Y246176D01*
X69653Y246207D01*
X69704Y246315D01*
X69762Y246419D01*
X69772Y246459D01*
X69789Y246495D01*
X69811Y246612D01*
X69841Y246727D01*
X69845Y246787D01*
X69849Y246807D01*
X69847Y246828D01*
X69851Y246888D01*
X69851Y250063D01*
X71637Y251849D01*
X82209Y251849D01*
X82307Y251861D01*
X82406Y251864D01*
X82464Y251881D01*
X82524Y251889D01*
X82616Y251925D01*
X82712Y251953D01*
X82764Y251983D01*
X82820Y252006D01*
X82900Y252064D01*
X82985Y252114D01*
X83061Y252180D01*
X83077Y252192D01*
X83085Y252202D01*
X83106Y252220D01*
X84870Y253985D01*
X84956Y254094D01*
X85044Y254201D01*
X85053Y254220D01*
X85065Y254236D01*
X85121Y254364D01*
X85180Y254489D01*
X85184Y254509D01*
X85192Y254528D01*
X85214Y254666D01*
X85240Y254802D01*
X85238Y254822D01*
X85241Y254842D01*
X85228Y254981D01*
X85220Y255119D01*
X85214Y255138D01*
X85212Y255158D01*
X85164Y255290D01*
X85122Y255421D01*
X85111Y255439D01*
X85104Y255458D01*
X85026Y255573D01*
X84952Y255690D01*
X84937Y255704D01*
X84925Y255721D01*
X84821Y255813D01*
X84720Y255908D01*
X84702Y255918D01*
X84687Y255931D01*
X84563Y255995D01*
X84441Y256062D01*
X84422Y256067D01*
X84404Y256076D01*
X84268Y256106D01*
X84134Y256141D01*
X84105Y256143D01*
X84094Y256146D01*
X84073Y256145D01*
X83973Y256151D01*
X71637Y256151D01*
X69851Y257937D01*
X69851Y275463D01*
X71637Y277249D01*
X73812Y277249D01*
X73930Y277264D01*
X74049Y277271D01*
X74087Y277284D01*
X74128Y277289D01*
X74238Y277332D01*
X74351Y277369D01*
X74386Y277391D01*
X74423Y277406D01*
X74519Y277475D01*
X74620Y277539D01*
X74648Y277569D01*
X74681Y277592D01*
X74757Y277684D01*
X74838Y277771D01*
X74858Y277806D01*
X74883Y277837D01*
X74934Y277945D01*
X74992Y278049D01*
X75002Y278089D01*
X75019Y278125D01*
X75041Y278242D01*
X75071Y278357D01*
X75075Y278417D01*
X75079Y278437D01*
X75077Y278458D01*
X75081Y278518D01*
X75081Y280282D01*
X75066Y280400D01*
X75059Y280519D01*
X75046Y280557D01*
X75041Y280598D01*
X74998Y280708D01*
X74961Y280821D01*
X74939Y280856D01*
X74924Y280893D01*
X74855Y280989D01*
X74791Y281090D01*
X74761Y281118D01*
X74738Y281151D01*
X74646Y281227D01*
X74559Y281308D01*
X74524Y281328D01*
X74493Y281353D01*
X74385Y281404D01*
X74281Y281462D01*
X74241Y281472D01*
X74205Y281489D01*
X74088Y281511D01*
X73973Y281541D01*
X73913Y281545D01*
X73893Y281549D01*
X73872Y281547D01*
X73812Y281551D01*
X71637Y281551D01*
X70402Y282786D01*
X70308Y282859D01*
X70219Y282938D01*
X70183Y282956D01*
X70151Y282981D01*
X70042Y283028D01*
X69936Y283082D01*
X69896Y283091D01*
X69859Y283107D01*
X69741Y283126D01*
X69626Y283152D01*
X69585Y283151D01*
X69545Y283157D01*
X69427Y283146D01*
X69308Y283142D01*
X69269Y283131D01*
X69229Y283127D01*
X69117Y283087D01*
X69002Y283054D01*
X68967Y283033D01*
X68929Y283020D01*
X68831Y282953D01*
X68728Y282892D01*
X68683Y282853D01*
X68666Y282841D01*
X68653Y282826D01*
X68607Y282786D01*
X67376Y281555D01*
X59594Y273773D01*
X57540Y272922D01*
X33869Y272922D01*
X33771Y272910D01*
X33672Y272907D01*
X33614Y272890D01*
X33554Y272882D01*
X33462Y272846D01*
X33367Y272818D01*
X33315Y272788D01*
X33258Y272765D01*
X33178Y272707D01*
X33093Y272657D01*
X33017Y272591D01*
X33001Y272579D01*
X32993Y272569D01*
X32972Y272551D01*
X19930Y259509D01*
X19870Y259431D01*
X19802Y259359D01*
X19773Y259306D01*
X19736Y259258D01*
X19696Y259167D01*
X19648Y259080D01*
X19633Y259022D01*
X19609Y258966D01*
X19594Y258868D01*
X19569Y258772D01*
X19563Y258672D01*
X19559Y258652D01*
X19561Y258640D01*
X19559Y258612D01*
X19559Y253118D01*
X19574Y253000D01*
X19581Y252881D01*
X19594Y252843D01*
X19599Y252802D01*
X19642Y252692D01*
X19679Y252579D01*
X19701Y252544D01*
X19716Y252507D01*
X19785Y252411D01*
X19849Y252310D01*
X19879Y252282D01*
X19902Y252249D01*
X19994Y252173D01*
X20081Y252092D01*
X20116Y252072D01*
X20147Y252047D01*
X20255Y251996D01*
X20359Y251938D01*
X20399Y251928D01*
X20435Y251911D01*
X20552Y251889D01*
X20667Y251859D01*
X20727Y251855D01*
X20747Y251851D01*
X20768Y251853D01*
X20828Y251849D01*
X36363Y251849D01*
X37203Y251009D01*
X37297Y250936D01*
X37386Y250857D01*
X37422Y250839D01*
X37454Y250814D01*
X37563Y250767D01*
X37669Y250713D01*
X37708Y250704D01*
X37746Y250688D01*
X37863Y250669D01*
X37979Y250643D01*
X38020Y250644D01*
X38060Y250638D01*
X38178Y250649D01*
X38297Y250653D01*
X38336Y250664D01*
X38376Y250668D01*
X38488Y250708D01*
X38603Y250741D01*
X38638Y250762D01*
X38676Y250775D01*
X38774Y250842D01*
X38877Y250903D01*
X38922Y250942D01*
X38939Y250954D01*
X38952Y250969D01*
X38998Y251009D01*
X39837Y251849D01*
X55363Y251849D01*
X57149Y250063D01*
X57149Y246888D01*
X57164Y246770D01*
X57171Y246651D01*
X57184Y246613D01*
X57189Y246572D01*
X57232Y246462D01*
X57269Y246349D01*
X57291Y246314D01*
X57306Y246277D01*
X57375Y246181D01*
X57439Y246080D01*
X57469Y246052D01*
X57492Y246019D01*
X57584Y245943D01*
X57671Y245862D01*
X57706Y245842D01*
X57737Y245817D01*
X57845Y245766D01*
X57949Y245708D01*
X57989Y245698D01*
X58025Y245681D01*
X58142Y245659D01*
X58257Y245629D01*
X58317Y245625D01*
X58337Y245621D01*
X58358Y245623D01*
X58418Y245619D01*
X68582Y245619D01*
X68700Y245634D01*
G37*
G36*
X106483Y11448D02*
X106483Y11448D01*
X106622Y11461D01*
X106641Y11468D01*
X106661Y11471D01*
X106790Y11522D01*
X106921Y11569D01*
X106938Y11580D01*
X106957Y11588D01*
X107069Y11669D01*
X107184Y11747D01*
X107198Y11763D01*
X107214Y11774D01*
X107303Y11882D01*
X107395Y11986D01*
X107404Y12004D01*
X107417Y12019D01*
X107476Y12145D01*
X107539Y12269D01*
X107544Y12289D01*
X107552Y12307D01*
X107578Y12443D01*
X107609Y12579D01*
X107608Y12600D01*
X107612Y12619D01*
X107604Y12758D01*
X107599Y12897D01*
X107594Y12917D01*
X107592Y12937D01*
X107550Y13069D01*
X107511Y13203D01*
X107501Y13220D01*
X107494Y13239D01*
X107420Y13357D01*
X107349Y13477D01*
X107331Y13498D01*
X107324Y13508D01*
X107309Y13522D01*
X107243Y13597D01*
X100964Y19876D01*
X100964Y22861D01*
X113030Y22861D01*
X113148Y22876D01*
X113267Y22883D01*
X113305Y22896D01*
X113345Y22901D01*
X113456Y22944D01*
X113569Y22981D01*
X113603Y23003D01*
X113641Y23018D01*
X113737Y23088D01*
X113838Y23151D01*
X113866Y23181D01*
X113898Y23204D01*
X113974Y23296D01*
X114056Y23383D01*
X114075Y23418D01*
X114101Y23449D01*
X114152Y23557D01*
X114209Y23661D01*
X114220Y23701D01*
X114237Y23737D01*
X114259Y23854D01*
X114289Y23969D01*
X114293Y24030D01*
X114297Y24050D01*
X114295Y24070D01*
X114299Y24130D01*
X114299Y26670D01*
X114284Y26788D01*
X114277Y26907D01*
X114264Y26945D01*
X114259Y26985D01*
X114215Y27096D01*
X114179Y27209D01*
X114157Y27244D01*
X114142Y27281D01*
X114072Y27377D01*
X114009Y27478D01*
X113979Y27506D01*
X113955Y27539D01*
X113864Y27614D01*
X113777Y27696D01*
X113742Y27716D01*
X113710Y27741D01*
X113603Y27792D01*
X113498Y27850D01*
X113459Y27860D01*
X113423Y27877D01*
X113306Y27899D01*
X113191Y27929D01*
X113130Y27933D01*
X113110Y27937D01*
X113090Y27935D01*
X113030Y27939D01*
X100964Y27939D01*
X100964Y30924D01*
X104068Y34028D01*
X104153Y34137D01*
X104242Y34244D01*
X104250Y34263D01*
X104263Y34279D01*
X104318Y34407D01*
X104377Y34532D01*
X104381Y34552D01*
X104389Y34571D01*
X104411Y34709D01*
X104437Y34845D01*
X104436Y34865D01*
X104439Y34885D01*
X104426Y35024D01*
X104417Y35162D01*
X104411Y35181D01*
X104409Y35201D01*
X104362Y35333D01*
X104319Y35464D01*
X104309Y35482D01*
X104302Y35501D01*
X104224Y35616D01*
X104149Y35733D01*
X104134Y35747D01*
X104123Y35764D01*
X104019Y35856D01*
X103918Y35951D01*
X103900Y35961D01*
X103885Y35974D01*
X103761Y36038D01*
X103639Y36105D01*
X103620Y36110D01*
X103601Y36119D01*
X103466Y36149D01*
X103331Y36184D01*
X103303Y36186D01*
X103291Y36189D01*
X103271Y36188D01*
X103170Y36194D01*
X61930Y36194D01*
X61792Y36177D01*
X61653Y36164D01*
X61634Y36157D01*
X61614Y36154D01*
X61485Y36103D01*
X61354Y36056D01*
X61337Y36045D01*
X61318Y36037D01*
X61206Y35956D01*
X61091Y35878D01*
X61077Y35862D01*
X61061Y35851D01*
X60972Y35743D01*
X60880Y35639D01*
X60871Y35621D01*
X60858Y35606D01*
X60799Y35480D01*
X60736Y35356D01*
X60731Y35336D01*
X60723Y35318D01*
X60697Y35182D01*
X60666Y35046D01*
X60667Y35025D01*
X60663Y35006D01*
X60671Y34867D01*
X60676Y34728D01*
X60681Y34708D01*
X60683Y34688D01*
X60725Y34556D01*
X60764Y34422D01*
X60774Y34405D01*
X60781Y34386D01*
X60855Y34268D01*
X60926Y34148D01*
X60944Y34127D01*
X60951Y34117D01*
X60966Y34103D01*
X61032Y34028D01*
X64136Y30924D01*
X64136Y27939D01*
X52070Y27939D01*
X51952Y27924D01*
X51833Y27917D01*
X51795Y27904D01*
X51755Y27899D01*
X51644Y27856D01*
X51531Y27819D01*
X51497Y27797D01*
X51459Y27782D01*
X51363Y27712D01*
X51262Y27649D01*
X51234Y27619D01*
X51202Y27595D01*
X51126Y27504D01*
X51044Y27417D01*
X51025Y27382D01*
X50999Y27351D01*
X50948Y27243D01*
X50891Y27139D01*
X50880Y27099D01*
X50863Y27063D01*
X50841Y26946D01*
X50811Y26831D01*
X50807Y26770D01*
X50803Y26750D01*
X50804Y26744D01*
X50803Y26742D01*
X50804Y26726D01*
X50801Y26670D01*
X50801Y24130D01*
X50816Y24012D01*
X50823Y23893D01*
X50836Y23855D01*
X50841Y23814D01*
X50885Y23704D01*
X50921Y23591D01*
X50943Y23556D01*
X50958Y23519D01*
X51028Y23423D01*
X51091Y23322D01*
X51121Y23294D01*
X51145Y23261D01*
X51236Y23186D01*
X51323Y23104D01*
X51358Y23084D01*
X51390Y23059D01*
X51497Y23008D01*
X51602Y22950D01*
X51641Y22940D01*
X51677Y22923D01*
X51794Y22901D01*
X51909Y22871D01*
X51970Y22867D01*
X51990Y22863D01*
X52010Y22865D01*
X52070Y22861D01*
X64136Y22861D01*
X64136Y19876D01*
X57857Y13597D01*
X57772Y13488D01*
X57683Y13381D01*
X57675Y13362D01*
X57662Y13346D01*
X57607Y13218D01*
X57548Y13093D01*
X57544Y13073D01*
X57536Y13054D01*
X57514Y12916D01*
X57488Y12780D01*
X57489Y12760D01*
X57486Y12740D01*
X57499Y12601D01*
X57508Y12463D01*
X57514Y12444D01*
X57516Y12424D01*
X57563Y12292D01*
X57606Y12161D01*
X57616Y12143D01*
X57623Y12124D01*
X57701Y12009D01*
X57776Y11892D01*
X57791Y11878D01*
X57802Y11861D01*
X57906Y11769D01*
X58007Y11674D01*
X58025Y11664D01*
X58040Y11651D01*
X58164Y11587D01*
X58286Y11520D01*
X58305Y11515D01*
X58324Y11506D01*
X58459Y11476D01*
X58594Y11441D01*
X58622Y11439D01*
X58634Y11436D01*
X58654Y11437D01*
X58755Y11431D01*
X106345Y11431D01*
X106483Y11448D01*
G37*
G36*
X166084Y144031D02*
X166084Y144031D01*
X166183Y144034D01*
X166241Y144051D01*
X166301Y144059D01*
X166393Y144095D01*
X166488Y144123D01*
X166540Y144153D01*
X166597Y144176D01*
X166677Y144234D01*
X166762Y144284D01*
X166837Y144350D01*
X166854Y144362D01*
X166862Y144372D01*
X166883Y144390D01*
X171080Y148587D01*
X171140Y148665D01*
X171208Y148737D01*
X171237Y148790D01*
X171274Y148838D01*
X171314Y148929D01*
X171362Y149016D01*
X171377Y149075D01*
X171401Y149130D01*
X171416Y149228D01*
X171441Y149324D01*
X171447Y149424D01*
X171451Y149444D01*
X171449Y149457D01*
X171451Y149485D01*
X171451Y161163D01*
X173237Y162949D01*
X188763Y162949D01*
X189962Y161750D01*
X190056Y161677D01*
X190145Y161598D01*
X190181Y161580D01*
X190213Y161555D01*
X190322Y161508D01*
X190428Y161453D01*
X190468Y161445D01*
X190505Y161429D01*
X190623Y161410D01*
X190739Y161384D01*
X190779Y161385D01*
X190819Y161379D01*
X190938Y161390D01*
X191057Y161394D01*
X191095Y161405D01*
X191136Y161409D01*
X191248Y161449D01*
X191362Y161482D01*
X191397Y161502D01*
X191435Y161516D01*
X191533Y161583D01*
X191636Y161643D01*
X191681Y161683D01*
X191698Y161695D01*
X191712Y161710D01*
X191757Y161750D01*
X191940Y161933D01*
X192519Y162268D01*
X193166Y162441D01*
X197461Y162441D01*
X197461Y153670D01*
X197476Y153552D01*
X197483Y153433D01*
X197496Y153395D01*
X197501Y153355D01*
X197544Y153244D01*
X197581Y153131D01*
X197603Y153096D01*
X197618Y153059D01*
X197688Y152963D01*
X197751Y152862D01*
X197781Y152834D01*
X197805Y152802D01*
X197896Y152726D01*
X197983Y152644D01*
X198018Y152625D01*
X198049Y152599D01*
X198157Y152548D01*
X198261Y152491D01*
X198301Y152480D01*
X198337Y152463D01*
X198454Y152441D01*
X198569Y152411D01*
X198630Y152407D01*
X198650Y152403D01*
X198670Y152405D01*
X198730Y152401D01*
X201270Y152401D01*
X201388Y152416D01*
X201507Y152423D01*
X201545Y152436D01*
X201585Y152441D01*
X201696Y152485D01*
X201809Y152521D01*
X201844Y152543D01*
X201881Y152558D01*
X201977Y152628D01*
X202078Y152691D01*
X202106Y152721D01*
X202138Y152745D01*
X202214Y152836D01*
X202296Y152923D01*
X202315Y152958D01*
X202341Y152990D01*
X202392Y153097D01*
X202449Y153201D01*
X202460Y153241D01*
X202477Y153277D01*
X202499Y153394D01*
X202529Y153509D01*
X202533Y153570D01*
X202537Y153590D01*
X202535Y153610D01*
X202539Y153670D01*
X202539Y162441D01*
X206834Y162441D01*
X207481Y162268D01*
X208060Y161933D01*
X208533Y161460D01*
X208777Y161038D01*
X208853Y160938D01*
X208923Y160834D01*
X208949Y160811D01*
X208969Y160785D01*
X209068Y160707D01*
X209162Y160623D01*
X209192Y160608D01*
X209218Y160587D01*
X209333Y160536D01*
X209445Y160479D01*
X209478Y160471D01*
X209509Y160458D01*
X209633Y160437D01*
X209755Y160409D01*
X209789Y160410D01*
X209822Y160404D01*
X209948Y160415D01*
X210073Y160419D01*
X210106Y160428D01*
X210139Y160431D01*
X210258Y160472D01*
X210379Y160507D01*
X210408Y160524D01*
X210440Y160535D01*
X210545Y160605D01*
X210653Y160669D01*
X210689Y160701D01*
X210705Y160711D01*
X210719Y160727D01*
X210773Y160775D01*
X212841Y162843D01*
X230316Y162843D01*
X230414Y162855D01*
X230513Y162858D01*
X230571Y162875D01*
X230631Y162883D01*
X230724Y162919D01*
X230819Y162947D01*
X230871Y162977D01*
X230927Y163000D01*
X231007Y163058D01*
X231093Y163108D01*
X231168Y163174D01*
X231184Y163186D01*
X231192Y163196D01*
X231213Y163214D01*
X233083Y165085D01*
X233169Y165194D01*
X233257Y165301D01*
X233266Y165320D01*
X233278Y165336D01*
X233334Y165464D01*
X233393Y165589D01*
X233397Y165609D01*
X233405Y165628D01*
X233427Y165766D01*
X233453Y165902D01*
X233451Y165922D01*
X233455Y165942D01*
X233442Y166081D01*
X233433Y166219D01*
X233427Y166238D01*
X233425Y166258D01*
X233378Y166390D01*
X233335Y166521D01*
X233324Y166539D01*
X233317Y166558D01*
X233240Y166672D01*
X233165Y166790D01*
X233150Y166804D01*
X233139Y166821D01*
X233034Y166913D01*
X232933Y167008D01*
X232915Y167018D01*
X232900Y167031D01*
X232776Y167095D01*
X232655Y167162D01*
X232635Y167167D01*
X232617Y167176D01*
X232481Y167206D01*
X232347Y167241D01*
X232319Y167243D01*
X232307Y167246D01*
X232286Y167245D01*
X232186Y167251D01*
X224037Y167251D01*
X222251Y169037D01*
X222251Y172212D01*
X222236Y172330D01*
X222229Y172449D01*
X222216Y172487D01*
X222211Y172528D01*
X222168Y172638D01*
X222131Y172751D01*
X222109Y172786D01*
X222094Y172823D01*
X222025Y172919D01*
X221961Y173020D01*
X221931Y173048D01*
X221908Y173081D01*
X221816Y173157D01*
X221729Y173238D01*
X221694Y173258D01*
X221663Y173283D01*
X221555Y173334D01*
X221451Y173392D01*
X221411Y173402D01*
X221375Y173419D01*
X221258Y173441D01*
X221143Y173471D01*
X221083Y173475D01*
X221063Y173479D01*
X221042Y173477D01*
X220982Y173481D01*
X210818Y173481D01*
X210700Y173466D01*
X210581Y173459D01*
X210543Y173446D01*
X210502Y173441D01*
X210392Y173398D01*
X210279Y173361D01*
X210244Y173339D01*
X210207Y173324D01*
X210111Y173255D01*
X210010Y173191D01*
X209982Y173161D01*
X209949Y173138D01*
X209873Y173046D01*
X209792Y172959D01*
X209772Y172924D01*
X209747Y172893D01*
X209696Y172785D01*
X209638Y172681D01*
X209628Y172641D01*
X209611Y172605D01*
X209589Y172488D01*
X209559Y172373D01*
X209555Y172313D01*
X209551Y172293D01*
X209553Y172272D01*
X209549Y172212D01*
X209549Y169037D01*
X207763Y167251D01*
X192237Y167251D01*
X191397Y168091D01*
X191303Y168164D01*
X191214Y168243D01*
X191178Y168261D01*
X191146Y168286D01*
X191037Y168333D01*
X190931Y168387D01*
X190892Y168396D01*
X190854Y168412D01*
X190737Y168431D01*
X190621Y168457D01*
X190580Y168456D01*
X190540Y168462D01*
X190422Y168451D01*
X190303Y168447D01*
X190264Y168436D01*
X190224Y168432D01*
X190112Y168392D01*
X189997Y168359D01*
X189962Y168338D01*
X189924Y168325D01*
X189826Y168258D01*
X189723Y168197D01*
X189678Y168158D01*
X189661Y168146D01*
X189648Y168131D01*
X189602Y168091D01*
X188763Y167251D01*
X173237Y167251D01*
X171451Y169037D01*
X171451Y172212D01*
X171436Y172330D01*
X171429Y172449D01*
X171416Y172487D01*
X171411Y172528D01*
X171368Y172638D01*
X171331Y172751D01*
X171309Y172786D01*
X171294Y172823D01*
X171225Y172919D01*
X171161Y173020D01*
X171131Y173048D01*
X171108Y173081D01*
X171016Y173157D01*
X170929Y173238D01*
X170894Y173258D01*
X170863Y173283D01*
X170755Y173334D01*
X170651Y173392D01*
X170611Y173402D01*
X170575Y173419D01*
X170458Y173441D01*
X170343Y173471D01*
X170283Y173475D01*
X170263Y173479D01*
X170242Y173477D01*
X170182Y173481D01*
X160018Y173481D01*
X159900Y173466D01*
X159781Y173459D01*
X159743Y173446D01*
X159702Y173441D01*
X159592Y173398D01*
X159479Y173361D01*
X159444Y173339D01*
X159407Y173324D01*
X159311Y173255D01*
X159210Y173191D01*
X159182Y173161D01*
X159149Y173138D01*
X159073Y173046D01*
X158992Y172959D01*
X158972Y172924D01*
X158947Y172893D01*
X158896Y172785D01*
X158838Y172681D01*
X158828Y172641D01*
X158811Y172605D01*
X158789Y172488D01*
X158759Y172373D01*
X158755Y172313D01*
X158751Y172293D01*
X158753Y172272D01*
X158749Y172212D01*
X158749Y169037D01*
X156963Y167251D01*
X154788Y167251D01*
X154670Y167236D01*
X154551Y167229D01*
X154513Y167216D01*
X154472Y167211D01*
X154362Y167168D01*
X154249Y167131D01*
X154214Y167109D01*
X154177Y167094D01*
X154081Y167025D01*
X153980Y166961D01*
X153952Y166931D01*
X153919Y166908D01*
X153843Y166816D01*
X153762Y166729D01*
X153742Y166694D01*
X153717Y166663D01*
X153666Y166555D01*
X153608Y166451D01*
X153598Y166411D01*
X153581Y166375D01*
X153559Y166258D01*
X153529Y166143D01*
X153525Y166083D01*
X153521Y166063D01*
X153523Y166042D01*
X153519Y165982D01*
X153519Y164218D01*
X153534Y164100D01*
X153541Y163981D01*
X153554Y163943D01*
X153559Y163902D01*
X153602Y163792D01*
X153639Y163679D01*
X153661Y163644D01*
X153676Y163607D01*
X153745Y163511D01*
X153809Y163410D01*
X153839Y163382D01*
X153862Y163349D01*
X153954Y163273D01*
X154041Y163192D01*
X154076Y163172D01*
X154107Y163147D01*
X154215Y163096D01*
X154319Y163038D01*
X154359Y163028D01*
X154395Y163011D01*
X154512Y162989D01*
X154627Y162959D01*
X154687Y162955D01*
X154707Y162951D01*
X154728Y162953D01*
X154788Y162949D01*
X156963Y162949D01*
X158749Y161163D01*
X158749Y145288D01*
X158764Y145170D01*
X158771Y145051D01*
X158784Y145013D01*
X158789Y144972D01*
X158832Y144862D01*
X158869Y144749D01*
X158891Y144714D01*
X158906Y144677D01*
X158976Y144580D01*
X159039Y144480D01*
X159069Y144452D01*
X159092Y144419D01*
X159184Y144343D01*
X159271Y144262D01*
X159306Y144242D01*
X159337Y144217D01*
X159445Y144166D01*
X159549Y144108D01*
X159589Y144098D01*
X159625Y144081D01*
X159742Y144059D01*
X159857Y144029D01*
X159917Y144025D01*
X159937Y144021D01*
X159958Y144023D01*
X160018Y144019D01*
X165985Y144019D01*
X166084Y144031D01*
G37*
G36*
X38178Y187149D02*
X38178Y187149D01*
X38297Y187153D01*
X38336Y187164D01*
X38376Y187168D01*
X38488Y187208D01*
X38603Y187241D01*
X38638Y187262D01*
X38676Y187275D01*
X38774Y187342D01*
X38877Y187403D01*
X38922Y187442D01*
X38939Y187454D01*
X38952Y187469D01*
X38998Y187509D01*
X39837Y188349D01*
X55363Y188349D01*
X56027Y187685D01*
X56136Y187600D01*
X56243Y187511D01*
X56262Y187502D01*
X56278Y187490D01*
X56405Y187435D01*
X56531Y187376D01*
X56551Y187372D01*
X56570Y187364D01*
X56708Y187342D01*
X56844Y187316D01*
X56864Y187317D01*
X56884Y187314D01*
X57023Y187327D01*
X57161Y187336D01*
X57180Y187342D01*
X57200Y187344D01*
X57332Y187391D01*
X57463Y187434D01*
X57481Y187444D01*
X57500Y187451D01*
X57615Y187529D01*
X57732Y187604D01*
X57746Y187619D01*
X57763Y187630D01*
X57855Y187734D01*
X57950Y187835D01*
X57960Y187853D01*
X57973Y187868D01*
X58036Y187992D01*
X58104Y188114D01*
X58109Y188133D01*
X58118Y188152D01*
X58148Y188287D01*
X58183Y188422D01*
X58185Y188450D01*
X58188Y188462D01*
X58187Y188482D01*
X58193Y188583D01*
X58193Y190286D01*
X59085Y192438D01*
X59087Y192447D01*
X59092Y192455D01*
X59107Y192516D01*
X59119Y192541D01*
X59133Y192615D01*
X59169Y192744D01*
X59169Y192754D01*
X59171Y192763D01*
X59176Y192838D01*
X59179Y192853D01*
X59178Y192868D01*
X59181Y192923D01*
X59181Y197685D01*
X59169Y197784D01*
X59166Y197883D01*
X59149Y197941D01*
X59141Y198001D01*
X59105Y198093D01*
X59077Y198188D01*
X59047Y198240D01*
X59024Y198297D01*
X58966Y198377D01*
X58916Y198462D01*
X58850Y198537D01*
X58838Y198554D01*
X58828Y198562D01*
X58810Y198583D01*
X52413Y204980D01*
X52335Y205040D01*
X52262Y205108D01*
X52209Y205137D01*
X52162Y205174D01*
X52071Y205214D01*
X51984Y205262D01*
X51925Y205277D01*
X51870Y205301D01*
X51772Y205316D01*
X51676Y205341D01*
X51576Y205347D01*
X51556Y205351D01*
X51543Y205349D01*
X51515Y205351D01*
X39837Y205351D01*
X38997Y206191D01*
X38903Y206264D01*
X38814Y206343D01*
X38778Y206361D01*
X38746Y206386D01*
X38637Y206433D01*
X38531Y206487D01*
X38492Y206496D01*
X38454Y206512D01*
X38337Y206531D01*
X38221Y206557D01*
X38180Y206556D01*
X38140Y206562D01*
X38022Y206551D01*
X37903Y206547D01*
X37864Y206536D01*
X37824Y206532D01*
X37712Y206492D01*
X37597Y206459D01*
X37562Y206438D01*
X37524Y206425D01*
X37426Y206358D01*
X37323Y206297D01*
X37278Y206258D01*
X37261Y206246D01*
X37248Y206231D01*
X37202Y206191D01*
X36363Y205351D01*
X34188Y205351D01*
X34070Y205336D01*
X33951Y205329D01*
X33913Y205316D01*
X33872Y205311D01*
X33762Y205268D01*
X33649Y205231D01*
X33614Y205209D01*
X33577Y205194D01*
X33481Y205125D01*
X33380Y205061D01*
X33352Y205031D01*
X33319Y205008D01*
X33243Y204916D01*
X33162Y204829D01*
X33142Y204794D01*
X33117Y204763D01*
X33066Y204655D01*
X33008Y204551D01*
X32998Y204511D01*
X32981Y204475D01*
X32959Y204358D01*
X32929Y204243D01*
X32925Y204183D01*
X32921Y204163D01*
X32923Y204142D01*
X32919Y204082D01*
X32919Y189618D01*
X32934Y189500D01*
X32941Y189381D01*
X32954Y189343D01*
X32959Y189302D01*
X33002Y189192D01*
X33039Y189079D01*
X33061Y189044D01*
X33076Y189007D01*
X33145Y188911D01*
X33209Y188810D01*
X33239Y188782D01*
X33262Y188749D01*
X33354Y188673D01*
X33441Y188592D01*
X33476Y188572D01*
X33507Y188547D01*
X33615Y188496D01*
X33719Y188438D01*
X33759Y188428D01*
X33795Y188411D01*
X33912Y188389D01*
X34027Y188359D01*
X34087Y188355D01*
X34107Y188351D01*
X34128Y188353D01*
X34188Y188349D01*
X36363Y188349D01*
X37203Y187509D01*
X37297Y187436D01*
X37386Y187357D01*
X37422Y187339D01*
X37454Y187314D01*
X37563Y187267D01*
X37669Y187213D01*
X37708Y187204D01*
X37746Y187188D01*
X37863Y187169D01*
X37979Y187143D01*
X38020Y187144D01*
X38060Y187138D01*
X38178Y187149D01*
G37*
%LPC*%
G36*
X87844Y58193D02*
X87844Y58193D01*
X85894Y59001D01*
X84401Y60494D01*
X83593Y62444D01*
X83593Y64556D01*
X84485Y66708D01*
X84487Y66717D01*
X84492Y66725D01*
X84529Y66870D01*
X84569Y67014D01*
X84569Y67024D01*
X84571Y67033D01*
X84581Y67193D01*
X84581Y85207D01*
X84580Y85216D01*
X84581Y85225D01*
X84560Y85374D01*
X84541Y85522D01*
X84538Y85531D01*
X84537Y85540D01*
X84485Y85692D01*
X83593Y87844D01*
X83593Y89956D01*
X84401Y91906D01*
X85894Y93399D01*
X87844Y94207D01*
X89956Y94207D01*
X91906Y93399D01*
X93399Y91906D01*
X94207Y89956D01*
X94207Y87844D01*
X93315Y85692D01*
X93313Y85683D01*
X93308Y85675D01*
X93271Y85530D01*
X93231Y85386D01*
X93231Y85376D01*
X93229Y85367D01*
X93219Y85207D01*
X93219Y67193D01*
X93220Y67184D01*
X93219Y67175D01*
X93240Y67026D01*
X93259Y66878D01*
X93262Y66869D01*
X93263Y66860D01*
X93315Y66708D01*
X94207Y64556D01*
X94207Y62444D01*
X93399Y60494D01*
X91906Y59001D01*
X89956Y58193D01*
X87844Y58193D01*
G37*
%LPD*%
G36*
X141351Y11448D02*
X141351Y11448D01*
X141490Y11461D01*
X141509Y11468D01*
X141529Y11471D01*
X141658Y11522D01*
X141789Y11569D01*
X141806Y11580D01*
X141825Y11588D01*
X141937Y11669D01*
X142052Y11747D01*
X142066Y11763D01*
X142082Y11774D01*
X142171Y11882D01*
X142263Y11986D01*
X142272Y12004D01*
X142285Y12019D01*
X142344Y12145D01*
X142407Y12269D01*
X142412Y12289D01*
X142420Y12307D01*
X142446Y12443D01*
X142477Y12579D01*
X142476Y12600D01*
X142480Y12619D01*
X142472Y12758D01*
X142467Y12897D01*
X142462Y12917D01*
X142460Y12937D01*
X142418Y13069D01*
X142379Y13203D01*
X142369Y13220D01*
X142362Y13239D01*
X142288Y13357D01*
X142217Y13477D01*
X142199Y13498D01*
X142192Y13508D01*
X142177Y13522D01*
X142111Y13597D01*
X140461Y15247D01*
X140461Y18542D01*
X140446Y18660D01*
X140439Y18779D01*
X140426Y18817D01*
X140421Y18858D01*
X140378Y18968D01*
X140341Y19081D01*
X140319Y19116D01*
X140304Y19153D01*
X140235Y19249D01*
X140171Y19350D01*
X140141Y19378D01*
X140118Y19411D01*
X140026Y19487D01*
X139939Y19568D01*
X139904Y19588D01*
X139873Y19613D01*
X139765Y19664D01*
X139661Y19722D01*
X139621Y19732D01*
X139585Y19749D01*
X139468Y19771D01*
X139353Y19801D01*
X139293Y19805D01*
X139273Y19809D01*
X139252Y19807D01*
X139192Y19811D01*
X136357Y19811D01*
X134303Y20662D01*
X127398Y27567D01*
X127320Y27628D01*
X127248Y27696D01*
X127195Y27725D01*
X127147Y27762D01*
X127056Y27802D01*
X126969Y27850D01*
X126911Y27865D01*
X126855Y27889D01*
X126757Y27904D01*
X126661Y27929D01*
X126561Y27935D01*
X126541Y27939D01*
X126528Y27937D01*
X126500Y27939D01*
X115570Y27939D01*
X115452Y27924D01*
X115333Y27917D01*
X115295Y27904D01*
X115255Y27899D01*
X115144Y27856D01*
X115031Y27819D01*
X114997Y27797D01*
X114959Y27782D01*
X114863Y27712D01*
X114762Y27649D01*
X114734Y27619D01*
X114702Y27595D01*
X114626Y27504D01*
X114544Y27417D01*
X114525Y27382D01*
X114499Y27351D01*
X114448Y27243D01*
X114391Y27139D01*
X114380Y27099D01*
X114363Y27063D01*
X114341Y26946D01*
X114311Y26831D01*
X114307Y26770D01*
X114303Y26750D01*
X114304Y26744D01*
X114303Y26742D01*
X114304Y26726D01*
X114301Y26670D01*
X114301Y24130D01*
X114316Y24012D01*
X114323Y23893D01*
X114336Y23855D01*
X114341Y23814D01*
X114385Y23704D01*
X114421Y23591D01*
X114443Y23556D01*
X114458Y23519D01*
X114528Y23423D01*
X114591Y23322D01*
X114621Y23294D01*
X114645Y23261D01*
X114736Y23186D01*
X114823Y23104D01*
X114858Y23084D01*
X114890Y23059D01*
X114997Y23008D01*
X115102Y22950D01*
X115141Y22940D01*
X115177Y22923D01*
X115294Y22901D01*
X115409Y22871D01*
X115470Y22867D01*
X115490Y22863D01*
X115510Y22865D01*
X115570Y22861D01*
X127636Y22861D01*
X127636Y19876D01*
X121357Y13597D01*
X121272Y13488D01*
X121183Y13381D01*
X121175Y13362D01*
X121162Y13346D01*
X121107Y13218D01*
X121048Y13093D01*
X121044Y13073D01*
X121036Y13054D01*
X121014Y12916D01*
X120988Y12780D01*
X120989Y12760D01*
X120986Y12740D01*
X120999Y12601D01*
X121008Y12463D01*
X121014Y12444D01*
X121016Y12424D01*
X121063Y12292D01*
X121106Y12161D01*
X121116Y12143D01*
X121123Y12124D01*
X121201Y12009D01*
X121276Y11892D01*
X121291Y11878D01*
X121302Y11861D01*
X121406Y11769D01*
X121507Y11674D01*
X121525Y11664D01*
X121540Y11651D01*
X121664Y11587D01*
X121786Y11520D01*
X121805Y11515D01*
X121824Y11506D01*
X121959Y11476D01*
X122094Y11441D01*
X122122Y11439D01*
X122134Y11436D01*
X122154Y11437D01*
X122255Y11431D01*
X141213Y11431D01*
X141351Y11448D01*
G37*
G36*
X29988Y152416D02*
X29988Y152416D01*
X30107Y152423D01*
X30145Y152436D01*
X30185Y152441D01*
X30296Y152485D01*
X30409Y152521D01*
X30444Y152543D01*
X30481Y152558D01*
X30577Y152628D01*
X30678Y152691D01*
X30706Y152721D01*
X30738Y152745D01*
X30814Y152836D01*
X30896Y152923D01*
X30915Y152958D01*
X30941Y152990D01*
X30992Y153097D01*
X31049Y153201D01*
X31060Y153241D01*
X31077Y153277D01*
X31099Y153394D01*
X31129Y153509D01*
X31133Y153570D01*
X31137Y153590D01*
X31135Y153610D01*
X31139Y153670D01*
X31139Y162441D01*
X35434Y162441D01*
X36081Y162268D01*
X36660Y161933D01*
X36843Y161750D01*
X36937Y161677D01*
X37027Y161598D01*
X37063Y161580D01*
X37095Y161555D01*
X37204Y161508D01*
X37310Y161453D01*
X37349Y161445D01*
X37386Y161429D01*
X37504Y161410D01*
X37620Y161384D01*
X37661Y161385D01*
X37701Y161379D01*
X37819Y161390D01*
X37938Y161393D01*
X37977Y161405D01*
X38017Y161409D01*
X38129Y161449D01*
X38244Y161482D01*
X38278Y161502D01*
X38316Y161516D01*
X38415Y161583D01*
X38517Y161643D01*
X38563Y161683D01*
X38580Y161695D01*
X38593Y161710D01*
X38638Y161750D01*
X39837Y162949D01*
X42012Y162949D01*
X42130Y162964D01*
X42249Y162971D01*
X42287Y162984D01*
X42328Y162989D01*
X42438Y163032D01*
X42551Y163069D01*
X42586Y163091D01*
X42623Y163106D01*
X42719Y163175D01*
X42820Y163239D01*
X42848Y163269D01*
X42881Y163292D01*
X42957Y163384D01*
X43038Y163471D01*
X43058Y163506D01*
X43083Y163537D01*
X43134Y163645D01*
X43192Y163749D01*
X43202Y163789D01*
X43219Y163825D01*
X43241Y163942D01*
X43271Y164057D01*
X43275Y164117D01*
X43279Y164137D01*
X43277Y164158D01*
X43281Y164218D01*
X43281Y165982D01*
X43266Y166100D01*
X43259Y166219D01*
X43246Y166257D01*
X43241Y166298D01*
X43198Y166408D01*
X43161Y166521D01*
X43139Y166556D01*
X43124Y166593D01*
X43055Y166689D01*
X42991Y166790D01*
X42961Y166818D01*
X42938Y166851D01*
X42846Y166927D01*
X42759Y167008D01*
X42724Y167028D01*
X42693Y167053D01*
X42585Y167104D01*
X42481Y167162D01*
X42441Y167172D01*
X42405Y167189D01*
X42288Y167211D01*
X42173Y167241D01*
X42113Y167245D01*
X42093Y167249D01*
X42072Y167247D01*
X42012Y167251D01*
X39837Y167251D01*
X38998Y168091D01*
X38904Y168164D01*
X38814Y168243D01*
X38778Y168261D01*
X38746Y168286D01*
X38637Y168333D01*
X38531Y168387D01*
X38492Y168396D01*
X38454Y168412D01*
X38337Y168431D01*
X38221Y168457D01*
X38180Y168456D01*
X38140Y168462D01*
X38022Y168451D01*
X37903Y168447D01*
X37864Y168436D01*
X37824Y168432D01*
X37711Y168392D01*
X37597Y168359D01*
X37563Y168338D01*
X37524Y168325D01*
X37426Y168258D01*
X37323Y168197D01*
X37278Y168157D01*
X37261Y168146D01*
X37248Y168131D01*
X37203Y168091D01*
X36363Y167251D01*
X20828Y167251D01*
X20710Y167236D01*
X20591Y167229D01*
X20553Y167216D01*
X20512Y167211D01*
X20402Y167168D01*
X20289Y167131D01*
X20254Y167109D01*
X20217Y167094D01*
X20121Y167025D01*
X20020Y166961D01*
X19992Y166931D01*
X19959Y166908D01*
X19883Y166816D01*
X19802Y166729D01*
X19782Y166694D01*
X19757Y166663D01*
X19706Y166555D01*
X19648Y166451D01*
X19638Y166411D01*
X19621Y166375D01*
X19599Y166258D01*
X19569Y166143D01*
X19565Y166083D01*
X19561Y166063D01*
X19563Y166042D01*
X19559Y165982D01*
X19559Y163504D01*
X19575Y163379D01*
X19584Y163253D01*
X19594Y163221D01*
X19599Y163188D01*
X19645Y163071D01*
X19685Y162952D01*
X19703Y162924D01*
X19716Y162892D01*
X19789Y162791D01*
X19858Y162685D01*
X19883Y162662D01*
X19902Y162635D01*
X19999Y162555D01*
X20092Y162470D01*
X20121Y162454D01*
X20147Y162432D01*
X20261Y162379D01*
X20372Y162319D01*
X20405Y162311D01*
X20435Y162297D01*
X20558Y162273D01*
X20681Y162243D01*
X20714Y162243D01*
X20747Y162237D01*
X20873Y162245D01*
X20999Y162246D01*
X21047Y162255D01*
X21065Y162257D01*
X21085Y162263D01*
X21157Y162278D01*
X21766Y162441D01*
X26061Y162441D01*
X26061Y153670D01*
X26076Y153552D01*
X26083Y153433D01*
X26096Y153395D01*
X26101Y153355D01*
X26144Y153244D01*
X26181Y153131D01*
X26203Y153096D01*
X26218Y153059D01*
X26288Y152963D01*
X26351Y152862D01*
X26381Y152834D01*
X26405Y152802D01*
X26496Y152726D01*
X26583Y152644D01*
X26618Y152625D01*
X26649Y152599D01*
X26757Y152548D01*
X26861Y152491D01*
X26901Y152480D01*
X26937Y152463D01*
X27054Y152441D01*
X27169Y152411D01*
X27230Y152407D01*
X27250Y152403D01*
X27270Y152405D01*
X27330Y152401D01*
X29870Y152401D01*
X29988Y152416D01*
G37*
%LPC*%
G36*
X200659Y66039D02*
X200659Y66039D01*
X200659Y76534D01*
X200832Y77181D01*
X201167Y77760D01*
X201640Y78233D01*
X202219Y78568D01*
X202866Y78741D01*
X213361Y78741D01*
X213361Y66039D01*
X200659Y66039D01*
G37*
%LPD*%
%LPC*%
G36*
X218439Y48259D02*
X218439Y48259D01*
X218439Y60961D01*
X231141Y60961D01*
X231141Y50466D01*
X230968Y49819D01*
X230633Y49240D01*
X230160Y48767D01*
X229581Y48432D01*
X228934Y48259D01*
X218439Y48259D01*
G37*
%LPD*%
%LPC*%
G36*
X202866Y48259D02*
X202866Y48259D01*
X202219Y48432D01*
X201640Y48767D01*
X201167Y49240D01*
X200832Y49819D01*
X200659Y50466D01*
X200659Y60961D01*
X213361Y60961D01*
X213361Y48259D01*
X202866Y48259D01*
G37*
%LPD*%
%LPC*%
G36*
X205699Y408899D02*
X205699Y408899D01*
X205699Y418701D01*
X206137Y418632D01*
X208014Y418022D01*
X209773Y417126D01*
X211370Y415966D01*
X212766Y414570D01*
X213926Y412973D01*
X213939Y412948D01*
X214014Y412837D01*
X214117Y412685D01*
X214266Y412554D01*
X214355Y412475D01*
X214356Y412474D01*
X214527Y412387D01*
X214639Y412330D01*
X214815Y412291D01*
X214949Y412260D01*
X215113Y412265D01*
X215267Y412270D01*
X215445Y412322D01*
X215572Y412359D01*
X215573Y412359D01*
X215744Y412460D01*
X215846Y412520D01*
X215847Y412520D01*
X215847Y412521D01*
X215967Y412626D01*
X223076Y419736D01*
X226061Y419736D01*
X226061Y408939D01*
X216981Y408939D01*
X216921Y408932D01*
X216862Y408934D01*
X216764Y408912D01*
X216665Y408899D01*
X205699Y408899D01*
G37*
%LPD*%
%LPC*%
G36*
X223076Y393064D02*
X223076Y393064D01*
X215967Y400174D01*
X215827Y400282D01*
X215716Y400368D01*
X215563Y400434D01*
X215424Y400495D01*
X215263Y400520D01*
X215110Y400545D01*
X214937Y400528D01*
X214794Y400515D01*
X214793Y400515D01*
X214656Y400465D01*
X214494Y400408D01*
X214494Y400407D01*
X214351Y400310D01*
X214231Y400229D01*
X214086Y400064D01*
X214021Y399991D01*
X214020Y399990D01*
X214020Y399989D01*
X213939Y399852D01*
X213926Y399827D01*
X212766Y398230D01*
X211370Y396834D01*
X209773Y395674D01*
X208014Y394778D01*
X206137Y394168D01*
X205699Y394099D01*
X205699Y403901D01*
X216678Y403901D01*
X216703Y403892D01*
X216762Y403886D01*
X216820Y403871D01*
X216981Y403861D01*
X226061Y403861D01*
X226061Y393064D01*
X223076Y393064D01*
G37*
%LPD*%
%LPC*%
G36*
X197484Y262000D02*
X197484Y262000D01*
X197484Y271400D01*
X208535Y271400D01*
X208535Y269414D01*
X208362Y268767D01*
X208027Y268188D01*
X207437Y267598D01*
X207364Y267504D01*
X207285Y267414D01*
X207266Y267378D01*
X207242Y267346D01*
X207194Y267237D01*
X207140Y267131D01*
X207131Y267092D01*
X207115Y267054D01*
X207097Y266937D01*
X207071Y266821D01*
X207072Y266780D01*
X207065Y266740D01*
X207077Y266622D01*
X207080Y266503D01*
X207092Y266464D01*
X207095Y266424D01*
X207136Y266312D01*
X207169Y266197D01*
X207189Y266162D01*
X207203Y266124D01*
X207270Y266026D01*
X207330Y265923D01*
X207370Y265878D01*
X207381Y265861D01*
X207397Y265848D01*
X207437Y265803D01*
X208027Y265212D01*
X208362Y264633D01*
X208535Y263986D01*
X208535Y262000D01*
X197484Y262000D01*
G37*
%LPD*%
%LPC*%
G36*
X183133Y262000D02*
X183133Y262000D01*
X183133Y263986D01*
X183306Y264633D01*
X183641Y265212D01*
X184231Y265803D01*
X184304Y265897D01*
X184383Y265986D01*
X184401Y266022D01*
X184426Y266054D01*
X184474Y266163D01*
X184528Y266269D01*
X184537Y266308D01*
X184553Y266346D01*
X184571Y266463D01*
X184597Y266579D01*
X184596Y266620D01*
X184603Y266660D01*
X184591Y266778D01*
X184588Y266897D01*
X184576Y266936D01*
X184573Y266976D01*
X184532Y267088D01*
X184499Y267203D01*
X184479Y267238D01*
X184465Y267276D01*
X184398Y267374D01*
X184338Y267477D01*
X184298Y267522D01*
X184287Y267539D01*
X184271Y267552D01*
X184231Y267598D01*
X183641Y268188D01*
X183306Y268767D01*
X183133Y269414D01*
X183133Y271400D01*
X194184Y271400D01*
X194184Y262000D01*
X183133Y262000D01*
G37*
%LPD*%
%LPC*%
G36*
X266064Y27939D02*
X266064Y27939D01*
X266064Y30924D01*
X273876Y38736D01*
X276861Y38736D01*
X276861Y27939D01*
X266064Y27939D01*
G37*
%LPD*%
%LPC*%
G36*
X190899Y408899D02*
X190899Y408899D01*
X190968Y409337D01*
X191578Y411214D01*
X192474Y412973D01*
X193634Y414570D01*
X195030Y415966D01*
X196627Y417126D01*
X198386Y418022D01*
X200263Y418632D01*
X200701Y418701D01*
X200701Y408899D01*
X190899Y408899D01*
G37*
%LPD*%
%LPC*%
G36*
X200263Y394168D02*
X200263Y394168D01*
X198386Y394778D01*
X196627Y395674D01*
X195030Y396834D01*
X193634Y398230D01*
X192474Y399827D01*
X191578Y401586D01*
X190968Y403463D01*
X190899Y403901D01*
X200701Y403901D01*
X200701Y394099D01*
X200263Y394168D01*
G37*
%LPD*%
%LPC*%
G36*
X27431Y357631D02*
X27431Y357631D01*
X27431Y366142D01*
X29767Y366142D01*
X35942Y359967D01*
X35942Y357631D01*
X27431Y357631D01*
G37*
%LPD*%
%LPC*%
G36*
X306831Y357631D02*
X306831Y357631D01*
X306831Y366142D01*
X309167Y366142D01*
X315342Y359967D01*
X315342Y357631D01*
X306831Y357631D01*
G37*
%LPD*%
%LPC*%
G36*
X27431Y294131D02*
X27431Y294131D01*
X27431Y302642D01*
X29767Y302642D01*
X35942Y296467D01*
X35942Y294131D01*
X27431Y294131D01*
G37*
%LPD*%
%LPC*%
G36*
X14858Y357631D02*
X14858Y357631D01*
X14858Y359967D01*
X21033Y366142D01*
X23369Y366142D01*
X23369Y357631D01*
X14858Y357631D01*
G37*
%LPD*%
%LPC*%
G36*
X294258Y357631D02*
X294258Y357631D01*
X294258Y359967D01*
X300433Y366142D01*
X302769Y366142D01*
X302769Y357631D01*
X294258Y357631D01*
G37*
%LPD*%
%LPC*%
G36*
X306831Y345058D02*
X306831Y345058D01*
X306831Y353569D01*
X315342Y353569D01*
X315342Y351233D01*
X309167Y345058D01*
X306831Y345058D01*
G37*
%LPD*%
%LPC*%
G36*
X14858Y294131D02*
X14858Y294131D01*
X14858Y296467D01*
X21033Y302642D01*
X23369Y302642D01*
X23369Y294131D01*
X14858Y294131D01*
G37*
%LPD*%
%LPC*%
G36*
X27431Y345058D02*
X27431Y345058D01*
X27431Y353569D01*
X35942Y353569D01*
X35942Y351233D01*
X29767Y345058D01*
X27431Y345058D01*
G37*
%LPD*%
%LPC*%
G36*
X21033Y345058D02*
X21033Y345058D01*
X14858Y351233D01*
X14858Y353569D01*
X23369Y353569D01*
X23369Y345058D01*
X21033Y345058D01*
G37*
%LPD*%
%LPC*%
G36*
X300433Y345058D02*
X300433Y345058D01*
X294258Y351233D01*
X294258Y353569D01*
X302769Y353569D01*
X302769Y345058D01*
X300433Y345058D01*
G37*
%LPD*%
%LPC*%
G36*
X304139Y78739D02*
X304139Y78739D01*
X304139Y86241D01*
X308434Y86241D01*
X309081Y86068D01*
X309660Y85733D01*
X310133Y85260D01*
X310468Y84681D01*
X310641Y84034D01*
X310641Y78739D01*
X304139Y78739D01*
G37*
%LPD*%
%LPC*%
G36*
X253339Y243839D02*
X253339Y243839D01*
X253339Y251341D01*
X257634Y251341D01*
X258281Y251168D01*
X258860Y250833D01*
X259333Y250360D01*
X259668Y249781D01*
X259841Y249134D01*
X259841Y243839D01*
X253339Y243839D01*
G37*
%LPD*%
%LPC*%
G36*
X253339Y218439D02*
X253339Y218439D01*
X253339Y225941D01*
X257634Y225941D01*
X258281Y225768D01*
X258860Y225433D01*
X259333Y224960D01*
X259668Y224381D01*
X259841Y223734D01*
X259841Y218439D01*
X253339Y218439D01*
G37*
%LPD*%
%LPC*%
G36*
X253339Y320039D02*
X253339Y320039D01*
X253339Y327541D01*
X257634Y327541D01*
X258281Y327368D01*
X258860Y327033D01*
X259333Y326560D01*
X259668Y325981D01*
X259841Y325334D01*
X259841Y320039D01*
X253339Y320039D01*
G37*
%LPD*%
%LPC*%
G36*
X304139Y294639D02*
X304139Y294639D01*
X304139Y302141D01*
X308434Y302141D01*
X309081Y301968D01*
X309660Y301633D01*
X310133Y301160D01*
X310468Y300581D01*
X310641Y299934D01*
X310641Y294639D01*
X304139Y294639D01*
G37*
%LPD*%
%LPC*%
G36*
X304139Y269239D02*
X304139Y269239D01*
X304139Y276741D01*
X308434Y276741D01*
X309081Y276568D01*
X309660Y276233D01*
X310133Y275760D01*
X310468Y275181D01*
X310641Y274534D01*
X310641Y269239D01*
X304139Y269239D01*
G37*
%LPD*%
%LPC*%
G36*
X304139Y129539D02*
X304139Y129539D01*
X304139Y137041D01*
X308434Y137041D01*
X309081Y136868D01*
X309660Y136533D01*
X310133Y136060D01*
X310468Y135481D01*
X310641Y134834D01*
X310641Y129539D01*
X304139Y129539D01*
G37*
%LPD*%
%LPC*%
G36*
X304139Y66159D02*
X304139Y66159D01*
X304139Y73661D01*
X310641Y73661D01*
X310641Y68366D01*
X310468Y67719D01*
X310133Y67140D01*
X309660Y66667D01*
X309081Y66332D01*
X308434Y66159D01*
X304139Y66159D01*
G37*
%LPD*%
%LPC*%
G36*
X304139Y116959D02*
X304139Y116959D01*
X304139Y124461D01*
X310641Y124461D01*
X310641Y119166D01*
X310468Y118519D01*
X310133Y117940D01*
X309660Y117467D01*
X309081Y117132D01*
X308434Y116959D01*
X304139Y116959D01*
G37*
%LPD*%
%LPC*%
G36*
X253339Y282059D02*
X253339Y282059D01*
X253339Y289561D01*
X259841Y289561D01*
X259841Y284266D01*
X259668Y283619D01*
X259333Y283040D01*
X258860Y282567D01*
X258281Y282232D01*
X257634Y282059D01*
X253339Y282059D01*
G37*
%LPD*%
%LPC*%
G36*
X304139Y282059D02*
X304139Y282059D01*
X304139Y289561D01*
X310641Y289561D01*
X310641Y284266D01*
X310468Y283619D01*
X310133Y283040D01*
X309660Y282567D01*
X309081Y282232D01*
X308434Y282059D01*
X304139Y282059D01*
G37*
%LPD*%
%LPC*%
G36*
X253339Y231259D02*
X253339Y231259D01*
X253339Y238761D01*
X259841Y238761D01*
X259841Y233466D01*
X259668Y232819D01*
X259333Y232240D01*
X258860Y231767D01*
X258281Y231432D01*
X257634Y231259D01*
X253339Y231259D01*
G37*
%LPD*%
%LPC*%
G36*
X304139Y256659D02*
X304139Y256659D01*
X304139Y264161D01*
X310641Y264161D01*
X310641Y258866D01*
X310468Y258219D01*
X310133Y257640D01*
X309660Y257167D01*
X309081Y256832D01*
X308434Y256659D01*
X304139Y256659D01*
G37*
%LPD*%
%LPC*%
G36*
X246499Y55499D02*
X246499Y55499D01*
X246499Y60541D01*
X248834Y60541D01*
X249481Y60368D01*
X250060Y60033D01*
X250533Y59560D01*
X250868Y58981D01*
X251041Y58334D01*
X251041Y55499D01*
X246499Y55499D01*
G37*
%LPD*%
%LPC*%
G36*
X237959Y55499D02*
X237959Y55499D01*
X237959Y58334D01*
X238132Y58981D01*
X238467Y59560D01*
X238940Y60033D01*
X239519Y60368D01*
X240166Y60541D01*
X242501Y60541D01*
X242501Y55499D01*
X237959Y55499D01*
G37*
%LPD*%
%LPC*%
G36*
X246499Y46459D02*
X246499Y46459D01*
X246499Y51501D01*
X251041Y51501D01*
X251041Y48666D01*
X250868Y48019D01*
X250533Y47440D01*
X250060Y46967D01*
X249481Y46632D01*
X248834Y46459D01*
X246499Y46459D01*
G37*
%LPD*%
%LPC*%
G36*
X240166Y46459D02*
X240166Y46459D01*
X239519Y46632D01*
X238940Y46967D01*
X238467Y47440D01*
X238132Y48019D01*
X237959Y48666D01*
X237959Y51501D01*
X242501Y51501D01*
X242501Y46459D01*
X240166Y46459D01*
G37*
%LPD*%
%LPC*%
G36*
X215899Y63499D02*
X215899Y63499D01*
X215899Y63501D01*
X215901Y63501D01*
X215901Y63499D01*
X215899Y63499D01*
G37*
%LPD*%
D10*
X101600Y406400D03*
D11*
X250800Y317500D03*
X231800Y317500D03*
X250800Y292100D03*
X231800Y292100D03*
X250800Y215900D03*
X231800Y215900D03*
X250800Y241300D03*
X231800Y241300D03*
X79400Y266700D03*
X98400Y266700D03*
X98400Y215900D03*
X79400Y215900D03*
X98400Y241300D03*
X79400Y241300D03*
X47600Y177800D03*
X28600Y177800D03*
X47600Y152400D03*
X28600Y152400D03*
X98400Y177800D03*
X79400Y177800D03*
X181000Y177800D03*
X200000Y177800D03*
X149200Y152400D03*
X130200Y152400D03*
X200000Y152400D03*
X181000Y152400D03*
D12*
X25400Y355600D03*
D13*
X50800Y355600D03*
D12*
X25400Y292100D03*
D13*
X50800Y292100D03*
D14*
X304800Y355600D03*
D13*
X279400Y355600D03*
D15*
X177800Y25400D03*
D16*
X152400Y25400D03*
D17*
X203200Y406400D03*
D18*
X127000Y406400D03*
D10*
X228600Y406400D03*
X50800Y25400D03*
X279400Y25400D03*
X114300Y25400D03*
D19*
X195834Y298450D03*
X195834Y285750D03*
X195834Y273050D03*
X195834Y260350D03*
X195834Y247650D03*
X195834Y234950D03*
X195834Y222250D03*
X195834Y209550D03*
X134366Y209550D03*
X134366Y222250D03*
X134366Y234950D03*
X134366Y247650D03*
X134366Y260350D03*
X134366Y273050D03*
X134366Y285750D03*
X134366Y298450D03*
D10*
X25400Y25400D03*
X215900Y25400D03*
D20*
X215900Y63500D03*
D21*
X165100Y63500D03*
X114300Y63500D03*
D10*
X304800Y25400D03*
D11*
X301600Y292100D03*
X282600Y292100D03*
X79400Y292100D03*
X98400Y292100D03*
X28600Y215900D03*
X47600Y215900D03*
X47600Y241300D03*
X28600Y241300D03*
X79400Y152400D03*
X98400Y152400D03*
X149200Y177800D03*
X130200Y177800D03*
X250800Y177800D03*
X231800Y177800D03*
D22*
X263500Y53500D03*
X244500Y53500D03*
X254000Y74500D03*
D23*
X203200Y92100D03*
X203200Y111100D03*
D11*
X250800Y127000D03*
X231800Y127000D03*
X301600Y190500D03*
X282600Y190500D03*
X250800Y101600D03*
X231800Y101600D03*
X282600Y101600D03*
X301600Y101600D03*
X301600Y76200D03*
X282600Y76200D03*
X301600Y127000D03*
X282600Y127000D03*
X282600Y215900D03*
X301600Y215900D03*
X282600Y241300D03*
X301600Y241300D03*
X301600Y266700D03*
X282600Y266700D03*
X231800Y266700D03*
X250800Y266700D03*
D24*
X173990Y349250D03*
X173990Y361950D03*
X157480Y361950D03*
X157480Y349250D03*
X157480Y95250D03*
X50800Y50800D03*
X292100Y203200D03*
X88900Y330200D03*
X76200Y327660D03*
X38100Y203200D03*
X38100Y254000D03*
X63500Y254000D03*
X156210Y285750D03*
X114300Y330200D03*
D25*
X212700Y165100D02*
X200000Y152400D01*
X212700Y165100D02*
X215900Y165100D01*
D24*
X215900Y165100D03*
X215900Y127226D03*
X312823Y145183D03*
X266700Y203200D03*
D26*
X90170Y394970D02*
X101600Y406400D01*
X90170Y394970D02*
X90170Y387913D01*
X64389Y286471D02*
X56429Y278511D01*
X31029Y278511D02*
X13970Y261452D01*
X13970Y63500D01*
X31029Y278511D02*
X56429Y278511D01*
X64389Y362132D02*
X90170Y387913D01*
X64389Y362132D02*
X64389Y286471D01*
X13970Y63500D02*
X35687Y41783D01*
X137469Y25400D02*
X152400Y25400D01*
X137469Y25400D02*
X121086Y41783D01*
X35687Y41783D01*
D24*
X173990Y115570D03*
D26*
X184150Y44450D02*
X179578Y39878D01*
X171803Y39878D01*
X157325Y25400D02*
X152400Y25400D01*
X157325Y25400D02*
X171803Y39878D01*
X173990Y83820D02*
X173990Y115570D01*
X173990Y83820D02*
X184150Y73660D01*
X184150Y44450D01*
D25*
X178460Y111100D02*
X203200Y111100D01*
X178460Y111100D02*
X173990Y115570D01*
D24*
X88900Y63500D03*
D25*
X88900Y88900D01*
D24*
X88900Y88900D03*
X63500Y189230D03*
D25*
X63500Y200000D01*
X47600Y215900D01*
X250800Y177800D02*
X252400Y179400D01*
D24*
X241300Y304800D03*
D25*
X251460Y200050D02*
X252400Y199110D01*
D24*
X63500Y138430D03*
D25*
X127000Y74930D01*
X133350Y74930D01*
D24*
X133350Y74930D03*
X151130Y77752D03*
D25*
X151130Y92300D01*
X150904Y92526D01*
X252400Y178293D02*
X252400Y179400D01*
X252400Y199110D01*
X170814Y133350D02*
X158750Y133350D01*
X150904Y125504D01*
X170814Y133350D02*
X177672Y140208D01*
X150904Y125504D02*
X150904Y92526D01*
X250800Y199390D02*
X251460Y200050D01*
X250800Y199390D02*
X250800Y177800D01*
D24*
X251460Y200050D03*
X292100Y304800D03*
D25*
X241300Y304800D01*
X232631Y158524D02*
X214630Y158524D01*
X232631Y158524D02*
X252400Y178293D01*
X207915Y140208D02*
X177672Y140208D01*
X207915Y140208D02*
X214630Y146923D01*
X214630Y158524D01*
X225450Y285750D02*
X231800Y292100D01*
X225450Y285750D02*
X195834Y285750D01*
X231800Y241300D02*
X212750Y222250D01*
X195834Y222250D01*
X225450Y209550D02*
X231800Y215900D01*
X225450Y209550D02*
X195834Y209550D01*
X98400Y266700D02*
X98400Y292100D01*
X104750Y285750D01*
X134366Y285750D01*
X79400Y292100D02*
X79400Y266700D01*
X79400Y292100D02*
X79400Y308000D01*
X82776Y311376D02*
X124631Y311376D01*
X134366Y301641D02*
X134366Y298450D01*
X134366Y301641D02*
X124631Y311376D01*
X82776Y311376D02*
X79400Y308000D01*
D24*
X139700Y317500D03*
D25*
X139700Y303784D01*
X134366Y298450D01*
X106689Y227718D02*
X90111Y227718D01*
X87582Y225189D01*
X112157Y222250D02*
X134366Y222250D01*
X87582Y224082D02*
X87582Y225189D01*
X106689Y227718D02*
X112157Y222250D01*
X87582Y224082D02*
X79400Y215900D01*
X104750Y209550D02*
X134366Y209550D01*
X104750Y209550D02*
X98400Y215900D01*
X104750Y234950D02*
X134366Y234950D01*
X104750Y234950D02*
X98400Y241300D01*
X106689Y253118D02*
X90111Y253118D01*
X87582Y250589D01*
X112157Y247650D02*
X134366Y247650D01*
X87582Y249482D02*
X87582Y250589D01*
X106689Y253118D02*
X112157Y247650D01*
X87582Y249482D02*
X79400Y241300D01*
X47600Y241300D01*
X28600Y241300D02*
X28600Y215900D01*
X28600Y177800D01*
X47600Y177800D02*
X47600Y152400D01*
X54000Y177800D02*
X79400Y152400D01*
X54000Y177800D02*
X47600Y177800D01*
X79400Y152400D02*
X87582Y144218D01*
X87582Y143111D01*
X90993Y139700D01*
D24*
X139700Y165100D03*
D25*
X119382Y153275D02*
X105807Y139700D01*
X119382Y153275D02*
X119382Y161689D01*
X122793Y165100D01*
X105807Y139700D02*
X90993Y139700D01*
X122793Y165100D02*
X139700Y165100D01*
X87582Y185982D02*
X79400Y177800D01*
X87582Y185982D02*
X87582Y187089D01*
X102423Y201930D01*
X146315Y201930D01*
X152391Y208006D01*
X152391Y253991D01*
X146032Y260350D02*
X134366Y260350D01*
X146032Y260350D02*
X152391Y253991D01*
D24*
X162560Y196850D03*
D25*
X152391Y207019D01*
X152391Y208006D01*
X170180Y259080D02*
X156210Y273050D01*
X170180Y189618D02*
X140911Y189618D01*
X138382Y187089D01*
X138382Y185982D01*
X130200Y177800D01*
X170180Y189618D02*
X170180Y259080D01*
X101600Y177800D02*
X98400Y177800D01*
X101600Y155600D02*
X98400Y152400D01*
X101600Y155600D02*
X101600Y177800D01*
X98400Y177800D02*
X130200Y177800D01*
X134366Y273050D02*
X156210Y273050D01*
X149200Y177800D02*
X149200Y152400D01*
X149200Y177800D02*
X181000Y177800D01*
X200000Y177800D02*
X231800Y177800D01*
X181000Y152400D02*
X168300Y139700D01*
X142900Y139700D02*
X142900Y66700D01*
X139700Y63500D01*
X114300Y63500D01*
X142900Y139700D02*
X168300Y139700D01*
X142900Y139700D02*
X142018Y140582D01*
X140911Y140582D01*
X138382Y143111D01*
X138382Y144218D01*
X130200Y152400D01*
D24*
X163830Y114526D03*
D25*
X165100Y113256D01*
X165100Y63500D01*
D24*
X259080Y148590D03*
D25*
X290830Y148590D01*
D24*
X290830Y148590D03*
D26*
X195834Y298450D02*
X214884Y317500D01*
X231800Y317500D01*
X238712Y324412D01*
X238712Y327315D01*
X266997Y355600D01*
X279400Y355600D01*
X195834Y298450D02*
X156210Y298450D01*
D24*
X156210Y298450D03*
D25*
X282600Y215900D02*
X282600Y190500D01*
X251418Y77082D02*
X254000Y74500D01*
X251418Y77082D02*
X236211Y77082D01*
X221193Y92100D01*
X203200Y92100D01*
X231800Y120700D02*
X231800Y127000D01*
X211382Y100282D02*
X203200Y92100D01*
X211382Y100282D02*
X212489Y100282D01*
X220982Y110889D02*
X223511Y113418D01*
X224518Y113418D01*
X231800Y120700D01*
X220982Y108775D02*
X212489Y100282D01*
X220982Y108775D02*
X220982Y110889D01*
X231800Y127000D02*
X239982Y135182D01*
X239982Y138792D01*
X279400Y187300D02*
X282600Y190500D01*
X279400Y187300D02*
X279400Y165100D01*
X269466Y155166D01*
X256356Y155166D01*
X239982Y138792D01*
X250800Y127000D02*
X250800Y120600D01*
X239982Y109782D02*
X231800Y101600D01*
X239982Y109782D02*
X239982Y110889D01*
X242511Y113418D01*
X243618Y113418D01*
X250800Y120600D01*
X231800Y101600D02*
X239982Y93418D01*
X239982Y92311D01*
X248975Y83318D01*
X259789Y83318D01*
X263500Y79607D01*
X263500Y53500D01*
X282600Y120600D02*
X282600Y127000D01*
X293418Y109782D02*
X301600Y101600D01*
X293418Y109782D02*
X293418Y110889D01*
X290889Y113418D01*
X289782Y113418D01*
X282600Y120600D01*
X282600Y127000D02*
X282600Y130200D01*
X304800Y152400D01*
X304800Y187300D01*
X301600Y190500D01*
X282600Y101600D02*
X282600Y76200D01*
X282600Y101600D02*
X250800Y101600D01*
X282600Y286807D02*
X282600Y292100D01*
X282600Y266700D02*
X282600Y241300D01*
X282600Y266700D02*
X282600Y292100D01*
X282600Y266700D02*
X250800Y266700D01*
X301600Y241300D02*
X301600Y215900D01*
X210312Y242559D02*
X210312Y245212D01*
X231800Y266700D01*
X202703Y234950D02*
X195834Y234950D01*
X202703Y234950D02*
X210312Y242559D01*
M02*
