G04 EAGLE Gerber RS-274X export*
G75*
%MOMM*%
%FSLAX34Y34*%
%LPD*%
%INSolderpaste Bottom*%
%IPPOS*%
%AMOC8*
5,1,8,0,0,1.08239X$1,22.5*%
G01*
%ADD10R,1.300000X1.500000*%
%ADD11R,2.032000X0.660400*%
%ADD12R,0.800000X0.900000*%
%ADD13R,1.500000X1.300000*%


D10*
X250800Y317500D03*
X231800Y317500D03*
X250800Y292100D03*
X231800Y292100D03*
X250800Y215900D03*
X231800Y215900D03*
X250800Y241300D03*
X231800Y241300D03*
X79400Y266700D03*
X98400Y266700D03*
X98400Y215900D03*
X79400Y215900D03*
X98400Y241300D03*
X79400Y241300D03*
X47600Y177800D03*
X28600Y177800D03*
X47600Y152400D03*
X28600Y152400D03*
X98400Y177800D03*
X79400Y177800D03*
X181000Y177800D03*
X200000Y177800D03*
X149200Y152400D03*
X130200Y152400D03*
X200000Y152400D03*
X181000Y152400D03*
D11*
X195834Y298450D03*
X195834Y285750D03*
X195834Y273050D03*
X195834Y260350D03*
X195834Y247650D03*
X195834Y234950D03*
X195834Y222250D03*
X195834Y209550D03*
X134366Y209550D03*
X134366Y222250D03*
X134366Y234950D03*
X134366Y247650D03*
X134366Y260350D03*
X134366Y273050D03*
X134366Y285750D03*
X134366Y298450D03*
D10*
X301600Y292100D03*
X282600Y292100D03*
X79400Y292100D03*
X98400Y292100D03*
X28600Y215900D03*
X47600Y215900D03*
X47600Y241300D03*
X28600Y241300D03*
X79400Y152400D03*
X98400Y152400D03*
X149200Y177800D03*
X130200Y177800D03*
X250800Y177800D03*
X231800Y177800D03*
D12*
X263500Y53500D03*
X244500Y53500D03*
X254000Y74500D03*
D13*
X203200Y92100D03*
X203200Y111100D03*
D10*
X250800Y127000D03*
X231800Y127000D03*
X301600Y190500D03*
X282600Y190500D03*
X250800Y101600D03*
X231800Y101600D03*
X282600Y101600D03*
X301600Y101600D03*
X301600Y76200D03*
X282600Y76200D03*
X301600Y127000D03*
X282600Y127000D03*
X282600Y215900D03*
X301600Y215900D03*
X282600Y241300D03*
X301600Y241300D03*
X301600Y266700D03*
X282600Y266700D03*
X231800Y266700D03*
X250800Y266700D03*
M02*
