M48
;GenerationSoftware,Autodesk,EAGLE,9.3.2*%
;CreationDate,2021-10-28T19:49:31Z*%
FMAT,2
ICI,OFF
METRIC,TZ,000.000
T6C0.350
T5C0.813
T4C0.900
T3C1.000
T2C1.016
T1C1.400
%
G90
M71
T1
X21590Y6350
X16510Y6350
X11430Y6350
T2
X10160Y40640
X30480Y2540
X27940Y2540
X22860Y40640
X5080Y2540
X11430Y2540
X2540Y2540
X21590Y2540
T3
X20320Y40640
X12700Y40640
T4
X17780Y2540
X15240Y2540
T5
X2540Y35560
X5080Y35560
X2540Y29210
X5080Y29210
X30480Y35560
X27940Y35560
T6
X8890Y8890
X24130Y30480
X6350Y13843
X13335Y7493
X15113Y7775
X25146Y20005
X29210Y30480
X8890Y33020
X13970Y16510
X16256Y19685
X16383Y11453
X25908Y14859
X29083Y14859
X15621Y29845
X13970Y31750
X17399Y34925
X17399Y36195
X15748Y36195
X15748Y34925
X15748Y9525
X5080Y5080
X29210Y20320
X7620Y32766
X3810Y20320
X3810Y25400
X6350Y25400
X15621Y28575
X6350Y18923
X11430Y33020
X21590Y16510
X21590Y12723
X31282Y14518
X26670Y20320
X17399Y11557
X8890Y6350
M30